<svg width="169" height="130" viewBox="0 0 169 121" fill="none" xmlns="http://www.w3.org/2000/svg">
<path d="M76 92.5C76 92.5 77.5 106.5 85.5 107C93.5 107.5 94 92.5 94 92.5" stroke="black" stroke-width="3"/>
<ellipse cx="68" cy="45.5" rx="8" ry="10.5" fill="#FCFFFE"/>
<ellipse cx="101" cy="45.5" rx="8" ry="10.5" fill="#FCFFFE"/>
<path d="M54 20.9999C54 20.9999 47.2167 39.2807 45.632 42.5003C42.4142 49.0378 41.632 60.7248 41.632 60.7248M54 20.9999C54 20.9999 71.0146 9.91546 86 10C100.803 10.0835 117 20.9999 117 20.9999M54 20.9999C54 20.9999 41.3461 23.6604 33.132 23.0003C17.6381 21.755 1.00812 71.3766 7.50002 85.4999C10.2109 91.3976 20.5777 100.06 27 101C33.9183 102.013 41.632 60.7248 41.632 60.7248M41.632 60.7248C41.632 60.7248 35.3628 84.0145 41.632 96.4999C50.5162 114.193 68.211 117.617 88 117C105.283 116.461 119.729 113.929 128.454 98.9999C135.996 86.0948 128.454 60.7248 128.454 60.7248M117 20.9999C117 20.9999 122.648 39.0796 124.632 42.5003C128.281 48.7906 128.454 60.7248 128.454 60.7248M117 20.9999C117 20.9999 127.352 23.8549 135.49 23.0003C151.342 21.3355 167.441 70.9197 161 85.4999C158.431 91.315 147.726 99.7142 141.5 101C134.271 102.493 128.454 60.7248 128.454 60.7248M86 79.9999C83.5 73.9999 76 75.5 76 75.5C76 75.5 81.3423 69 86 69C90.6577 69 96 75.5 96 75.5C96 75.5 87.5 73.4999 86 79.9999ZM86 79.9999C85.5 89.9999 72 94.9999 72 94.9999M86 79.9999C86.5 89.9999 98 94.9999 98 94.9999" stroke="black" stroke-width="4"/>
<circle cx="68" cy="49" r="7" fill="black"/>
<circle cx="101" cy="49" r="7" fill="black"/>
</svg>