<svg width="100" height="100" viewBox="0 0 151 169" fill="none" xmlns="http://www.w3.org/2000/svg">
<rect width="100" height="100" fill="white"/>
<path d="M112.131 86.3958C112.131 109.515 95.8269 127.896 76.1309 127.896C56.4348 127.896 40.1309 109.515 40.1309 86.3958C40.1309 63.2766 56.4348 44.8958 76.1309 44.8958C95.8269 44.8958 112.131 63.2766 112.131 86.3958Z" stroke="black" stroke-width="3"/>
<path d="M42.9704 68.101C24.9707 65.601 31.9708 51.101 31.9708 51.101C36.4708 44.6009 49.4701 43.6009 52.4704 56.101" stroke="black" stroke-width="1.15"/>
<path d="M98.4814 55.499C104.439 38.3309 117.298 48.0212 117.298 48.0212C122.797 53.701 121.246 66.6461 108.401 67.1543" stroke="black" stroke-width="1.15"/>
<path d="M54.959 63.8645C57.385 63.518 59.8203 63.4003 62.2608 63.232C63.7505 63.1292 65.5349 62.937 66.9781 63.3946C68.6174 63.9144 69.7125 64.5277 70.5748 66.0424C71.641 67.9155 72.3258 69.5935 72.6081 71.7357C73.1952 76.1911 73.2139 80.5804 72.9515 85.0742C72.8458 86.8834 72.7988 88.9093 72.9515 90.7222C73.0011 91.3115 72.8521 93.0848 72.8521 92.4935" stroke="black" stroke-linecap="round" stroke-linejoin="round"/>
<path d="M96.4387 62.5633C94.0062 62.0843 91.6442 62.6446 89.1911 62.6446C87.4006 62.6446 85.7149 63.001 84.0129 63.5393C81.0908 64.4633 80.4497 67.295 80.3394 70.0503C80.2457 72.3941 80.0175 74.8444 80.353 77.1669C80.6852 79.4668 81.0401 81.7152 81.1482 84.0395C81.2436 86.0893 81.2085 88.112 81.3742 90.162C81.4011 90.4948 81.3666 92.3609 81.2296 92.0868" stroke="black" stroke-linecap="round" stroke-linejoin="round"/>
<path d="M59.5952 64.1898C58.4891 65.7809 58.0174 67.0079 57.9731 68.8935C57.9454 70.0704 57.9639 71.2613 58.2623 72.4089C58.7726 74.3718 60.221 76.8498 61.9448 77.953C64.9989 79.9076 68.9221 81.6396 72.283 79.3989" stroke="black" stroke-linecap="round" stroke-linejoin="round"/>
<path d="M91.965 62.9698C93.5753 65.5176 94.3019 68.4213 93.8357 71.4284C93.4636 73.8281 92.7121 76.3599 90.8671 78.0479C89.236 79.5402 87.1603 80.5747 84.8846 80.3614C83.7882 80.2586 81.3033 79.7097 80.7412 78.5856" stroke="black" stroke-linecap="round" stroke-linejoin="round"/>
<path d="M58.9826 64.8207C59.2361 64.5188 59.4556 64.2404 59.6515 63.9088C59.7289 63.7779 59.8167 63.657 59.9275 63.5518C60.2486 63.2467 59.8733 63.9932 59.8045 64.0932C59.6933 64.255 59.4724 64.3819 59.3321 64.5222C59.1758 64.6785 59.0038 64.8385 58.8356 64.9827C58.7102 65.0901 58.4108 65.4798 58.4846 65.3322C58.5777 65.146 58.6252 64.9834 58.7546 64.8057C58.8885 64.6219 59.0714 64.3698 59.1026 64.1517C59.1086 64.1092 59.0196 64.4035 58.9766 64.4757C58.6679 64.9938 58.3765 65.5328 58.1261 66.0836C57.8385 66.7165 57.8996 67.4702 57.8996 68.1445C57.8996 68.6181 57.5997 69.2521 57.9566 69.6804" stroke="black" stroke-linecap="round" stroke-linejoin="round"/>
<path d="M64.436 63.7678C62.8239 64.7147 62.1541 66.6033 62.1067 68.4146C62.0653 69.9958 62.7858 71.4815 64.0236 72.4733C65.577 73.7181 67.8125 74.1136 69.7488 73.7513C70.7595 73.5621 71.4128 72.8999 71.8876 72.0294" stroke="black" stroke-linecap="round" stroke-linejoin="round"/>
<path d="M87.8976 63.3088C88.9338 64.3152 89.9707 65.2952 90.2885 66.7496C90.4639 67.5521 90.5823 68.4026 90.5105 69.2245C90.3509 71.0523 88.8036 72.2508 87.2872 73.0388C85.8763 73.772 84.0804 74.5187 82.5144 73.8308C81.9443 73.5803 81.3841 73.2402 80.902 72.8453C80.8247 72.782 80.5127 72.5853 80.554 72.4613" stroke="black" stroke-linecap="round" stroke-linejoin="round"/>
<path d="M63.2482 64.0917C62.6747 64.5218 62.2061 64.9296 61.8773 65.5796C61.4838 66.3573 61.2271 67.2159 61.0073 68.056C60.8896 68.5058 60.795 68.9585 60.7163 69.4164C60.7049 69.4832 60.6527 69.6495 60.7268 69.4974C60.9681 69.0022 61.0353 68.3923 61.2293 67.8715C61.5824 66.9238 61.9815 65.9908 62.3782 65.0606C62.4537 64.8838 62.8477 64.233 62.7697 64.0302C62.7261 63.9167 62.2696 64.4423 62.2642 64.4487C61.7115 65.1002 61.2026 65.8018 60.8183 66.5666C60.4752 67.2494 60.2055 67.9746 59.9754 68.7024C59.896 68.9536 59.6273 69.678 59.7894 69.4704C59.8806 69.3535 59.9319 69.1854 59.9844 69.0504C60.2187 68.4475 60.4596 67.8473 60.6983 67.246C60.9585 66.5906 61.2412 65.9494 61.5233 65.3036C61.628 65.0639 61.862 64.6328 61.7768 64.3557C61.7269 64.1935 61.5042 64.3296 61.4378 64.3842C60.9065 64.8206 60.5384 65.4996 60.2334 66.1016C59.7459 67.0635 58.5511 70.0648 59.0754 69.1224C59.536 68.2946 59.8688 67.384 60.2349 66.5126C60.4978 65.8867 60.7399 65.2548 60.9713 64.6167C60.9819 64.5874 61.2602 63.9852 61.0793 63.9852C60.7997 63.9852 60.4867 64.4746 60.3413 64.6647C60.0162 65.0897 59.7454 65.5689 59.4999 66.0431C59.2005 66.6213 58.9418 67.2395 58.7604 67.8655C58.6859 68.1227 58.724 68.234 58.8939 67.972C59.3408 67.2828 59.5804 66.4305 59.8344 65.6576C59.9616 65.2705 60.092 64.8842 60.2034 64.4922C60.2915 64.1818 60.1546 64.4642 60.1044 64.5777C59.7245 65.4361 59.4487 66.3368 59.1039 67.2085C58.9841 67.5114 58.6491 68.1036 58.8834 67.4065C59.21 66.4351 59.7941 65.5037 60.4343 64.7097C60.917 64.111 61.744 63.1643 62.6002 63.2757C62.7248 63.292 62.9354 63.3636 63.0112 63.4827C63.0377 63.5244 62.3372 63.8388 62.2987 63.8592C62.2239 63.8989 61.6784 64.2426 61.8563 64.1547C62.2287 63.9707 62.5934 63.769 62.9662 63.5847C63.3896 63.3754 62.0868 64.1859 62.4742 64.1007C62.7814 64.0331 63.0383 63.8342 63.3172 63.6987C63.4498 63.6343 63.2055 63.892 63.1792 63.9657C63.1501 64.0472 63.6434 63.4582 63.5992 63.7677" stroke="black" stroke-linecap="round" stroke-linejoin="round"/>
<path d="M61.4392 68.8434C61.6759 70.2414 61.9416 71.5999 62.3676 72.9547C62.7586 74.1983 62.5918 73.5812 62.9001 74.4696C62.9879 74.7228 62.9133 74.5726 62.8521 74.4546C62.4508 73.6816 62.1889 72.8371 61.9671 71.9978C61.7482 71.169 61.5529 70.335 61.3462 69.5034C61.332 69.4465 61.268 69.1898 61.2262 69.1134C61.2083 69.0807 61.186 69.1811 61.1872 69.2184C61.2001 69.6459 61.2807 70.0757 61.3342 70.4993C61.4542 71.4511 61.6125 72.3995 61.8006 73.3402C61.8679 73.6766 61.9435 74.0112 62.0151 74.3466C62.023 74.3836 62.1169 74.6769 62.0811 74.7216C62.0202 74.7977 61.9927 74.5478 61.9521 74.4591C61.7088 73.9273 61.4956 73.3856 61.2952 72.8362C61.011 72.0573 60.7258 71.2795 60.3982 70.5173C60.2294 70.1246 59.8751 69.3358 60.0292 70.4063C60.2355 71.8395 60.5393 73.4779 61.2232 74.7786C61.6278 75.5482 60.8908 73.0714 60.6952 72.2242C60.4508 71.1658 60.1875 70.0822 60.2302 68.9874C60.2566 68.3119 60.369 70.3333 60.4792 71.0003C60.5485 71.4197 60.6224 71.8381 60.6742 72.2602C60.682 72.3236 60.7973 72.9308 60.7117 72.9862C60.633 73.0371 60.6252 72.8189 60.5962 72.7297C60.5048 72.4486 60.4057 72.0937 60.3307 71.8163C60.1322 71.0818 59.9755 70.3406 59.8192 69.5964C59.8113 69.5584 59.6674 68.5469 59.4833 68.5674C59.1276 68.6072 59.2524 70.3571 59.2613 70.5383C59.2978 71.2804 59.41 72.019 59.5583 72.7462C59.5956 72.9295 59.7417 73.4711 59.6873 73.2922C59.3571 72.2074 59.1108 71.0924 58.8188 69.9969C58.7762 69.8372 58.6073 69.1856 58.5323 68.9619C58.4737 68.7871 58.4342 68.7043 58.4438 68.9604C58.4778 69.8644 58.6731 70.7775 58.8443 71.6633C58.9119 72.0129 59.1158 73.0615 59.0573 72.7102C58.93 71.9464 58.7487 71.1936 58.6193 70.4303C58.5933 70.2767 58.4837 69.5591 58.4828 69.5679C58.4199 70.1719 58.5932 70.8127 58.7273 71.3963C58.9693 72.4494 59.3747 73.4537 59.9812 74.3511C60.1082 74.539 60.2489 74.715 60.3742 74.9046C60.6864 75.3769 60.2167 74.8053 60.1132 74.6706C59.9465 74.4534 59.436 73.8097 59.6063 74.0241C59.8495 74.3304 60.1312 74.6235 60.4042 74.9031C60.9089 75.4199 60.5705 74.7335 60.4387 74.4681C60.2766 74.1417 59.7745 73.1721 59.9677 73.4812C60.1996 73.8522 60.6322 74.489 60.5752 74.9451" stroke="black" stroke-linecap="round" stroke-linejoin="round"/>
<path d="M62.3033 71.3003C62.2551 71.9597 62.3302 72.4425 62.8042 72.9232C63.2485 73.3737 63.7759 73.7654 64.2802 74.1456C65.0649 74.7374 65.9097 75.2594 66.782 75.7116C67.08 75.866 68.0115 76.1677 67.676 76.175C67.3399 76.1823 66.8901 75.685 66.674 75.5121C65.5207 74.5894 64.3314 73.6245 63.3322 72.5332C63.1774 72.3641 63.0158 72.2019 62.8537 72.0398C62.7107 71.8967 63.152 72.3135 63.2902 72.4612C64.119 73.3472 64.997 74.1661 65.9496 74.9181C66.2417 75.1487 66.5607 75.3357 66.8675 75.5451C67.1996 75.7717 66.6584 75.5847 66.56 75.5451C65.4598 75.1012 64.4759 74.3964 63.4042 73.8892C63.2133 73.7988 62.7673 73.4772 62.8042 73.6852C62.8532 73.9607 63.4329 74.359 63.6052 74.5251C64.6343 75.5177 65.6788 76.5459 66.581 77.6569C66.6272 77.7138 66.7595 77.8031 66.698 77.8429C66.6281 77.8882 66.5476 77.7701 66.479 77.7229C66.2966 77.5973 66.1234 77.4589 65.9466 77.3255C65.3003 76.8378 64.6673 76.3312 63.9697 75.917C63.8259 75.8317 62.8209 75.1591 62.6393 75.4521C62.5467 75.6013 62.7959 75.899 62.8552 75.986C63.2577 76.576 63.712 77.1322 64.1572 77.6899C64.4042 77.9994 64.6687 78.2999 64.9041 78.6184C65.0175 78.7718 64.6138 78.37 64.4812 78.2329C63.6192 77.3416 62.7936 76.2026 61.6763 75.6156C61.447 75.4951 61.2913 75.4582 61.5053 75.7341C61.7962 76.1089 62.1455 76.4402 62.4773 76.778C62.5129 76.8143 63.2924 77.6448 63.1852 77.7019C63.047 77.7757 62.9163 77.5398 62.7922 77.444C62.3595 77.1097 61.9492 76.7482 61.5278 76.4C61.2675 76.1849 60.9357 75.85 60.6054 75.7221C60.5109 75.6855 60.7173 76.0007 60.7194 76.004C60.9627 76.3939 61.2571 76.7438 61.5473 77.099C61.5945 77.1568 62.11 77.7784 61.8158 77.4095C61.423 76.9168 61.0574 76.3932 60.6144 75.944C60.4346 75.7618 60.3929 75.773 60.5214 75.5931" stroke="black" stroke-linecap="round" stroke-linejoin="round"/>
<path d="M62.0334 75.4581C62.3011 75.37 62.9842 75.2498 63.2138 75.0261C63.3144 74.9281 62.9318 75.0093 62.7923 75.0261C62.503 75.0611 62.186 75.0896 61.9164 75.2091C61.8223 75.2508 62.3063 75.1087 62.3844 75.0741C62.6319 74.9644 62.883 74.7699 63.1523 74.7201C63.1758 74.7158 62.6778 75.039 62.6513 75.1071C62.593 75.257 63.7061 74.975 63.7883 74.9451" stroke="black" stroke-linecap="round" stroke-linejoin="round"/>
<path d="M63.1133 77.645C63.5486 78.6011 64.1516 79.2337 65.1457 79.6204C65.5686 79.785 66.0421 79.8873 66.4941 79.9339C66.7444 79.9597 66.4526 79.7025 66.3891 79.6249C65.7117 78.7981 64.6268 78.3981 63.8482 77.687C63.7902 77.634 63.4737 77.3565 63.7462 77.5415C64.0224 77.7291 64.3019 77.9202 64.5562 78.137C65.1867 78.6745 65.7417 79.2994 66.3141 79.8964C66.5251 80.1164 66.5786 80.1117 66.4551 79.8349C66.2367 79.3454 65.904 78.8863 65.6136 78.4385C65.2858 77.9328 64.9539 77.4078 64.5292 76.9761C64.4091 76.854 63.9938 76.3651 63.7732 76.4271C63.5899 76.4787 64.1615 77.0398 64.1722 77.0511C64.8663 77.782 65.6582 78.5883 66.5706 79.0445C67.0904 79.3044 66.3251 78.5704 66.2646 78.5135C65.6347 77.9203 64.9879 77.2598 64.1542 76.9626C63.7909 76.833 62.9352 76.7338 63.2888 77.3661C63.5481 77.8299 64.2667 78.4206 64.8352 78.389C65.4675 78.3539 64.6264 77.576 64.4392 77.4815C63.982 77.2508 63.2661 77.4984 63.6143 78.089C64.0503 78.8288 65.0491 78.4774 65.6241 78.131C66.4692 77.6219 66.752 76.6398 66.4641 75.7131C66.3537 75.3578 66.0665 74.9817 65.8701 75.5242C65.652 76.1265 65.824 76.8268 65.9781 77.4231C66.0508 77.7042 66.5542 79.2981 67.1061 78.824C67.4151 78.5585 67.2355 77.8615 67.1376 77.5445C66.9981 77.0929 66.7044 76.6908 66.3951 76.3401C66.2962 76.228 66.0578 75.924 65.8746 75.9336C65.653 75.9453 65.9551 76.6842 65.9781 76.7421C66.1281 77.1199 67.2683 79.4571 67.916 78.932C68.4026 78.5375 68.1514 77.4618 68.027 76.9641C67.9722 76.7447 67.8703 76.2877 67.628 76.1751C67.3728 76.0565 67.3102 76.6934 67.2981 76.7871C67.2163 77.42 67.3789 78.0847 67.661 78.653C67.7575 78.8473 67.9334 79.1155 68.18 79.127C68.5644 79.1448 68.5907 78.6879 68.5895 78.4115C68.5866 77.7808 68.2762 76.5216 67.409 76.5966C66.4753 76.6774 66.8575 78.3862 67.0956 78.89C67.3236 79.3725 68.0519 79.9776 68.5145 79.3924C68.9253 78.8727 68.601 77.9154 67.8935 77.9015C67.139 77.8867 67.0617 78.6434 67.427 79.1615C67.7432 79.6097 68.3945 79.8375 68.7965 79.3789C68.9337 79.2224 68.998 78.9919 68.951 78.788C68.9321 78.7061 68.9016 78.6972 68.918 78.779" stroke="black" stroke-linecap="round" stroke-linejoin="round"/>
<path d="M65.5972 73.8113C66.523 74.3118 67.4564 74.7532 68.5265 74.7532C69.2633 74.7532 70.0397 74.7151 70.7539 74.5372C71.417 74.3721 72.2267 73.5942 72.0228 72.8603C72.0114 72.8194 71.9597 72.6326 72.0498 72.7478C72.1829 72.9179 72.2099 73.1866 72.2343 73.3913C72.2987 73.9303 72.2658 74.4867 72.2658 75.0292C72.2658 75.7824 72.2782 76.5124 72.3723 77.2596C72.4321 77.7341 72.5059 78.5441 72.0018 78.833C71.7162 78.9967 71.3503 79.0174 71.0314 79.049C70.4552 79.106 69.8787 79.1077 69.302 79.1465C68.6705 79.1889 68.0456 79.3145 67.4121 79.319C67.1907 79.3205 66.877 79.3125 66.7626 79.5485C66.6377 79.8061 67.1372 79.6391 67.2381 79.622C68.1752 79.4627 69.1357 79.4954 70.0789 79.394C70.2156 79.3793 70.6421 79.3825 70.6999 79.238" stroke="black" stroke-linecap="round" stroke-linejoin="round"/>
<path d="M69.8086 74.2702C70.2949 73.8832 70.8424 73.554 71.3475 73.2173" stroke="black" stroke-linecap="round" stroke-linejoin="round"/>
<path d="M71.6985 73.7572C71.7051 75.1252 71.7372 76.4926 71.7945 77.8595C71.8053 78.1184 71.7595 78.8606 71.8814 78.6319C71.9457 78.5114 71.7954 78.1391 71.7645 78.023C71.624 77.4947 71.5273 76.9616 71.4555 76.4196C71.3666 75.7489 71.3018 75.0709 71.1795 74.4052C71.1661 74.3326 71.0856 73.8619 71.013 74.1667C70.911 74.5951 71.0863 75.1299 71.1495 75.5571C71.2593 76.2998 71.3501 77.0307 71.3475 77.783C71.3465 78.0757 71.3283 78.3729 71.292 78.6634C71.273 78.8156 71.1942 78.3727 71.1465 78.227C70.941 77.5985 70.7836 76.9628 70.62 76.3221C70.5227 75.941 70.4139 75.5636 70.302 75.1866C70.2705 75.0804 70.2015 74.7628 70.191 74.8731C70.1578 75.2224 70.2884 75.6483 70.3335 75.9951C70.4047 76.5423 70.5009 77.0865 70.578 77.633C70.6301 78.0019 70.7039 78.3806 70.6995 78.7549C70.6985 78.8367 70.502 78.1466 70.4715 78.026C70.3339 77.4813 70.1754 76.9457 69.9781 76.4196C69.8364 76.0419 69.6551 75.3531 69.2926 75.1011C69.1787 75.0219 69.2479 75.3792 69.2671 75.5166C69.3253 75.9338 69.4208 76.3433 69.5251 76.751C69.5654 76.9088 69.9641 78.3224 69.8581 78.3754C69.8558 78.3766 69.5823 77.5927 69.5716 77.561C69.3024 76.7645 69.0962 75.9223 68.7031 75.1746C68.6211 75.0186 68.0855 74.2454 68.1676 74.8701C68.2534 75.5223 68.6008 76.1627 68.8516 76.76C69.0866 77.3199 69.3135 77.8906 69.5056 78.4669C69.5993 78.7482 69.2442 78.0426 69.2296 78.017C68.5535 76.8357 67.865 75.5694 66.8942 74.5987C66.459 74.1634 67.6989 75.533 68.0522 76.0371C68.3377 76.4446 68.6443 76.857 68.9176 77.267" stroke="black" stroke-linecap="round" stroke-linejoin="round"/>
<path d="M80.7163 73.5143C81.1569 74.5308 81.2413 75.5805 81.4333 76.6611C81.541 77.2677 81.4289 77.9241 81.6358 78.5135C81.6481 78.5488 81.8363 79.0677 81.7363 78.875C81.5797 78.5735 81.4483 78.1983 81.3763 77.867C81.1522 76.8363 81.0619 75.7792 80.8453 74.7502C80.7656 74.3717 80.7107 73.9844 80.8783 73.6493" stroke="black" stroke-linecap="round" stroke-linejoin="round"/>
<path d="M81.6611 73.9733C81.8567 75.3159 82.0528 76.6515 82.3586 77.9735C82.4401 78.3258 82.5731 78.758 82.5731 79.1225C82.5731 79.2422 82.5232 79.3558 82.5251 79.481C82.5278 79.6557 82.5255 79.2206 82.5251 79.172C82.5177 78.2351 82.5054 77.2944 82.5386 76.3581C82.5535 75.9375 82.5543 75.527 82.4711 75.1132C82.422 74.869 82.3407 74.6138 82.3361 74.3632C82.3271 73.8704 82.4008 74.4414 82.4591 74.6557C82.8507 76.0969 83.0995 77.5713 83.491 79.013C83.5492 79.2272 83.8745 79.686 83.6485 79.8424C83.4255 79.9968 83.3557 79.3763 83.335 79.289C82.9505 77.6656 83.3877 76.0221 83.2825 74.3917C83.2805 74.3601 83.2687 74.1284 83.314 74.2523C83.438 74.5909 83.4596 74.9711 83.491 75.3262C83.5421 75.9031 83.5783 76.4763 83.677 77.0481C83.8226 77.8913 84.0755 78.7336 84.172 79.583C84.1813 79.6648 84.3755 79.9017 84.4525 79.9444C84.5797 80.0151 84.4433 79.6535 84.442 79.508C84.438 79.081 84.4063 78.6562 84.382 78.23C84.3351 77.4103 84.2151 76.6007 84.172 75.7822C84.1546 75.4522 84.1103 75.134 84.0115 74.8177C83.9582 74.6473 83.875 74.4877 83.875 74.3062C83.875 74.1515 83.9889 74.5942 84.037 74.7412C84.2004 75.2404 84.316 75.763 84.436 76.2741C84.6848 77.3346 84.8167 78.407 85.1004 79.4585C85.1339 79.5825 85.2289 79.8872 85.4019 79.9069C85.5719 79.9264 85.3707 77.7692 85.3584 77.6316C85.2715 76.654 85.2307 75.6572 84.934 74.7142C84.8887 74.5705 84.6443 73.788 84.7795 74.3287C84.9903 75.1723 85.1385 76.0024 85.4619 76.8141C85.8257 77.7271 86.0726 78.7293 86.5419 79.595C86.6349 79.7666 86.7068 79.9414 86.4774 79.7629C86.1065 79.4745 86.0515 79.1119 85.7979 78.743C85.6705 78.5576 85.378 78.7538 85.4034 78.5C85.5048 77.4864 85.48 76.5244 85.4004 75.5077C85.3654 75.0599 85.0457 74.5357 85.1169 74.1083C85.1338 74.0074 85.2832 74.2669 85.2834 74.2673C85.5502 74.7459 85.6886 75.2823 85.8189 75.8107C86.059 76.7843 86.2012 77.8351 86.5989 78.761C86.69 78.9732 86.8095 79.1792 86.9198 79.382C86.9582 79.4525 86.9798 79.5468 86.9798 79.427" stroke="black" stroke-linecap="round" stroke-linejoin="round"/>
<path d="M85.873 74.0812C86.3136 74.9701 86.5876 75.8715 86.758 76.8486C86.8476 77.3623 86.9494 77.8653 87.1 78.365C87.2156 78.7487 87.3222 79.3334 87.6415 79.6249C87.9791 79.9332 87.6934 78.7795 87.6654 78.6605C87.4526 77.7537 87.2755 76.8468 87.028 75.9471C86.8777 75.4009 86.6741 74.8686 86.515 74.3242C86.4703 74.1711 86.405 74.0101 86.3905 73.8503C86.3902 73.8472 86.6486 74.212 86.686 74.2807C87.1897 75.2076 87.4746 76.2727 87.7629 77.2821C87.8857 77.7117 87.9886 78.1438 88.0989 78.5765C88.1559 78.7996 88.2235 79.0506 88.3989 79.211C88.4137 79.2245 88.6343 79.4264 88.6479 79.4029C88.7356 79.2515 88.5951 78.8292 88.5654 78.6905C88.3713 77.783 88.1324 76.9066 87.6999 76.0821C87.4218 75.552 87.2007 74.9774 87.0115 74.4097C86.9508 74.2278 86.9325 74.0324 86.899 73.8443C86.8464 73.5493 86.891 73.5159 87.04 73.8083C87.476 74.6642 87.8769 75.5145 88.1799 76.4271C88.4187 77.1461 88.5468 77.959 88.9239 78.623C89.3778 79.4223 89.3555 77.946 89.3019 77.672C89.1514 76.903 88.7077 76.211 88.3824 75.5062C88.1447 74.9912 87.9213 74.4848 87.8019 73.9312C87.7239 73.5696 87.5359 73.0325 88.0419 73.6223C88.6047 74.2782 88.9469 75.0013 89.1819 75.8271C89.2806 76.1743 89.3462 76.5297 89.4699 76.8696C89.5557 77.1055 89.6989 77.6127 89.9618 77.7305C90.323 77.8924 90.2602 76.8838 90.2348 76.7136C90.1446 76.1082 89.708 75.509 89.4249 74.9752C89.0767 74.3188 88.6246 73.5826 88.5654 72.8243C88.5389 72.4857 89.0299 72.9424 89.1129 73.0193C89.4271 73.3104 89.6691 73.7258 89.8298 74.1172C90.1188 74.8207 90.196 75.6653 90.6578 76.2891C91.007 76.7608 91.3479 76.4742 91.2548 75.9576C91.1468 75.359 90.7944 74.644 90.4628 74.1412C90.1132 73.6111 89.6639 73.1474 89.2164 72.6998C88.6481 72.1316 89.405 72.6445 89.6363 72.8378C90.3221 73.411 90.4883 74.31 90.6188 75.1552C90.6804 75.5546 90.7336 75.9543 90.7853 76.3551C90.8083 76.5338 90.9025 76.8869 90.7853 77.0481C90.7325 77.1206 90.5415 77.2907 90.4898 77.2131" stroke="black" stroke-linecap="round" stroke-linejoin="round"/>
<path d="M89.5444 78.158C89.6961 78.054 90.0149 77.7424 90.0439 77.924C90.0606 78.0282 89.9419 78.1874 89.9014 78.278C89.8845 78.3158 89.7478 78.5422 89.8144 78.5089" stroke="black" stroke-linecap="round" stroke-linejoin="round"/>
<path d="M89.3555 72.0023C89.9851 72.3587 90.5081 72.7026 90.7999 73.3867C90.9176 73.6627 91.0055 73.9525 91.0894 74.2402C91.2604 74.8266 91.3392 75.4926 91.6383 76.0311C91.8704 76.4489 92.0669 75.3966 92.0823 75.3051C92.2279 74.4423 91.9551 73.3647 91.3354 72.7403C90.9607 72.3628 90.7469 72.0627 90.5974 71.5493C90.5846 71.5056 90.3986 71.0182 90.4759 71.1384C90.831 71.6907 91.3597 72.1659 91.7718 72.6788C92.0794 73.0616 92.1624 73.4164 92.2308 73.8952C92.2451 73.9955 92.2853 74.4912 92.4603 74.2642C92.7541 73.883 92.8621 73.2943 92.9283 72.8393C92.995 72.3803 93.0947 71.7096 92.7663 71.3139C92.4632 70.9487 91.8281 70.9132 91.4179 70.7199C91.3722 70.6984 90.6981 70.3235 90.8944 70.2744" stroke="black" stroke-linecap="round" stroke-linejoin="round"/>
<path d="M89.5986 71.4353C90.5197 71.4705 91.9514 71.3211 92.201 72.4672C92.2716 72.7914 92.3038 73.1252 92.4215 73.4377C92.472 73.5719 92.5759 73.7684 92.6195 73.5202C92.7322 72.8777 92.5015 72.0444 92.2985 71.4353" stroke="black" stroke-linecap="round" stroke-linejoin="round"/>
<path d="M90.8408 69.6535C91.5065 69.7053 92.1213 69.7952 92.5507 70.3554C92.7361 70.5972 92.869 70.8912 93.0112 71.1594C93.0994 71.3257 93.3108 71.6978 93.2167 71.2794C93.1445 70.9587 93.0191 70.6638 92.7127 70.5174C92.4245 70.3798 92.1258 70.2654 91.8278 70.1514C91.7036 70.104 91.4688 70.0625 91.3703 69.9639C91.2978 69.8914 91.9435 69.7708 91.9808 69.7615C92.5005 69.6315 92.9185 69.7689 93.3727 70.0284C93.778 70.2601 93.3756 69.7913 93.2497 69.6655C92.8922 69.308 92.3257 69.2245 91.8458 69.184C91.7991 69.18 90.9443 69.1475 91.1018 68.9515C91.4285 68.545 92.3486 68.7349 92.7862 68.8045C93.2661 68.8809 92.6586 68.5828 92.4787 68.5645C92.0328 68.5192 90.7131 68.7628 91.1348 68.611C91.8137 68.3666 92.4275 68.1671 93.1597 68.143C93.7994 68.1221 91.9168 67.8227 91.2818 67.7426C91.1482 67.7257 90.813 67.8205 90.8798 67.7036C90.9019 67.6649 91.0615 67.6001 91.0793 67.5911C91.3839 67.4356 91.6928 67.2891 92.0018 67.1426C92.237 67.0311 92.4715 66.9182 92.7067 66.8066C92.7526 66.7849 92.8903 66.758 92.8432 66.7391C92.6872 66.6767 92.3767 66.8041 92.2267 66.8396C91.8667 66.9249 91.5337 67.0363 91.1963 67.1891C91.0449 67.2576 91.1139 67.2432 91.2188 67.1966" stroke="black" stroke-linecap="round" stroke-linejoin="round"/>
<path d="M91.5425 67.3046C91.7884 67.2779 93.1309 66.9563 93.2254 67.4336C93.2662 67.6394 93.1863 67.9313 93.1759 68.1415C93.1727 68.2064 93.1832 69.1694 93.3244 68.8165" stroke="black" stroke-linecap="round" stroke-linejoin="round"/>
<path d="M90.8947 66.6297C91.5437 66.3363 92.2861 65.93 93.0246 65.9652C93.1736 65.9723 92.7259 65.9231 92.5776 65.9397C91.9696 66.0077 90.2728 66.6967 90.7957 66.3792C91.0828 66.2048 91.36 66.0046 91.6386 65.8167C91.7976 65.7095 91.9547 65.5992 92.1171 65.4972C92.1729 65.4622 92.3349 65.3985 92.2731 65.3757C92.1334 65.3243 91.9137 65.3803 91.7706 65.3997C91.3406 65.4581 90.9154 65.5481 90.4957 65.6577C90.2558 65.7204 90.0526 65.8009 90.4042 65.6547C90.8614 65.4647 91.3411 65.3234 91.8156 65.1837C91.9874 65.1332 92.1603 65.088 92.3331 65.0413C92.3888 65.0262 92.5353 65.0058 92.4906 64.9693C92.2606 64.7811 91.6208 64.9656 91.3822 65.0128C91.0074 65.0868 90.6479 65.2102 90.2767 65.2947C90.2101 65.3099 90.7612 65.0985 90.8827 65.0518C91.323 64.8824 91.7867 64.7105 92.1861 64.4563C92.4418 64.2936 91.521 64.4314 91.4346 64.4443C90.9688 64.5138 90.5079 64.6123 90.0427 64.6858C89.5144 64.7692 89.9173 64.5546 90.1702 64.4398C90.668 64.2139 91.1956 64.056 91.7166 63.8938C92.0438 63.792 91.3812 63.8488 91.2937 63.8548C90.8069 63.8881 90.3244 63.9511 89.8357 63.9673C89.6313 63.9741 89.4278 63.9717 89.2238 63.9568C89.1488 63.9514 88.9502 63.9724 89.0018 63.9178C89.1585 63.7518 89.7249 63.7277 89.9167 63.6853C90.2766 63.6058 90.636 63.524 90.9967 63.4483C91.1168 63.4231 91.475 63.391 91.3552 63.3643C91.1172 63.3115 90.792 63.3992 90.5527 63.4168C90.0497 63.454 89.5514 63.5107 89.0498 63.5608C88.9571 63.5701 88.439 63.6209 88.7948 63.5248C89.2182 63.4106 89.6395 63.2874 90.0697 63.2009C90.377 63.1391 91.3061 63.0022 90.9937 63.0269C90.6759 63.052 90.3573 63.0673 90.0397 63.0944C89.5612 63.1351 88.1539 63.3252 88.5998 63.1469" stroke="black" stroke-linecap="round" stroke-linejoin="round"/>
<path d="M76.4668 105.192C76.3507 109.007 76.4498 112.171 73.3123 114.849C72.3631 115.659 71.3332 115.733 70.1476 115.873C69.8592 115.907 68.9436 116.297 69.0724 115.782" stroke="black" stroke-linecap="round" stroke-linejoin="round"/>
<path d="M76.3369 105.002C76.5974 105.869 76.8052 106.682 76.7932 107.591C76.7885 107.939 76.7831 108.29 76.7982 108.638C76.8303 109.376 76.9764 110.159 77.2023 110.862C77.6404 112.226 78.1845 113.473 79.1653 114.537C80.1138 115.567 81.4206 116.15 82.8219 116.15C83.4098 116.15 83.8348 115.918 84.3001 115.581C84.5176 115.423 84.9414 115.199 84.9735 114.911" stroke="black" stroke-linecap="round" stroke-linejoin="round"/>
<path d="M76.1248 104.789C76.4345 104.756 76.8462 104.654 77.1602 104.736C77.3572 104.787 77.3066 105.071 77.3066 105.22C77.3066 105.788 77.3403 106.327 77.4262 106.889C77.5482 107.688 77.5188 108.492 77.5188 109.298C77.5188 109.549 77.6187 110.05 77.2561 109.985C76.8523 109.912 76.4444 109.879 76.0356 109.852C75.7786 109.835 75.7886 109.648 75.7914 109.419C75.7995 108.778 75.7612 108.13 75.8217 107.49C75.9122 106.534 75.943 105.574 75.943 104.614C75.943 103.696 76.0795 106.449 76.0625 107.367C76.049 108.095 75.8747 108.811 75.7931 109.532C75.7004 110.351 75.4605 111.153 75.0035 111.848C74.188 113.09 73.4402 114.355 71.9934 114.928C71.4224 115.154 70.8034 115.111 70.2088 115.221C70.1022 115.24 69.0987 115.465 69.0337 115.335" stroke="black" stroke-linecap="round" stroke-linejoin="round"/>
<path d="M75.8823 104.335C76.0714 104.335 76.9316 104.267 77.1551 104.47C77.6033 104.875 77.4374 105.782 77.4884 106.305C77.5404 106.838 77.536 107.385 77.5474 107.921C77.5601 108.518 77.6569 109.053 77.7544 109.638C77.9146 110.599 77.8987 111.809 78.4127 112.662C79.2387 114.032 80.5336 115.275 82.2343 115.275C82.8392 115.275 83.3662 115.17 83.9532 115.047C84.1454 115.007 84.3828 114.938 84.5559 114.844C84.6859 114.773 84.8523 114.876 84.6704 114.85" stroke="black" stroke-linecap="round" stroke-linejoin="round"/>
<path d="M70.0015 92.7887C69.9147 93.9563 69.5043 95.5791 70.0548 96.68C70.3071 97.1848 69.5638 97.476 71.1309 98.3958C72.6979 99.3156 72.072 98.9819 73.6309 99.8958C74.1116 100.178 75.1309 101.396 76.6309 102.396C77.6309 102.396 79.2354 100.289 79.6309 99.8958C80.7221 98.8121 81.2588 98.1487 82.6309 97.3958C83.2535 97.0541 82.7062 96.6595 82.6309 95.8958C82.5463 95.0381 82.5689 94.2639 82.6309 93.3958" stroke="black" stroke-linecap="round" stroke-linejoin="round"/>
<path d="M83.7827 100.638C86.3436 98.8407 88.7251 96.7933 91.166 94.8393C91.9476 94.2135 92.8411 93.6169 93.5494 92.9086" stroke="black" stroke-linecap="round" stroke-linejoin="round"/>
<path d="M85.6401 102.975C87.6116 102.941 89.5301 102.475 91.4722 102.173C92.1286 102.07 92.9435 102.079 93.5493 101.776" stroke="black" stroke-linecap="round" stroke-linejoin="round"/>
<path d="M85.8198 105.731C87.4626 107.336 92.8568 111.635 91.0926 110.165" stroke="black" stroke-linecap="round" stroke-linejoin="round"/>
<path d="M71.0802 100.998C67.7338 99.0056 64.4474 96.8873 61.0605 94.9657C61.0002 94.9315 60.4619 94.548 60.5346 94.766" stroke="black" stroke-linecap="round" stroke-linejoin="round"/>
<path d="M71.4398 103.634C69.226 103.258 66.9926 102.844 64.8454 102.169C64.7065 102.126 64.6353 102.076 64.4893 102.076" stroke="black" stroke-linecap="round" stroke-linejoin="round"/>
<path d="M71.4995 105.731C69.5985 107.438 63.761 112.391 65.5676 110.584" stroke="black" stroke-linecap="round" stroke-linejoin="round"/>
<path d="M70.473 28.5398C71.7833 25.4107 72.9864 22.2357 74.3739 19.1406C74.4766 18.9114 75.0688 17.8686 75.2225 18.0138C75.8371 18.5942 76.1051 19.2934 76.549 20.0035C78.0126 22.3453 79.2826 24.794 80.6852 27.1706C81.0749 27.8308 81.2651 28.6589 81.762 29.2387C82.1825 29.7293 84.5629 27.2829 84.8072 27.0422C87.0904 24.7928 89.5012 22.698 92.4164 21.4226C93.2083 21.0762 93.3221 30.3854 93.3221 31.7917C93.3221 32.6866 92.961 34.5068 94.3348 34.2592C97.8592 33.6242 101.028 31.5053 104.39 30.3655C104.495 30.33 109.476 28.7266 109.796 29.3671C110.091 29.9574 109.253 31.3149 109.026 31.7846C107.972 33.9648 106.886 36.1152 105.581 38.1601C104.391 40.0252 104.671 40.0593 106.865 39.9573C111.488 39.7422 116.494 39.3329 121.092 39.9359C122.795 40.1592 121.516 41.2517 120.992 42.2607C120.216 43.7562 119.486 45.2347 118.874 46.8034C118.597 47.5145 118.057 47.8736 119.095 47.9159C120.896 47.9894 122.686 47.9007 124.487 48.0514C124.999 48.0944 127.967 48.1631 128.238 48.7717C128.855 50.16 127.873 52.1544 127.596 53.5427C126.946 56.7909 126.275 60.3915 124.387 63.1701C123.831 63.9879 122.154 65.621 122.347 66.7287C122.484 67.5159 124.173 67.9721 124.743 68.2049C127.519 69.3385 130.215 70.7335 132.688 72.441C133.501 73.0026 134.387 73.6008 134.849 74.4306C135.975 76.4591 128.052 76.1671 127.353 76.242C127.01 76.2788 123.674 76.5927 123.674 77.0622C123.674 77.5243 124.417 78.1309 124.651 78.4813C127.857 83.2916 132.72 87.2189 135.02 92.623C136.065 95.0801 131.623 93.4368 130.605 93.0794C130.046 92.8828 123.088 90.3882 123.288 91.1396C124.818 96.8759 126.4 102.632 127.817 108.405C128.256 110.195 127.915 111.798 128.138 113.518C128.253 114.403 128.369 114.395 127.546 113.889C125.775 112.799 123.885 112.089 121.948 111.364C120.288 110.744 118.092 110.247 116.742 109.025C116.4 108.716 116.556 109.709 116.563 109.881C116.673 112.57 117.003 115.244 117.227 117.925C117.401 120.013 118.704 123.728 117.776 125.77C117.7 125.937 117.647 126.734 117.633 126.74C116.31 127.328 113.125 125.67 112.021 125.043C110.804 124.351 109.652 123.48 108.669 122.482C108.565 122.377 107.724 121.455 107.728 121.47C108.026 122.739 108.415 123.769 108.056 125.1C107.311 127.859 106.572 130.639 105.802 133.401C105.437 134.712 104.762 136.163 104.625 137.53C104.483 138.957 103.971 137.94 103.135 137.052C101.363 135.171 99.6799 133.051 98.5209 130.733C98.4225 130.537 97.6275 129.237 97.5011 129.4C97.3328 129.616 97.3483 130.164 97.3015 130.42C97.081 131.62 96.7172 132.766 96.3031 133.914C95.407 136.398 94.0384 138.642 93.3292 141.195C93.2986 141.305 92.6688 142.985 92.395 142.7C91.2008 141.458 90.6382 139.451 89.4997 138.093C88.1417 136.474 86.9329 134.69 85.556 133.101C85.1689 132.654 84.968 132.829 84.7216 133.286C83.8988 134.815 82.4925 136.087 81.3912 137.408C79.9953 139.084 78.7701 141.285 78.0751 143.37C77.8699 143.986 76.6621 145.332 76.278 144.354C75.5567 142.519 74.563 140.732 73.6821 138.97C73.0084 137.623 72.1209 136.449 71.3287 135.176C71.1443 134.88 70.8799 134.166 70.53 134.007C69.9816 133.757 67.2492 138.114 66.7931 138.578C65.1619 140.238 63.1703 141.673 61.3518 143.128C60.1 144.129 60.2837 141.495 60.0753 140.575C59.2628 136.986 58.4252 133.413 57.3939 129.878C57.1443 129.022 57.1331 127.537 56.2243 128.565C53.387 131.778 49.5002 132.426 45.8053 134.214C44.9701 134.618 43.8829 135.792 44.3077 134.221C45.2091 130.886 45.2796 127.317 46.3116 124.03C46.629 123.019 46.0021 123.292 45.2277 123.531C42.4409 124.388 39.6666 125.203 36.8553 125.97C36.1994 126.148 34.8646 126.763 34.4021 126.069C33.9215 125.348 33.0253 125.489 33.1327 124.415C33.4556 121.186 34.8667 117.193 36.5487 114.459C36.7967 114.056 34.8331 113.957 34.559 113.932C31.9349 113.691 28.2894 114.15 25.9014 113.019C25.4212 112.791 25.5774 112.234 24.9458 112.006C22.5118 111.13 25.8538 108.524 26.7715 107.485C28.2807 105.776 29.7587 104.05 31.4069 102.471C31.8004 102.095 33.1212 101.276 33.2397 100.624C33.4442 99.4997 30.0095 98.7055 29.4386 98.5135C28.2591 98.1168 15.3637 96.1156 18.9554 93.55C21.6747 91.6077 25.0598 91.1222 27.8983 89.3853C28.6072 88.9514 28.013 88.6771 27.4418 88.4867C26.6529 88.2237 26.0862 87.8874 25.4022 87.4027C23.5629 86.0994 21.5525 85.063 19.7114 83.7657C18.2562 82.7404 17.1146 81.6925 18.9483 80.5922C21.6227 78.9876 24.5359 78.4183 27.4846 77.5471C28.4073 77.2745 30.166 76.8515 30.166 75.7214C30.166 74.134 28.8388 72.6953 27.8555 71.4854C26.0777 69.2978 23.9355 67.4532 22.0505 65.3666C21.7337 65.016 20.3263 63.7024 20.5671 63.0703C20.7135 62.6861 22.0852 62.3859 22.3999 62.3072C23.2662 62.0906 24.2254 62.0071 25.117 62.0719C25.6965 62.1139 26.7055 62.5666 27.2564 62.3001C27.5682 62.1492 26.5969 61.5353 26.4862 61.373C25.0164 59.2173 23.5861 57.1119 22.785 54.6195C22.7155 54.4033 22.3691 53.8058 22.4926 53.5712C22.6759 53.2229 23.2326 53.1233 23.5552 53.0363C25.5231 52.5057 27.4667 51.8984 29.4315 51.3604C31.068 50.9123 30.8521 51.3239 30.3372 49.82C30.1605 49.304 28.3193 43.7254 29.0108 43.687C29.5841 43.6551 30.1729 43.8469 30.708 44.0364C33.6165 45.0665 33.1813 44.4125 36.1309 45.3958C37.6033 45.8866 38.1733 44.8546 38.1309 43.687C38.0383 41.1404 38.6112 40.739 37.7111 38.3955C37.2924 37.3052 36.9124 36.3954 36.9124 35.2434C36.9124 35.2206 36.912 35.0714 36.9694 35.1721C37.4458 36.0056 38.444 36.6784 39.1945 37.233C41.2401 38.745 43.4095 40.2119 45.627 41.462C46.6055 42.0136 46.7687 41.9084 47.0676 40.9913C47.3832 40.0227 47.8646 39.2534 47.9519 38.1958C48.0908 36.5118 47.6224 34.8483 47.524 33.1753C47.4085 31.2126 47.3467 25.3773 47.8235 27.2847C47.855 27.4106 47.8073 27.3437 47.9804 27.3346C49.173 27.2718 50.9826 29.2997 51.8028 29.8805C54.0534 31.4742 56.4411 32.7347 58.8344 34.0809C59.6113 34.5179 59.5484 33.697 59.6189 33.0112C60.0084 29.223 61.5976 25.0082 60.9026 21.2087C60.6766 19.9733 63.9371 22.709 64.3542 23.0272C66.1108 24.3673 67.0362 26.1597 68.5332 27.6983C69.1341 28.3159 70.3245 28.9931 70.6013 29.8235" stroke="black" stroke-width="2" stroke-linecap="round" stroke-linejoin="round"/>
</svg>
