<svg width="130" height="110" viewBox="0 0 196 213" fill="none" xmlns="http://www.w3.org/2000/svg">
<path d="M119 93.5C145.623 91.4728 161.885 78.5169 177.5 59C177.5 59 177.763 87.7812 172.5 102C164.004 124.955 119 126 119 126C119 126 155.874 122.864 166 142.5C172.645 155.384 172.5 186.5 172.5 186.5C154.934 160.032 143.311 153.726 119 156" stroke="black" stroke-width="3"/>
<path d="M108.5 79.5L87 49" stroke="black" stroke-width="3"/>
<path d="M114 79.5L132.5 49.5" stroke="black" stroke-width="3"/>
<path d="M104.5 94C80.7607 92.0366 55.4065 82.9205 42.5001 60.5C42.5001 60.5 42.0638 87.9244 47.0002 103.5C54.264 126.419 104.5 125.5 104.5 125.5C104.5 125.5 61.4348 122.677 52.5 146C47.8199 158.217 42.5 182 42.5 182C63.7253 159.951 80.857 154.256 104.5 155.5" stroke="black" stroke-width="3"/>
</svg>