<svg width="100" height="100" viewBox="0 0 120 129" fill="none" xmlns="http://www.w3.org/2000/svg">
<path d="M95.1309 69.3958C95.1309 92.5149 78.8269 110.896 59.1309 110.896C39.4348 110.896 23.1309 92.5149 23.1309 69.3958C23.1309 46.2766 39.4348 27.8958 59.1309 27.8958C78.8269 27.8958 95.1309 46.2766 95.1309 69.3958Z" stroke="black" stroke-width="3"/>
<path d="M25.9704 51.101C7.9707 48.601 14.9708 34.101 14.9708 34.101C19.4708 27.6009 32.4701 26.6009 35.4704 39.101" stroke="black" stroke-width="1.15"/>
<path d="M81.4814 38.499C87.4393 21.3309 100.298 31.0212 100.298 31.0212C105.797 36.701 104.246 49.6461 91.4012 50.1543" stroke="black" stroke-width="1.15"/>
<path d="M37.959 46.8645C40.385 46.518 42.8203 46.4003 45.2608 46.232C46.7505 46.1292 48.5349 45.937 49.9781 46.3946C51.6174 46.9144 52.7125 47.5277 53.5748 49.0424C54.641 50.9155 55.3258 52.5935 55.6081 54.7357C56.1952 59.1911 56.2139 63.5804 55.9515 68.0742C55.8458 69.8834 55.7988 71.9093 55.9515 73.7222C56.0011 74.3115 55.8521 76.0848 55.8521 75.4935" stroke="black" stroke-linecap="round" stroke-linejoin="round"/>
<path d="M79.4387 45.5633C77.0062 45.0843 74.6442 45.6446 72.1911 45.6446C70.4006 45.6446 68.7149 46.001 67.0129 46.5393C64.0908 47.4633 63.4497 50.295 63.3394 53.0503C63.2457 55.3941 63.0175 57.8444 63.353 60.1669C63.6852 62.4668 64.0401 64.7152 64.1482 67.0395C64.2436 69.0893 64.2085 71.112 64.3742 73.162C64.4011 73.4948 64.3666 75.3609 64.2296 75.0868" stroke="black" stroke-linecap="round" stroke-linejoin="round"/>
<path d="M42.5952 47.1898C41.4891 48.7809 41.0174 50.0079 40.9731 51.8935C40.9454 53.0704 40.9639 54.2613 41.2623 55.4089C41.7726 57.3718 43.221 59.8498 44.9448 60.953C47.9989 62.9076 51.9221 64.6396 55.283 62.3989" stroke="black" stroke-linecap="round" stroke-linejoin="round"/>
<path d="M74.965 45.9698C76.5753 48.5176 77.3019 51.4213 76.8357 54.4284C76.4636 56.8281 75.7121 59.3599 73.8671 61.0479C72.236 62.5402 70.1603 63.5747 67.8846 63.3614C66.7882 63.2586 64.3033 62.7097 63.7412 61.5856" stroke="black" stroke-linecap="round" stroke-linejoin="round"/>
<path d="M41.9826 47.8207C42.2361 47.5188 42.4556 47.2404 42.6515 46.9088C42.7289 46.7779 42.8167 46.657 42.9275 46.5518C43.2486 46.2467 42.8733 46.9932 42.8045 47.0932C42.6933 47.255 42.4724 47.3819 42.3321 47.5222C42.1758 47.6785 42.0038 47.8385 41.8356 47.9827C41.7102 48.0901 41.4108 48.4798 41.4846 48.3322C41.5777 48.146 41.6252 47.9834 41.7546 47.8057C41.8885 47.6219 42.0714 47.3698 42.1026 47.1517C42.1086 47.1092 42.0196 47.4035 41.9766 47.4757C41.6679 47.9938 41.3765 48.5328 41.1261 49.0836C40.8385 49.7165 40.8996 50.4702 40.8996 51.1445C40.8996 51.6181 40.5997 52.2521 40.9566 52.6804" stroke="black" stroke-linecap="round" stroke-linejoin="round"/>
<path d="M47.436 46.7678C45.8239 47.7147 45.1541 49.6033 45.1067 51.4146C45.0653 52.9958 45.7858 54.4815 47.0236 55.4733C48.577 56.7181 50.8125 57.1136 52.7488 56.7513C53.7595 56.5621 54.4128 55.8999 54.8876 55.0294" stroke="black" stroke-linecap="round" stroke-linejoin="round"/>
<path d="M70.8976 46.3088C71.9338 47.3152 72.9707 48.2952 73.2885 49.7496C73.4639 50.5521 73.5823 51.4026 73.5105 52.2245C73.3509 54.0523 71.8036 55.2508 70.2872 56.0388C68.8763 56.772 67.0804 57.5187 65.5144 56.8308C64.9443 56.5803 64.3841 56.2402 63.902 55.8453C63.8247 55.782 63.5127 55.5853 63.554 55.4613" stroke="black" stroke-linecap="round" stroke-linejoin="round"/>
<path d="M46.2482 47.0917C45.6747 47.5218 45.2061 47.9296 44.8773 48.5796C44.4838 49.3573 44.2271 50.2159 44.0073 51.056C43.8896 51.5058 43.795 51.9585 43.7163 52.4164C43.7049 52.4832 43.6527 52.6495 43.7268 52.4974C43.9681 52.0022 44.0353 51.3923 44.2293 50.8715C44.5824 49.9238 44.9815 48.9908 45.3782 48.0606C45.4537 47.8838 45.8477 47.233 45.7697 47.0302C45.7261 46.9167 45.2696 47.4423 45.2642 47.4487C44.7115 48.1002 44.2026 48.8018 43.8183 49.5666C43.4752 50.2494 43.2055 50.9746 42.9754 51.7024C42.896 51.9536 42.6273 52.678 42.7894 52.4704C42.8806 52.3535 42.9319 52.1854 42.9844 52.0504C43.2187 51.4475 43.4596 50.8473 43.6983 50.246C43.9585 49.5906 44.2412 48.9494 44.5233 48.3036C44.628 48.0639 44.862 47.6328 44.7768 47.3557C44.7269 47.1935 44.5042 47.3296 44.4378 47.3842C43.9065 47.8206 43.5384 48.4996 43.2334 49.1016C42.7459 50.0635 41.5511 53.0648 42.0754 52.1224C42.536 51.2946 42.8688 50.384 43.2349 49.5126C43.4978 48.8867 43.7399 48.2548 43.9713 47.6167C43.9819 47.5874 44.2602 46.9852 44.0793 46.9852C43.7997 46.9852 43.4867 47.4746 43.3413 47.6647C43.0162 48.0897 42.7454 48.5689 42.4999 49.0431C42.2005 49.6213 41.9418 50.2395 41.7604 50.8655C41.6859 51.1227 41.724 51.234 41.8939 50.972C42.3408 50.2828 42.5804 49.4305 42.8344 48.6576C42.9616 48.2705 43.092 47.8842 43.2034 47.4922C43.2915 47.1818 43.1546 47.4642 43.1044 47.5777C42.7245 48.4361 42.4487 49.3368 42.1039 50.2085C41.9841 50.5114 41.6491 51.1036 41.8834 50.4065C42.21 49.4351 42.7941 48.5037 43.4343 47.7097C43.917 47.111 44.744 46.1643 45.6002 46.2757C45.7248 46.292 45.9354 46.3636 46.0112 46.4827C46.0377 46.5244 45.3372 46.8388 45.2987 46.8592C45.2239 46.8989 44.6784 47.2426 44.8563 47.1547C45.2287 46.9707 45.5934 46.769 45.9662 46.5847C46.3896 46.3754 45.0868 47.1859 45.4742 47.1007C45.7814 47.0331 46.0383 46.8342 46.3172 46.6987C46.4498 46.6343 46.2055 46.892 46.1792 46.9657C46.1501 47.0472 46.6434 46.4582 46.5992 46.7677" stroke="black" stroke-linecap="round" stroke-linejoin="round"/>
<path d="M44.4392 51.8434C44.6759 53.2414 44.9416 54.5999 45.3676 55.9547C45.7586 57.1983 45.5918 56.5812 45.9001 57.4696C45.9879 57.7228 45.9133 57.5726 45.8521 57.4546C45.4508 56.6816 45.1889 55.8371 44.9671 54.9978C44.7482 54.169 44.5529 53.335 44.3462 52.5034C44.332 52.4465 44.268 52.1898 44.2262 52.1134C44.2083 52.0807 44.186 52.1811 44.1872 52.2184C44.2001 52.6459 44.2807 53.0757 44.3342 53.4993C44.4542 54.4511 44.6125 55.3995 44.8006 56.3402C44.8679 56.6766 44.9435 57.0112 45.0151 57.3466C45.023 57.3836 45.1169 57.6769 45.0811 57.7216C45.0202 57.7977 44.9927 57.5478 44.9521 57.4591C44.7088 56.9273 44.4956 56.3856 44.2952 55.8362C44.011 55.0573 43.7258 54.2795 43.3982 53.5173C43.2294 53.1246 42.8751 52.3358 43.0292 53.4063C43.2355 54.8395 43.5393 56.4779 44.2232 57.7786C44.6278 58.5482 43.8908 56.0714 43.6952 55.2242C43.4508 54.1658 43.1875 53.0822 43.2302 51.9874C43.2566 51.3119 43.369 53.3333 43.4792 54.0003C43.5485 54.4197 43.6224 54.8381 43.6742 55.2602C43.682 55.3236 43.7973 55.9308 43.7117 55.9862C43.633 56.0371 43.6252 55.8189 43.5962 55.7297C43.5048 55.4486 43.4057 55.0937 43.3307 54.8163C43.1322 54.0818 42.9755 53.3406 42.8192 52.5964C42.8113 52.5584 42.6674 51.5469 42.4833 51.5674C42.1276 51.6072 42.2524 53.3571 42.2613 53.5383C42.2978 54.2804 42.41 55.019 42.5583 55.7462C42.5956 55.9295 42.7417 56.4711 42.6873 56.2922C42.3571 55.2074 42.1108 54.0924 41.8188 52.9969C41.7762 52.8372 41.6073 52.1856 41.5323 51.9619C41.4737 51.7871 41.4342 51.7043 41.4438 51.9604C41.4778 52.8644 41.6731 53.7775 41.8443 54.6633C41.9119 55.0129 42.1158 56.0615 42.0573 55.7102C41.93 54.9464 41.7487 54.1936 41.6193 53.4303C41.5933 53.2767 41.4837 52.5591 41.4828 52.5679C41.4199 53.1719 41.5932 53.8127 41.7273 54.3963C41.9693 55.4494 42.3747 56.4537 42.9812 57.3511C43.1082 57.539 43.2489 57.715 43.3742 57.9046C43.6864 58.3769 43.2167 57.8053 43.1132 57.6706C42.9465 57.4534 42.436 56.8097 42.6063 57.0241C42.8495 57.3304 43.1312 57.6235 43.4042 57.9031C43.9089 58.4199 43.5705 57.7335 43.4387 57.4681C43.2766 57.1417 42.7745 56.1721 42.9677 56.4812C43.1996 56.8522 43.6322 57.489 43.5752 57.9451" stroke="black" stroke-linecap="round" stroke-linejoin="round"/>
<path d="M45.3033 54.3003C45.2551 54.9597 45.3302 55.4425 45.8042 55.9232C46.2485 56.3737 46.7759 56.7654 47.2802 57.1456C48.0649 57.7374 48.9097 58.2594 49.782 58.7116C50.08 58.866 51.0115 59.1677 50.676 59.175C50.3399 59.1823 49.8901 58.685 49.674 58.5121C48.5207 57.5894 47.3314 56.6245 46.3322 55.5332C46.1774 55.3641 46.0158 55.2019 45.8537 55.0398C45.7107 54.8967 46.152 55.3135 46.2902 55.4612C47.119 56.3472 47.997 57.1661 48.9496 57.9181C49.2417 58.1487 49.5607 58.3357 49.8675 58.5451C50.1996 58.7717 49.6584 58.5847 49.56 58.5451C48.4598 58.1012 47.4759 57.3964 46.4042 56.8892C46.2133 56.7988 45.7673 56.4772 45.8042 56.6852C45.8532 56.9607 46.4329 57.359 46.6052 57.5251C47.6343 58.5177 48.6788 59.5459 49.581 60.6569C49.6272 60.7138 49.7595 60.8031 49.698 60.8429C49.6281 60.8882 49.5476 60.7701 49.479 60.7229C49.2966 60.5973 49.1234 60.4589 48.9466 60.3255C48.3003 59.8378 47.6673 59.3312 46.9697 58.917C46.8259 58.8317 45.8209 58.1591 45.6393 58.4521C45.5467 58.6013 45.7959 58.899 45.8552 58.986C46.2577 59.576 46.712 60.1322 47.1572 60.6899C47.4042 60.9994 47.6687 61.2999 47.9041 61.6184C48.0175 61.7718 47.6138 61.37 47.4812 61.2329C46.6192 60.3416 45.7936 59.2026 44.6763 58.6156C44.447 58.4951 44.2913 58.4582 44.5053 58.7341C44.7962 59.1089 45.1455 59.4402 45.4773 59.778C45.5129 59.8143 46.2924 60.6448 46.1852 60.7019C46.047 60.7757 45.9163 60.5398 45.7922 60.444C45.3595 60.1097 44.9492 59.7482 44.5278 59.4C44.2675 59.1849 43.9357 58.85 43.6054 58.7221C43.5109 58.6855 43.7173 59.0007 43.7194 59.004C43.9627 59.3939 44.2571 59.7438 44.5473 60.099C44.5945 60.1568 45.11 60.7784 44.8158 60.4095C44.423 59.9168 44.0574 59.3932 43.6144 58.944C43.4346 58.7618 43.3929 58.773 43.5214 58.5931" stroke="black" stroke-linecap="round" stroke-linejoin="round"/>
<path d="M45.0334 58.4581C45.3011 58.37 45.9842 58.2498 46.2138 58.0261C46.3144 57.9281 45.9318 58.0093 45.7923 58.0261C45.503 58.0611 45.186 58.0896 44.9164 58.2091C44.8223 58.2508 45.3063 58.1087 45.3844 58.0741C45.6319 57.9644 45.883 57.7699 46.1523 57.7201C46.1758 57.7158 45.6778 58.039 45.6513 58.1071C45.593 58.257 46.7061 57.975 46.7883 57.9451" stroke="black" stroke-linecap="round" stroke-linejoin="round"/>
<path d="M46.1133 60.645C46.5486 61.6011 47.1516 62.2337 48.1457 62.6204C48.5686 62.785 49.0421 62.8873 49.4941 62.9339C49.7444 62.9597 49.4526 62.7025 49.3891 62.6249C48.7117 61.7981 47.6268 61.3981 46.8482 60.687C46.7902 60.634 46.4737 60.3565 46.7462 60.5415C47.0224 60.7291 47.3019 60.9202 47.5562 61.137C48.1867 61.6745 48.7417 62.2994 49.3141 62.8964C49.5251 63.1164 49.5786 63.1117 49.4551 62.8349C49.2367 62.3454 48.904 61.8863 48.6136 61.4385C48.2858 60.9328 47.9539 60.4078 47.5292 59.9761C47.4091 59.854 46.9938 59.3651 46.7732 59.4271C46.5899 59.4787 47.1615 60.0398 47.1722 60.0511C47.8663 60.782 48.6582 61.5883 49.5706 62.0445C50.0904 62.3044 49.3251 61.5704 49.2646 61.5135C48.6347 60.9203 47.9879 60.2598 47.1542 59.9626C46.7909 59.833 45.9352 59.7338 46.2888 60.3661C46.5481 60.8299 47.2667 61.4206 47.8352 61.389C48.4675 61.3539 47.6264 60.576 47.4392 60.4815C46.982 60.2508 46.2661 60.4984 46.6143 61.089C47.0503 61.8288 48.0491 61.4774 48.6241 61.131C49.4692 60.6219 49.752 59.6398 49.4641 58.7131C49.3537 58.3578 49.0665 57.9817 48.8701 58.5242C48.652 59.1265 48.824 59.8268 48.9781 60.4231C49.0508 60.7042 49.5542 62.2981 50.1061 61.824C50.4151 61.5585 50.2355 60.8615 50.1376 60.5445C49.9981 60.0929 49.7044 59.6908 49.3951 59.3401C49.2962 59.228 49.0578 58.924 48.8746 58.9336C48.653 58.9453 48.9551 59.6842 48.9781 59.7421C49.1281 60.1199 50.2683 62.4571 50.916 61.932C51.4026 61.5375 51.1514 60.4618 51.027 59.9641C50.9722 59.7447 50.8703 59.2877 50.628 59.1751C50.3728 59.0565 50.3102 59.6934 50.2981 59.7871C50.2163 60.42 50.3789 61.0847 50.661 61.653C50.7575 61.8473 50.9334 62.1155 51.18 62.127C51.5644 62.1448 51.5907 61.6879 51.5895 61.4115C51.5866 60.7808 51.2762 59.5216 50.409 59.5966C49.4753 59.6774 49.8575 61.3862 50.0956 61.89C50.3236 62.3725 51.0519 62.9776 51.5145 62.3924C51.9253 61.8727 51.601 60.9154 50.8935 60.9015C50.139 60.8867 50.0617 61.6434 50.427 62.1615C50.7432 62.6097 51.3945 62.8375 51.7965 62.3789C51.9337 62.2224 51.998 61.9919 51.951 61.788C51.9321 61.7061 51.9016 61.6972 51.918 61.779" stroke="black" stroke-linecap="round" stroke-linejoin="round"/>
<path d="M48.5972 56.8113C49.523 57.3118 50.4564 57.7532 51.5265 57.7532C52.2633 57.7532 53.0397 57.7151 53.7539 57.5372C54.417 57.3721 55.2267 56.5942 55.0228 55.8603C55.0114 55.8194 54.9597 55.6326 55.0498 55.7478C55.1829 55.9179 55.2099 56.1866 55.2343 56.3913C55.2987 56.9303 55.2658 57.4867 55.2658 58.0292C55.2658 58.7824 55.2782 59.5124 55.3723 60.2596C55.4321 60.7341 55.5059 61.5441 55.0018 61.833C54.7162 61.9967 54.3503 62.0174 54.0314 62.049C53.4552 62.106 52.8787 62.1077 52.302 62.1465C51.6705 62.1889 51.0456 62.3145 50.4121 62.319C50.1907 62.3205 49.877 62.3125 49.7626 62.5485C49.6377 62.8061 50.1372 62.6391 50.2381 62.622C51.1752 62.4627 52.1357 62.4954 53.0789 62.394C53.2156 62.3793 53.6421 62.3825 53.6999 62.238" stroke="black" stroke-linecap="round" stroke-linejoin="round"/>
<path d="M52.8086 57.2702C53.2949 56.8832 53.8424 56.554 54.3475 56.2173" stroke="black" stroke-linecap="round" stroke-linejoin="round"/>
<path d="M54.6985 56.7572C54.7051 58.1252 54.7372 59.4926 54.7945 60.8595C54.8053 61.1184 54.7595 61.8606 54.8814 61.6319C54.9457 61.5114 54.7954 61.1391 54.7645 61.023C54.624 60.4947 54.5273 59.9616 54.4555 59.4196C54.3666 58.7489 54.3018 58.0709 54.1795 57.4052C54.1661 57.3326 54.0856 56.8619 54.013 57.1667C53.911 57.5951 54.0863 58.1299 54.1495 58.5571C54.2593 59.2998 54.3501 60.0307 54.3475 60.783C54.3465 61.0757 54.3283 61.3729 54.292 61.6634C54.273 61.8156 54.1942 61.3727 54.1465 61.227C53.941 60.5985 53.7836 59.9628 53.62 59.3221C53.5227 58.941 53.4139 58.5636 53.302 58.1866C53.2705 58.0804 53.2015 57.7628 53.191 57.8731C53.1578 58.2224 53.2884 58.6483 53.3335 58.9951C53.4047 59.5423 53.5009 60.0865 53.578 60.633C53.6301 61.0019 53.7039 61.3806 53.6995 61.7549C53.6985 61.8367 53.502 61.1466 53.4715 61.026C53.3339 60.4813 53.1754 59.9457 52.9781 59.4196C52.8364 59.0419 52.6551 58.3531 52.2926 58.1011C52.1787 58.0219 52.2479 58.3792 52.2671 58.5166C52.3253 58.9338 52.4208 59.3433 52.5251 59.751C52.5654 59.9088 52.9641 61.3224 52.8581 61.3754C52.8558 61.3766 52.5823 60.5927 52.5716 60.561C52.3024 59.7645 52.0962 58.9223 51.7031 58.1746C51.6211 58.0186 51.0855 57.2454 51.1676 57.8701C51.2534 58.5223 51.6008 59.1627 51.8516 59.76C52.0866 60.3199 52.3135 60.8906 52.5056 61.4669C52.5993 61.7482 52.2442 61.0426 52.2296 61.017C51.5535 59.8357 50.865 58.5694 49.8942 57.5987C49.459 57.1634 50.6989 58.533 51.0522 59.0371C51.3377 59.4446 51.6443 59.857 51.9176 60.267" stroke="black" stroke-linecap="round" stroke-linejoin="round"/>
<path d="M63.7163 56.5143C64.1569 57.5308 64.2413 58.5805 64.4333 59.6611C64.541 60.2677 64.4289 60.9241 64.6358 61.5135C64.6481 61.5488 64.8363 62.0677 64.7363 61.875C64.5797 61.5735 64.4483 61.1983 64.3763 60.867C64.1522 59.8363 64.0619 58.7792 63.8453 57.7502C63.7656 57.3717 63.7107 56.9844 63.8783 56.6493" stroke="black" stroke-linecap="round" stroke-linejoin="round"/>
<path d="M64.6611 56.9733C64.8567 58.3159 65.0528 59.6515 65.3586 60.9735C65.4401 61.3258 65.5731 61.758 65.5731 62.1225C65.5731 62.2422 65.5232 62.3558 65.5251 62.481C65.5278 62.6557 65.5255 62.2206 65.5251 62.172C65.5177 61.2351 65.5054 60.2944 65.5386 59.3581C65.5535 58.9375 65.5543 58.527 65.4711 58.1132C65.422 57.869 65.3407 57.6138 65.3361 57.3632C65.3271 56.8704 65.4008 57.4414 65.4591 57.6557C65.8507 59.0969 66.0995 60.5713 66.491 62.013C66.5492 62.2272 66.8745 62.686 66.6485 62.8424C66.4255 62.9968 66.3557 62.3763 66.335 62.289C65.9505 60.6656 66.3877 59.0221 66.2825 57.3917C66.2805 57.3601 66.2687 57.1284 66.314 57.2523C66.438 57.5909 66.4596 57.9711 66.491 58.3262C66.5421 58.9031 66.5783 59.4763 66.677 60.0481C66.8226 60.8913 67.0755 61.7336 67.172 62.583C67.1813 62.6648 67.3755 62.9017 67.4525 62.9444C67.5797 63.0151 67.4433 62.6535 67.442 62.508C67.438 62.081 67.4063 61.6562 67.382 61.23C67.3351 60.4103 67.2151 59.6007 67.172 58.7822C67.1546 58.4522 67.1103 58.134 67.0115 57.8177C66.9582 57.6473 66.875 57.4877 66.875 57.3062C66.875 57.1515 66.9889 57.5942 67.037 57.7412C67.2004 58.2404 67.316 58.763 67.436 59.2741C67.6848 60.3346 67.8167 61.407 68.1004 62.4585C68.1339 62.5825 68.2289 62.8872 68.4019 62.9069C68.5719 62.9264 68.3707 60.7692 68.3584 60.6316C68.2715 59.654 68.2307 58.6572 67.934 57.7142C67.8887 57.5705 67.6443 56.788 67.7795 57.3287C67.9903 58.1723 68.1385 59.0024 68.4619 59.8141C68.8257 60.7271 69.0726 61.7293 69.5419 62.595C69.6349 62.7666 69.7068 62.9414 69.4774 62.7629C69.1065 62.4745 69.0515 62.1119 68.7979 61.743C68.6705 61.5576 68.378 61.7538 68.4034 61.5C68.5048 60.4864 68.48 59.5244 68.4004 58.5077C68.3654 58.0599 68.0457 57.5357 68.1169 57.1083C68.1338 57.0074 68.2832 57.2669 68.2834 57.2673C68.5502 57.7459 68.6886 58.2823 68.8189 58.8107C69.059 59.7843 69.2012 60.8351 69.5989 61.761C69.69 61.9732 69.8095 62.1792 69.9198 62.382C69.9582 62.4525 69.9798 62.5468 69.9798 62.427" stroke="black" stroke-linecap="round" stroke-linejoin="round"/>
<path d="M68.873 57.0812C69.3136 57.9701 69.5876 58.8715 69.758 59.8486C69.8476 60.3623 69.9494 60.8653 70.1 61.365C70.2156 61.7487 70.3222 62.3334 70.6415 62.6249C70.9791 62.9332 70.6934 61.7795 70.6654 61.6605C70.4526 60.7537 70.2755 59.8468 70.028 58.9471C69.8777 58.4009 69.6741 57.8686 69.515 57.3242C69.4703 57.1711 69.405 57.0101 69.3905 56.8503C69.3902 56.8472 69.6486 57.212 69.686 57.2807C70.1897 58.2076 70.4746 59.2727 70.7629 60.2821C70.8857 60.7117 70.9886 61.1438 71.0989 61.5765C71.1559 61.7996 71.2235 62.0506 71.3989 62.211C71.4137 62.2245 71.6343 62.4264 71.6479 62.4029C71.7356 62.2515 71.5951 61.8292 71.5654 61.6905C71.3713 60.783 71.1324 59.9066 70.6999 59.0821C70.4218 58.552 70.2007 57.9774 70.0115 57.4097C69.9508 57.2278 69.9325 57.0324 69.899 56.8443C69.8464 56.5493 69.891 56.5159 70.04 56.8083C70.476 57.6642 70.8769 58.5145 71.1799 59.4271C71.4187 60.1461 71.5468 60.959 71.9239 61.623C72.3778 62.4223 72.3555 60.946 72.3019 60.672C72.1514 59.903 71.7077 59.211 71.3824 58.5062C71.1447 57.9912 70.9213 57.4848 70.8019 56.9312C70.7239 56.5696 70.5359 56.0325 71.0419 56.6223C71.6047 57.2782 71.9469 58.0013 72.1819 58.8271C72.2806 59.1743 72.3462 59.5297 72.4699 59.8696C72.5557 60.1055 72.6989 60.6127 72.9618 60.7305C73.323 60.8924 73.2602 59.8838 73.2348 59.7136C73.1446 59.1082 72.708 58.509 72.4249 57.9752C72.0767 57.3188 71.6246 56.5826 71.5654 55.8243C71.5389 55.4857 72.0299 55.9424 72.1129 56.0193C72.4271 56.3104 72.6691 56.7258 72.8298 57.1172C73.1188 57.8207 73.196 58.6653 73.6578 59.2891C74.007 59.7608 74.3479 59.4742 74.2548 58.9576C74.1468 58.359 73.7944 57.644 73.4628 57.1412C73.1132 56.6111 72.6639 56.1474 72.2164 55.6998C71.6481 55.1316 72.405 55.6445 72.6363 55.8378C73.3221 56.411 73.4883 57.31 73.6188 58.1552C73.6804 58.5546 73.7336 58.9543 73.7853 59.3551C73.8083 59.5338 73.9025 59.8869 73.7853 60.0481C73.7325 60.1206 73.5415 60.2907 73.4898 60.2131" stroke="black" stroke-linecap="round" stroke-linejoin="round"/>
<path d="M72.5444 61.158C72.6961 61.054 73.0149 60.7424 73.0439 60.924C73.0606 61.0282 72.9419 61.1874 72.9014 61.278C72.8845 61.3158 72.7478 61.5422 72.8144 61.5089" stroke="black" stroke-linecap="round" stroke-linejoin="round"/>
<path d="M72.3555 55.0023C72.9851 55.3587 73.5081 55.7026 73.7999 56.3867C73.9176 56.6627 74.0055 56.9525 74.0894 57.2402C74.2604 57.8266 74.3392 58.4926 74.6383 59.0311C74.8704 59.4489 75.0669 58.3966 75.0823 58.3051C75.2279 57.4423 74.9551 56.3647 74.3354 55.7403C73.9607 55.3628 73.7469 55.0627 73.5974 54.5493C73.5846 54.5056 73.3986 54.0182 73.4759 54.1384C73.831 54.6907 74.3597 55.1659 74.7718 55.6788C75.0794 56.0616 75.1624 56.4164 75.2308 56.8952C75.2451 56.9955 75.2853 57.4912 75.4603 57.2642C75.7541 56.883 75.8621 56.2943 75.9283 55.8393C75.995 55.3803 76.0947 54.7096 75.7663 54.3139C75.4632 53.9487 74.8281 53.9132 74.4179 53.7199C74.3722 53.6984 73.6981 53.3235 73.8944 53.2744" stroke="black" stroke-linecap="round" stroke-linejoin="round"/>
<path d="M72.5986 54.4353C73.5197 54.4705 74.9514 54.3211 75.201 55.4672C75.2716 55.7914 75.3038 56.1252 75.4215 56.4377C75.472 56.5719 75.5759 56.7684 75.6195 56.5202C75.7322 55.8777 75.5015 55.0444 75.2985 54.4353" stroke="black" stroke-linecap="round" stroke-linejoin="round"/>
<path d="M73.8408 52.6535C74.5065 52.7053 75.1213 52.7952 75.5507 53.3554C75.7361 53.5972 75.869 53.8912 76.0112 54.1594C76.0994 54.3257 76.3108 54.6978 76.2167 54.2794C76.1445 53.9587 76.0191 53.6638 75.7127 53.5174C75.4245 53.3798 75.1258 53.2654 74.8278 53.1514C74.7036 53.104 74.4688 53.0625 74.3703 52.9639C74.2978 52.8914 74.9435 52.7708 74.9808 52.7615C75.5005 52.6315 75.9185 52.7689 76.3727 53.0284C76.778 53.2601 76.3756 52.7913 76.2497 52.6655C75.8922 52.308 75.3257 52.2245 74.8458 52.184C74.7991 52.18 73.9443 52.1475 74.1018 51.9515C74.4285 51.545 75.3486 51.7349 75.7862 51.8045C76.2661 51.8809 75.6586 51.5828 75.4787 51.5645C75.0328 51.5192 73.7131 51.7628 74.1348 51.611C74.8137 51.3666 75.4275 51.1671 76.1597 51.143C76.7994 51.1221 74.9168 50.8227 74.2818 50.7426C74.1482 50.7257 73.813 50.8205 73.8798 50.7036C73.9019 50.6649 74.0615 50.6001 74.0793 50.5911C74.3839 50.4356 74.6928 50.2891 75.0018 50.1426C75.237 50.0311 75.4715 49.9182 75.7067 49.8066C75.7526 49.7849 75.8903 49.758 75.8432 49.7391C75.6872 49.6767 75.3767 49.8041 75.2267 49.8396C74.8667 49.9249 74.5337 50.0363 74.1963 50.1891C74.0449 50.2576 74.1139 50.2432 74.2188 50.1966" stroke="black" stroke-linecap="round" stroke-linejoin="round"/>
<path d="M74.5425 50.3046C74.7884 50.2779 76.1309 49.9563 76.2254 50.4336C76.2662 50.6394 76.1863 50.9313 76.1759 51.1415C76.1727 51.2064 76.1832 52.1694 76.3244 51.8165" stroke="black" stroke-linecap="round" stroke-linejoin="round"/>
<path d="M73.8947 49.6297C74.5437 49.3363 75.2861 48.93 76.0246 48.9652C76.1736 48.9723 75.7259 48.9231 75.5776 48.9397C74.9696 49.0077 73.2728 49.6967 73.7957 49.3792C74.0828 49.2048 74.36 49.0046 74.6386 48.8167C74.7976 48.7095 74.9547 48.5992 75.1171 48.4972C75.1729 48.4622 75.3349 48.3985 75.2731 48.3757C75.1334 48.3243 74.9137 48.3803 74.7706 48.3997C74.3406 48.4581 73.9154 48.5481 73.4957 48.6577C73.2558 48.7204 73.0526 48.8009 73.4042 48.6547C73.8614 48.4647 74.3411 48.3234 74.8156 48.1837C74.9874 48.1332 75.1603 48.088 75.3331 48.0413C75.3888 48.0262 75.5353 48.0058 75.4906 47.9693C75.2606 47.7811 74.6208 47.9656 74.3822 48.0128C74.0074 48.0868 73.6479 48.2102 73.2767 48.2947C73.2101 48.3099 73.7612 48.0985 73.8827 48.0518C74.323 47.8824 74.7867 47.7105 75.1861 47.4563C75.4418 47.2936 74.521 47.4314 74.4346 47.4443C73.9688 47.5138 73.5079 47.6123 73.0427 47.6858C72.5144 47.7692 72.9173 47.5546 73.1702 47.4398C73.668 47.2139 74.1956 47.056 74.7166 46.8938C75.0438 46.792 74.3812 46.8488 74.2937 46.8548C73.8069 46.8881 73.3244 46.9511 72.8357 46.9673C72.6313 46.9741 72.4278 46.9717 72.2238 46.9568C72.1488 46.9514 71.9502 46.9724 72.0018 46.9178C72.1585 46.7518 72.7249 46.7277 72.9167 46.6853C73.2766 46.6058 73.636 46.524 73.9967 46.4483C74.1168 46.4231 74.475 46.391 74.3552 46.3643C74.1172 46.3115 73.792 46.3992 73.5527 46.4168C73.0497 46.454 72.5514 46.5107 72.0498 46.5608C71.9571 46.5701 71.439 46.6209 71.7948 46.5248C72.2182 46.4106 72.6395 46.2874 73.0697 46.2009C73.377 46.1391 74.3061 46.0022 73.9937 46.0269C73.6759 46.052 73.3573 46.0673 73.0397 46.0944C72.5612 46.1351 71.1539 46.3252 71.5998 46.1469" stroke="black" stroke-linecap="round" stroke-linejoin="round"/>
<path d="M59.4668 88.1924C59.3507 92.0069 59.4498 95.1714 56.3123 97.8488C55.3631 98.6587 54.3332 98.7328 53.1476 98.8732C52.8592 98.9074 51.9436 99.2972 52.0724 98.7819" stroke="black" stroke-linecap="round" stroke-linejoin="round"/>
<path d="M59.3369 88.0016C59.5974 88.8691 59.8052 89.6823 59.7932 90.5909C59.7885 90.9392 59.7831 91.2899 59.7982 91.638C59.8303 92.3757 59.9764 93.1587 60.2023 93.862C60.6404 95.2264 61.1845 96.4725 62.1653 97.5372C63.1138 98.5668 64.4206 99.15 65.8219 99.15C66.4098 99.15 66.8348 98.9183 67.3001 98.581C67.5176 98.4233 67.9414 98.1994 67.9735 97.9109" stroke="black" stroke-linecap="round" stroke-linejoin="round"/>
<path d="M59.1248 87.7894C59.4345 87.7561 59.8462 87.6537 60.1602 87.7355C60.3572 87.7868 60.3066 88.0714 60.3066 88.2204C60.3066 88.7884 60.3403 89.3266 60.4262 89.8888C60.5482 90.6881 60.5188 91.4917 60.5188 92.2979C60.5188 92.5489 60.6187 93.0499 60.2561 92.9848C59.8523 92.9123 59.4444 92.8791 59.0356 92.8518C58.7786 92.8347 58.7886 92.6482 58.7914 92.4191C58.7995 91.7782 58.7612 91.1297 58.8217 90.4898C58.9122 89.5344 58.943 88.5738 58.943 87.6143C58.943 86.6959 59.0795 89.4486 59.0625 90.3669C59.049 91.0947 58.8747 91.8114 58.7931 92.5319C58.7004 93.3512 58.4605 94.1531 58.0035 94.8485C57.188 96.0895 56.4402 97.3554 54.9934 97.9277C54.4224 98.1535 53.8034 98.111 53.2088 98.2206C53.1022 98.2403 52.0987 98.4652 52.0337 98.3351" stroke="black" stroke-linecap="round" stroke-linejoin="round"/>
<path d="M58.8823 87.3349C59.0714 87.3349 59.9316 87.2674 60.1551 87.4696C60.6033 87.8751 60.4374 88.7821 60.4884 89.3047C60.5404 89.8379 60.536 90.3851 60.5474 90.9209C60.5601 91.5183 60.6569 92.0527 60.7544 92.6381C60.9146 93.5988 60.8987 94.8093 61.4127 95.6617C62.2387 97.0318 63.5336 98.2746 65.2343 98.2746C65.8392 98.2746 66.3662 98.1702 66.9532 98.0473C67.1454 98.0071 67.3828 97.9377 67.5559 97.8436C67.6859 97.773 67.8523 97.8763 67.6704 97.8503" stroke="black" stroke-linecap="round" stroke-linejoin="round"/>
<path d="M53.0015 75.7887C52.9147 76.9563 52.5043 78.5791 53.0548 79.68C53.3071 80.1848 52.5638 80.476 54.1309 81.3958C55.6979 82.3156 55.072 81.9819 56.6309 82.8958C57.1116 83.1776 58.1309 84.3958 59.6309 85.3958C60.6309 85.3958 62.2354 83.2885 62.6309 82.8958C63.7221 81.8121 64.2588 81.1487 65.6309 80.3958C66.2535 80.0541 65.7062 79.6595 65.6309 78.8958C65.5463 78.0381 65.5689 77.2639 65.6309 76.3958" stroke="black" stroke-linecap="round" stroke-linejoin="round"/>
<path d="M66.7827 83.638C69.3436 81.8407 71.7251 79.7933 74.166 77.8393C74.9476 77.2135 75.8411 76.6169 76.5494 75.9086" stroke="black" stroke-linecap="round" stroke-linejoin="round"/>
<path d="M68.6401 85.9749C70.6116 85.9406 72.5301 85.4747 74.4722 85.1726C75.1286 85.0705 75.9435 85.0794 76.5493 84.7765" stroke="black" stroke-linecap="round" stroke-linejoin="round"/>
<path d="M68.8198 88.7311C70.4626 90.3357 75.8568 94.6352 74.0926 93.165" stroke="black" stroke-linecap="round" stroke-linejoin="round"/>
<path d="M54.0802 83.9975C50.7338 82.0056 47.4474 79.8873 44.0605 77.9657C44.0002 77.9315 43.4619 77.548 43.5346 77.766" stroke="black" stroke-linecap="round" stroke-linejoin="round"/>
<path d="M54.4398 86.6339C52.226 86.2582 49.9926 85.8441 47.8454 85.1693C47.7065 85.1256 47.6353 85.076 47.4893 85.076" stroke="black" stroke-linecap="round" stroke-linejoin="round"/>
<path d="M54.4995 88.7311C52.5985 90.4379 46.761 95.391 48.5676 93.5844" stroke="black" stroke-linecap="round" stroke-linejoin="round"/>
<path d="M53.473 11.5398C54.7833 8.41067 55.9864 5.2357 57.3739 2.14057C57.4766 1.91145 58.0688 0.868623 58.2225 1.0138C58.8371 1.59421 59.1051 2.29339 59.549 3.00347C61.0126 5.34532 62.2826 7.79398 63.6852 10.1706C64.0749 10.8308 64.2651 11.6589 64.762 12.2387C65.1825 12.7293 67.5629 10.2829 67.8072 10.0422C70.0904 7.7928 72.5012 5.69803 75.4164 4.42263C76.2083 4.07619 76.3221 13.3854 76.3221 14.7917C76.3221 15.6866 75.961 17.5068 77.3348 17.2592C80.8592 16.6242 84.0277 14.5053 87.3901 13.3655C87.4947 13.33 92.4755 11.7266 92.7957 12.3671C93.0909 12.9574 92.2526 14.3149 92.0256 14.7846C90.9718 16.9648 89.8856 19.1152 88.5811 21.1601C87.3913 23.0252 87.6706 23.0593 89.8647 22.9573C94.4877 22.7422 99.4941 22.3329 104.092 22.9359C105.795 23.1592 104.516 24.2517 103.992 25.2607C103.216 26.7562 102.486 28.2347 101.874 29.8034C101.597 30.5145 101.057 30.8736 102.095 30.9159C103.896 30.9894 105.686 30.9007 107.487 31.0514C107.999 31.0944 110.967 31.1631 111.238 31.7717C111.855 33.16 110.873 35.1544 110.596 36.5427C109.946 39.7909 109.275 43.3915 107.387 46.1701C106.831 46.9879 105.154 48.621 105.347 49.7287C105.484 50.5159 107.173 50.9721 107.743 51.2049C110.519 52.3385 113.215 53.7335 115.688 55.441C116.501 56.0026 117.387 56.6008 117.849 57.4306C118.975 59.4591 111.052 59.1671 110.353 59.242C110.01 59.2788 106.674 59.5927 106.674 60.0622C106.674 60.5243 107.417 61.1309 107.651 61.4813C110.857 66.2916 115.72 70.2189 118.02 75.623C119.065 78.0801 114.623 76.4368 113.605 76.0794C113.046 75.8828 106.088 73.3882 106.288 74.1396C107.818 79.8759 109.4 85.6316 110.817 91.4048C111.256 93.1951 110.915 94.7981 111.138 96.5181C111.253 97.403 111.369 97.3953 110.546 96.8889C108.775 95.7991 106.885 95.0887 104.948 94.3644C103.288 93.7441 101.092 93.2473 99.7418 92.0253C99.4002 91.7163 99.5565 92.7094 99.5635 92.8811C99.6732 95.5702 100.003 98.2443 100.227 100.925C100.401 103.013 101.704 106.728 100.776 108.77C100.7 108.937 100.647 109.734 100.633 109.74C99.3099 110.328 96.1249 108.67 95.0208 108.043C93.8038 107.351 92.6518 106.48 91.669 105.482C91.5653 105.377 90.7243 104.455 90.7276 104.47C91.0262 105.739 91.4149 106.769 91.0557 108.1C90.3106 110.859 89.5718 113.639 88.8021 116.401C88.4366 117.712 87.7621 119.163 87.6255 120.53C87.4827 121.957 86.9714 120.94 86.135 120.052C84.3635 118.171 82.6799 116.051 81.5209 113.733C81.4225 113.537 80.6275 112.237 80.5011 112.4C80.3328 112.616 80.3483 113.164 80.3015 113.42C80.081 114.62 79.7172 115.766 79.3031 116.914C78.407 119.398 77.0384 121.642 76.3292 124.195C76.2986 124.305 75.6688 125.985 75.395 125.7C74.2008 124.458 73.6382 122.451 72.4997 121.093C71.1417 119.474 69.9329 117.69 68.556 116.101C68.1689 115.654 67.968 115.829 67.7216 116.286C66.8988 117.815 65.4925 119.087 64.3912 120.408C62.9953 122.084 61.7701 124.285 61.0751 126.37C60.8699 126.986 59.6621 128.332 59.278 127.354C58.5567 125.519 57.563 123.732 56.6821 121.97C56.0084 120.623 55.1209 119.449 54.3287 118.176C54.1443 117.88 53.8799 117.166 53.53 117.007C52.9816 116.757 50.2492 121.114 49.7931 121.578C48.1619 123.238 46.1703 124.673 44.3518 126.128C43.1 127.129 43.2837 124.495 43.0753 123.575C42.2628 119.986 41.4252 116.413 40.3939 112.878C40.1443 112.022 40.1331 110.537 39.2243 111.565C36.387 114.778 32.5002 115.426 28.8053 117.214C27.9701 117.618 26.8829 118.792 27.3077 117.221C28.2091 113.886 28.2796 110.317 29.3116 107.03C29.629 106.019 29.0021 106.292 28.2277 106.531C25.4409 107.388 22.6666 108.203 19.8553 108.97C19.1994 109.148 17.8646 109.763 17.4021 109.069C16.9215 108.348 16.0253 108.489 16.1327 107.415C16.4556 104.186 17.8667 100.193 19.5487 97.4594C19.7967 97.0564 17.8331 96.9568 17.559 96.9317C14.9349 96.6912 11.2894 97.15 8.90145 96.0189C8.42122 95.7914 8.57742 95.2336 7.94583 95.0062C5.51178 94.13 8.85383 91.5237 9.77148 90.4849C11.2807 88.7763 12.7587 87.0498 14.4069 85.4715C14.8004 85.0947 16.1212 84.276 16.2397 83.6244C16.4442 82.4997 13.0095 81.7055 12.4386 81.5135C11.2591 81.1168 -1.63631 79.1156 1.95542 76.55C4.67472 74.6077 8.0598 74.1222 10.8983 72.3853C11.6072 71.9514 11.013 71.6771 10.4418 71.4867C9.65291 71.2237 9.0862 70.8874 8.40225 70.4027C6.56291 69.0994 4.55246 68.063 2.71135 66.7657C1.25622 65.7404 0.114552 64.6925 1.94829 63.5922C4.6227 61.9876 7.53589 61.4183 10.4846 60.5471C11.4073 60.2745 13.166 59.8515 13.166 58.7214C13.166 57.134 11.8388 55.6953 10.8555 54.4854C9.07767 52.2978 6.9355 50.4532 5.05047 48.3666C4.73371 48.016 3.32633 46.7024 3.56713 46.0703C3.71349 45.6861 5.08519 45.3859 5.39991 45.3072C6.26616 45.0906 7.22537 45.0071 8.11699 45.0719C8.69655 45.1139 9.70549 45.5666 10.2564 45.3001C10.5682 45.1492 9.59691 44.5353 9.48623 44.373C8.01643 42.2173 6.58613 40.1119 5.78501 37.6195C5.7155 37.4033 5.36911 36.8058 5.49262 36.5712C5.67592 36.2229 6.23261 36.1233 6.5552 36.0363C8.52307 35.5057 10.4667 34.8984 12.4315 34.3604C14.068 33.9123 13.8521 34.3239 13.3372 32.82C13.1605 32.304 11.3193 26.7254 12.0108 26.687C12.5841 26.6551 13.1729 26.8469 13.708 27.0364C16.6165 28.0665 16.1813 27.4125 19.1309 28.3958C20.6033 28.8866 21.1733 27.8546 21.1309 26.687C21.0383 24.1404 21.6112 23.739 20.7111 21.3955C20.2924 20.3052 19.9124 19.3954 19.9124 18.2434C19.9124 18.2206 19.912 18.0714 19.9694 18.1721C20.4458 19.0056 21.444 19.6784 22.1945 20.233C24.2401 21.745 26.4095 23.2119 28.627 24.462C29.6055 25.0136 29.7687 24.9084 30.0676 23.9913C30.3832 23.0227 30.8646 22.2534 30.9519 21.1958C31.0908 19.5118 30.6224 17.8483 30.524 16.1753C30.4085 14.2126 30.3467 8.37732 30.8235 10.2847C30.855 10.4106 30.8073 10.3437 30.9804 10.3346C32.173 10.2718 33.9826 12.2997 34.8028 12.8805C37.0534 14.4742 39.4411 15.7347 41.8344 17.0809C42.6113 17.5179 42.5484 16.697 42.6189 16.0112C43.0084 12.223 44.5976 8.00819 43.9026 4.20869C43.6766 2.97333 46.9371 5.709 47.3542 6.02721C49.1108 7.36734 50.0362 9.1597 51.5332 10.6983C52.1341 11.3159 53.3245 11.9931 53.6013 12.8235" stroke="black" stroke-width="2" stroke-linecap="round" stroke-linejoin="round"/>
</svg>
