<?xml version="1.0" encoding="UTF-8" standalone="no"?> <!-- Created with Vectornator for iOS (http://vectornator.io/) --><!DOCTYPE svg PUBLIC "-//W3C//DTD SVG 1.1//EN" "http://www.w3.org/Graphics/SVG/1.1/DTD/svg11.dtd">
<svg style="fill-rule:evenodd;clip-rule:evenodd;stroke-linecap:round;stroke-linejoin:round;" xmlns:vectornator="http://vectornator.io" xmlns:xlink="http://www.w3.org/1999/xlink" xmlns="http://www.w3.org/2000/svg" xml:space="preserve" version="1.1" viewBox="0 0 100 100">
<metadata>
<vectornator:setting key="IsolateActiveLayer" value="0"/>
<vectornator:setting key="SnapToPoints" value="0"/>
<vectornator:setting key="OutlineMode" value="0"/>
<vectornator:setting key="RulersVisible" value="1"/>
<vectornator:setting key="CMYKEnabledKey" value="0"/>
<vectornator:setting key="SnapToEdges" value="1"/>
<vectornator:setting key="DisplayWhiteBackground" value="0"/>
<vectornator:setting key="SnapToGuides" value="1"/>
<vectornator:setting key="GridSpacing" value="36"/>
<vectornator:setting key="Units" value="Pixels"/>
<vectornator:setting key="DynamicGuides" value="0"/>
<vectornator:setting key="SnapToGrid" value="0"/>
</metadata>
<defs/>
<g id="Layer 1" vectornator:layerName="Layer 1">
<path stroke="#000000" stroke-width="2" d="M70.4761+14.1484C60.7181+13.0677+50.1723+11.9547+40.4919+14.2077C18.1855+19.3991+9.25929+40.8284+16.0533+65.8623C17.9824+72.9708+21.2607+79.7419+26.2355+84.3989C40.0579+97.3383+62.5293+90.8482+75.6116+79.9078C80.8353+75.5393+86.0894+69.3905+88.4494+62.0963C92.8554+48.4787+91.3808+35.8365+83.5148+24.5832C80.9035+20.8475+75.4145+16.5448+71.3058+15.6174C70.5855+15.4548+66.8546+15.378+66.4522+13.6897C66.3484+13.2544+66.7582+12.8621+66.9084+12.4468L66.5871+11.6743C68.3058+7.70336+72.8022+11.47+75.4416+12.2859C84.8113+15.1821+91.5175+26.3679+94.7195+36.7672C97.1583+44.6879+95.5438+52.2546+93.6211+59.8582C85.8456+90.608+48.2324+104.317+26.1243+88.3573C9.4879+76.3478+5.57157+40.3729+19.4493+24.1836C31.8937+9.66648+54.5846+7.35861+70.5961+13.427" fill="#000000" stroke-linecap="butt" opacity="1" stroke-linejoin="round"/>
<path stroke="#000000" stroke-width="2" d="M50.4126+66.3264C60.5015+65.6842+52.0582+74.4378+50.4478+73.783C49.8223+73.5287+46.5206+68.4318+46.9753+67.4926C47.4346+66.5438+48.2648+66.8102+48.9359+66.4011C53.2757+63.7555+52.0491+69.4184+50.9734+67.8406L51.4317+66.1879C51.5804+66.0677+51.7601+68.1345+51.6598+68.1089C50.8055+67.8909+50.2476+68.3877+49.4196+68.7264C49.0829+68.8642+48.1334+69.2986+48.3741+68.9838C48.8363+68.3791+49.2697+67.7419+48.5579+67.1232C48.0929+66.7191+49.3411+68.1316+49.7298+68.639C50.193+69.2435+50.7641+69.81+51.1745+70.4678C51.3879+70.8099+50.1054+71.5895+50.4021+71.3534C52.896+69.3688+51.9932+67.4567+54.2071+68.3378C54.8548+68.5956+52.84+68.4266+52.1704+68.584C51.6743+68.7005+51.181+68.8335+50.6863+68.9582" fill="#000000" stroke-linecap="butt" opacity="1" stroke-linejoin="round"/>
<path stroke="#000000" stroke-width="2" d="M51.7131+73.2947C51.7566+74.2193+52.0848+78.8307+51.433+79.6536L48.6208+79.6536C48.2341+79.1654+48.9184+73.6197+48.9938+73.2947" fill="#000000" stroke-linecap="butt" opacity="1" stroke-linejoin="round"/>
<path stroke="#000000" stroke-width="2" d="M39.7429+74.1588C40.2212+79.4619+43.7216+81.1005+48.0752+79.354C48.579+79.1519+50.0687+77.7323+50.1629+77.7759C52.9024+79.0442+57.8514+80.2858+62.0818+78.5692C63.2183+78.108+64.3285+77.015+64.95+75.7828C65.0004+75.6828+65.4659+74.103+65.2825+74.1762C64.9862+74.2944+64.9482+75.5751+65.1521+75.291C65.6373+74.6154+66.5786+72.5538+66.7478+73.4228L66.7478+73.9516C66.5966+74.7285+67.4458+71.3509+67.8647+71.9698C69.0213+73.6787+69.1123+75.467+68.4424+77.5484C66.4165+83.843+51.5449+87.7015+49.5778+80.8508C48.5266+77.19+52.4232+82.117+52.6091+80.3309C52.6685+79.7601+52.0644+81.2821+51.7376+81.7024C51.2206+82.3674+50.551+82.9745+49.9084+83.4487C48.0288+84.8355+46.2006+84.5492+44.1242+84.5641C38.9692+84.6011+35.803+79.5442+37.189+73.6866" fill="#000000" stroke-linecap="butt" opacity="1" stroke-linejoin="round"/>
<path stroke="#000000" stroke-width="1" d="M30.9546+31.5185C23.6767+32.0345+22.1375+52.3115+28.593+56.9255C36.0291+62.2404+46.3398+55.8407+46.1772+45.244C46.1279+42.0261+42.6242+37.9417+40.7831+35.9921C38.284+33.3458+35.1907+30.9533+31.7384+31.3742C30.2644+31.5539+28.9528+36.3046+28.2744+34.7215L27.2339+34.3047C26.8602+29.9355+32.8148+28.6222+35.3322+29.553C45.9517+33.4797+55.0973+50.9126+41.775+59.2413C32.3326+65.1443+19.7962+57.2273+22.3618+43.5505C23.2051+39.0553+26.0605+30.0952+30.9546+30.4422" fill="#000000" stroke-linecap="butt" opacity="1" stroke-linejoin="round"/>
<path stroke="#000000" stroke-width="1" d="M63.8619+28.5607C59.9573+34.0131+56.4737+37.4556+56.7107+45.4318C56.9891+54.8017+66.9314+58.392+72.7619+53.7559C80.7507+47.4036+77.2678+28.7467+67.5532+27.4527C61.9921+26.712+62.639+31.8658+60.3277+31.0081L60.7578+31.2666C56.8458+30.9792+64.316+23.9274+70.3966+25.8099C81.9531+29.3876+83.1462+51.1612+72.4168+56.9223C54.5556+66.513+47.3439+34.4423+63.6245+27.2766" fill="#000000" stroke-linecap="butt" opacity="1" stroke-linejoin="round"/>
<path stroke="#000000" stroke-width="1" d="M25.7587+51.9587C26.3617+44.7222+32.1719+37.3943+38.3339+37.1719C40.5697+37.0912+44.3892+39.2751+45.3581+41.9303C45.532+42.4072+46.8644+47.0336+45.3998+45.0658L45.771+44.8428C44.7025+44.2952+41.7278+39.215+38.598+39.0767C32.1748+38.793+29.0529+46.1136+26.8757+52.0808" fill="#000000" stroke-linecap="butt" opacity="1" stroke-linejoin="round"/>
<path stroke="#000000" stroke-width="1" d="M32.8769+41.8366C30.0589+41.7618+30.2107+47.9623+33.1868+48.4652C34.6218+48.7077+40.9271+46.0433+38.6078+43.5184C36.5884+41.3199+33.2033+42.0676+33.2033+42.0676C31.5513+39.2143+42.8645+39.3623+39.8366+46.4605C35.9679+55.53+24.6343+45.92+32.3074+40.7306" fill="#000000" stroke-linecap="butt" opacity="1" stroke-linejoin="round"/>
<path stroke="#000000" stroke-width="1" d="M57.0747+42.2491C60.3345+38.0039+66.6212+34.8182+71.4838+35.2778C74.6006+35.5723+79.2036+40.9276+76.6438+39.877L76.7077+39.8258C76.4401+40.6555+72.8589+37.3702+71.5479+37.2026C67.8696+36.7325+60.1848+39.3999+57.7404+42.9492" fill="#000000" stroke-linecap="butt" opacity="1" stroke-linejoin="round"/>
<path stroke="#000000" stroke-width="1" d="M65.4581+38.1077C64.8246+39.8214+63.587+41.2161+64.1415+43.3301C64.9244+46.3153+69.5369+45.5154+70.7759+43.5592C72.5918+40.6923+69.3437+37.1067+66.874+37.4753L66.7521+36.8892C70.9968+33.641+76.7969+42.2477+69.884+46.7459C63.8593+50.6662+59.962+41.2837+65.2941+36.7278" fill="#000000" stroke-linecap="butt" opacity="1" stroke-linejoin="round"/>
<path stroke="#000000" stroke-width="1" d="M28.7139+48.4894C28.3244+49.3104+26.5425+52.3679+27.0684+53.5806C27.3288+54.1812+27.3408+52.2504+27.6118+51.6567C27.8437+51.1488+28.5139+49.5947+28.6874+49.0479C28.8343+48.5854+28.6103+47.1854+28.8616+47.5776C30.0067+49.3649+29.0449+50.1798+28.3262+52.1556C28.1259+52.7061+27.9077+54.4076+27.7708+53.8298C27.2739+51.7322+27.9443+51.2253+28.6487+48.9929C28.757+48.6496+28.6309+47.6223+28.8198+47.9108C29.9216+49.5934+26.9272+55.3134+27.7083+55.8688C28.5325+56.455+27.8089+53.5304+28.1566+52.4579C28.1677+52.4237+29.8254+47.6411+29.2968+47.3846C28.6454+47.0686+29.4433+49.1101+29.2348+49.9164C28.98+50.9021+27.9729+54.0979+28.7681+55.0042C29.2288+55.5292+31.9645+50.2426+30.9139+48.9955C30.8145+48.8776+30.8879+50.5255+30.7802+50.9315C30.339+52.5949+30.0465+54.2716+29.9184+56.0122C29.8936+56.3493+29.871+57.3456+29.964+57.0261C30.2465+56.0551+29.3226+56.5786+29.8665+54.9204C30.6272+52.6015+30.2414+54.2322+30.9701+51.5243C32.3319+46.4635+30.2155+54.8511+31.1925+56.1755C31.423+56.4879+34.3208+50.5374+33.2733+50.3208C33.1874+50.3031+33.6092+52.3019+33.3994+53.0713C33.1759+53.8909+32.1177+56.5749+32.963+57.4125C33.2738+57.7206+35.9733+51.7068+34.7269+51.1852C34.253+50.9869+32.9024+55.9816+34.2602+56.4941C35.7711+57.0644+36.4065+53.808+36.5552+52.5888C36.6186+52.0688+36.6571+50.6892+36.3284+51.0358C35.9767+51.4065+35.6347+56.2673+36.2798+56.6008C38.4002+57.697+37.8658+49.6951+37.1806+50.7105C37.0794+50.8606+37.5721+57.0317+38.5384+56.8372C38.6643+56.8118+39.7127+50.7756+39.1216+50.3138C39.0311+50.243+38.6995+56.2425+40.8265+55.1379C42.1697+54.4404+40.8902+49.4269+39.6284+50.6711C39.1564+51.1366+41.6699+53.7744+41.8563+52.2252C41.9912+51.1038+40.6309+47.9811+40.7282+49.1081C40.7943+49.874+42.9756+50.5388+42.9787+49.3905C42.9832+47.7295+40.9215+48.0871+40.5407+49.3062C40.5253+49.3555+40.663+49.3832+40.6706+49.3313C40.845+48.1529+43.3757+47.4091+42.6279+46.6187C42.0821+46.0417+42.099+48.752+41.3722+48.7614C40.4954+48.7727+39.8411+44.9786+40.3105+45.8687C41.93+48.9401+39.0081+47.8675+39.6093+50.2143C39.7808+50.8841+38.9553+48.7815+39.2285+48.1624C39.7628+46.9519+41.2714+43.4392+42.8326+44.0665C45.3267+45.0687+45.5848+52.6089+42.4489+51.9197C39.2567+51.2181+42.0163+46.6662+43.7115+45.9446C48.1137+44.0709+44.9715+52.6087+43.2403+53.971C42.2394+54.7587+41.2862+54.9399+41.4197+52.487C41.4706+51.5511+44.3981+51.3803+43.6754+51.7342C41.1055+52.9927+44.81+47.4717+44.5293+46.7446C44.3027+46.1575+39.673+42.7117+39.878+42.4888C42.6361+39.4912+43.6581+45.618+42.941+45.9367C42.5424+46.1138+42.0548+46.1039+41.6664+45.8965C37.6235+43.7379+43.8227+39.8958+41.1765+43.031C41.1589+43.0519+39.9602+41.9696+39.9042+41.9263C38.3753+40.7455+38.5231+40.7081+37.8723+41.0797C37.2713+41.4228+36.3592+39.8586+37.0698+41.0094L37.9026+39.0075C38.5751+39.7811+36.4479+39.5677+38.332+38.6938C39.0244+38.3727+42.426+40.5323+42.4176+41.5392C42.3794+46.1344+41.828+40.5742+42.1935+43.5905C42.2287+43.8809+41.5043+45.1516+41.7939+45.2848C42.0635+45.4088+41.1417+43.7815+41.0328+43.6521C40.3215+42.8072+42.3269+42.4034+41.5703+41.5611C41.5377+41.5248+41.4265+41.5168+41.4371+41.5686C41.651+42.6158+43.6821+43.155+44.2353+43.5589C48.1545+46.4198+44.9802+50.6838+42.9232+53.0903C42.5869+53.4838+42.0735+52.6106+41.6554+52.3546C41.625+52.336+41.5438+52.43+41.5777+52.4344C42.8296+52.5982+46.1176+49.1567+44.9813+47.2957C44.0578+45.7832+41.351+50.5014+42.2763+50.771C43.5874+51.1531+43.3674+45.2195+42.8107+45.5445C41.0303+46.5839+40.497+51.7166+38.2198+49.5906C37.8711+49.2651+40.9082+45.2924+41.0133+45.2718C41.694+45.1384+42.1992+47.6157+41.5119+47.6854C40.6904+47.7686+40.2164+47.0492+40.3609+48.173C40.4474+48.8455+40.4522+46.7198+40.8271+46.2098C41.123+45.8073+41.7435+45.4966+42.1905+45.5603C46.141+46.124+40.8915+52.5219+39.6577+48.1138C39.2615+46.6983+46.6734+46.6927+43.4893+50.8808C42.0071+52.8303+38.7581+49.5338+40.6194+47.8503C42.5804+46.0767+44.1522+52.3033+41.9991+53.8555C39.8797+55.3833+37.1808+50.5644+39.6416+49.1601C42.0017+47.8133+44.1382+55.6485+41.1779+56.567C36.397+58.0502+37.2723+47.9551+39.935+49.5249C41.927+50.6993+40.0382+59.4119+37.6097+57.879C35.7634+56.7137+35.2258+50.6725+37.3918+49.6912C39.8301+48.5865+39.7222+59.2263+35.7141+57.8395C33.1198+56.9419+34.5319+49.9015+37.0624+50.2325C38.9021+50.4732+37.0333+59.1569+33.8215+57.9589C30.8092+56.8354+32.6039+49.3099+35.2177+50.3191C37.6853+51.272+34.6893+59.8363+32.3309+58.3052C29.9053+56.7305+31.782+49.7605+34.4171+49.9869C34.8332+50.0227+34.5571+51.2638+34.5485+51.3192C34.2459+53.2836+32.9862+58.4152+30.4357+57.0133C28.1082+55.7339+29.8842+49.6489+31.9147+49.1478C32.1911+49.0796+31.9409+57.9632+29.0889+57.7164C27.4669+57.5761+28.6861+47.9585+31.6924+48.6324C33.4051+49.0163+30.6057+56.3467+28.6827+56.4069C25.6243+56.5025+27.4011+47.187+29.5177+46.7214C31.3444+46.3195+29.745+56.7101+26.7338+56.2049C25.9043+56.0658+26.8561+47.6186+29.9542+48.4352C30.6973+48.631+29.2348+50.0537+28.9775+50.9141C28.7236+51.7635+28.36+54.3173+27.1691+54.2863C26.002+54.2559+27.4854+47.103+30.0431+47.9833C30.8673+48.267+25.7172+56.828+26.0644+52.9079C26.177+51.6371+26.6128+50.2316+27.232+49.2096C27.5274+48.7222+27.8982+48.3076+28.2313+47.8566" fill="#000000" stroke-linecap="butt" opacity="1" stroke-linejoin="round"/>
<path stroke="#000000" stroke-width="1" d="M59.8942+41.2051C65.6429+37.5166+58.778+46.1591+57.2186+43.7515C55.4183+40.9721+61.0717+39.0095+61.2541+40.174C61.4724+41.5668+57.9896+45.9827+57.1388+44.6892C56.1202+43.1404+58.0209+40.5181+59.4553+41.062C64.0898+42.8193+57.0743+48.2782+56.7675+47.7098C55.2574+44.9128+60.5097+40.6404+61.5648+42.3427C63.3087+45.1563+58.0129+49.5593+57.6558+48.0945C57.3675+46.9121+60.057+41.136+61.3959+42.1426C64.2833+44.3133+58.6786+50.6629+58.0913+49.8804C56.6485+47.9577+59.1244+42.4594+61.3941+42.6391C64.3948+42.8766+59.3664+53.5212+57.9301+51.5639C55.5963+48.3833+60.8255+42.5526+61.4558+43.3906C62.6753+45.0119+61.0332+51.2502+59.1726+49.2625C57.0054+46.9473+59.6628+39.5124+62.0212+42.1268C64.0621+44.3892+61.9055+53.4387+58.9752+51.6032C56.0059+49.7433+60.9236+43.6334+62.7586+45.6838C64.9479+48.1301+61.298+56.0954+59.3221+53.6614C57.1799+51.0227+62.1136+44.9417+63.4818+46.5619C65.4219+48.8595+62.4426+55.9633+60.9918+54.1004C58.8059+51.2938+62.7793+44.2244+64.9027+46.9949C66.88+49.5746+63.6107+57.7727+61.5888+54.9997C59.5373+52.1861+63.7102+44.7537+66.1091+47.2809C68.2246+49.5096+66.0219+57.3289+63.4437+55.3512C60.4328+53.0417+63.9609+47.0717+66.7357+47.1199C71.0766+47.1953+68.8571+54.7265+65.2731+54.6913C61.0246+54.6496+64.4309+46.96+67.557+46.8824C72.1558+46.7683+69.1273+57.444+65.5993+55.3428C61.5765+52.947+67.3354+44.0948+70.6388+47.3571C74.5346+51.2043+67.7673+57.9995+65.8959+54.2772C64.1394+50.7835+70.116+44.6619+72.6429+47.0759C75.6357+49.935+70.4039+56.4319+68.7133+54.0492C67.7048+52.6279+68.0101+51.4742+68.6482+50.047C72.8435+40.6629+76.718+49.805+72.6255+51.6261C68.0465+53.6637+68.7284+45.9941+71.9927+44.1792C76.481+41.6837+72.6618+49.4416+70.6147+45.1609C69.8025+43.4626+71.0377+41.5668+72.3656+40.9661C73.0556+40.6539+73.7241+42.3436+74.4033+41.9992C75.1461+41.6226+72.3101+41.7744+72.1946+40.8155C71.9576+38.8477+73.6082+37.3497+74.725+38.5693C75.9908+39.9518+76.9601+46.3285+73.595+43.4627C73.2884+43.2016+73.8352+37.8369+75.8806+40.0059C76.8766+41.0622+75.8104+47.95+74.5264+47.4166C72.4582+46.5575+72.3403+39.2912+74.3272+39.4499C78.2173+39.7608+75.7424+47.0762+75.1682+49.6234C75.1328+49.7805+74.7325+51.1788+74.4001+51.018C71.0386+49.3908+74.4966+43.2968+75.722+44.7349C76.7912+45.9896+75.3066+52.7292+74.2932+52.0027C71.3699+49.9069+74.4055+46.77+75.3125+50.2175C75.5241+51.0215+72.7734+54.6488+72.0961+54.9812C71.7063+55.1725+70.2826+54.9049+70.7597+54.7009L71.2269+53.5779C71.6394+53.5109+70.7398+52.7533+71.611+51.6511C73.1935+49.6492+72.8113+49.5469+75.3086+49.9177C76.1075+50.0363+73.6854+50.0797+72.9287+50.4098C72.4992+50.5973+73.4554+49.5112+73.6953+49.0438C74.8799+46.7359+74.1111+47.6312+76.0173+45.743C76.39+45.3738+75.4222+46.6757+75.2422+47.2144C74.4617+49.5511+73.8986+48.0816+73.0499+49.7499C72.7599+50.32+73.3254+48.4544+73.4908+47.8164C73.9734+45.9546+74.1112+44.3067+74.397+42.4404C74.4807+41.8939+75.9018+40.4694+75.5528+40.7117C74.3041+41.5782+75.4265+44.5353+74.6377+45.3156C74.2718+45.6775+73.1369+45.2409+73.2714+45.787C73.5111+46.7605+74.073+43.9767+74.2775+42.9916C74.4684+42.0725+76.1454+41.722+75.8336+40.852C75.5452+40.0471+76.1985+43.0058+75.5764+43.4627C74.9868+43.8956+73.7969+44.8583+73.5675+44.0751C73.2648+43.042+74.7484+41.1168+73.8737+40.8099C73.4951+40.6771+72.4034+40.4782+72.769+40.3005C73.9009+39.7502+73.7138+40.4721+74.0144+39.2234C74.331+37.9088+74.6246+42.6882+73.6059+43.2997C73.4513+43.3925+72.8059+41.2852+71.6332+43.4915C71.313+44.094+74.1513+46.0379+73.7423+45.9289C72.6476+45.6371+70.3762+47.6085+70.6474+49.1712C70.9377+50.8446+73.2245+49.9928+73.3706+48.6074C73.6245+46.2009+68.6673+51.6562+69.1435+52.3885C69.847+53.4704+72.5252+49.9735+72.4789+49.1131C72.3763+47.2106+66.0166+51.0513+66.8784+53.1672C67.8315+55.5072+72.1248+49.6623+69.8566+48.4906C68.053+47.5591+64.9352+51.3698+65.4143+53.564C65.6615+54.6964+68.9461+50.4753+68.5993+48.8106C68.1466+46.6377+63.9853+50.9276+64.3524+52.4957C64.797+54.3948+68.3741+51.2727+67.7273+49.0914C66.7992+45.9618+62.8762+53.5461+63.3194+53.6867C65.5171+54.3841+66.8953+44.9317+64.1996+49.2238C63.8141+49.8375+63.4361+50.4641+63.131+51.1399C62.9362+51.5713+62.9166+52.0993+62.7099+52.5226C62.3361+53.2882+62.0247+52.6055+61.7821+53.6295C61.6367+54.2439+65.443+47.4179+64.145+47.9105C62.9542+48.3624+61.0345+52.5634+61.0892+52.51C62.0213+51.6014+62.49+49.6049+63.141+48.4496C63.2837+48.1963+63.8318+47.6979+63.5773+47.6963C62.885+47.6922+59.4234+51.4621+59.4508+52.375C59.4565+52.5671+63.4936+47.1909+62.4692+46.7841C61.4583+46.3826+60.5187+48.3283+60.0319+48.936C59.9277+49.066+58.7104+49.7779+58.83+49.9299C59.63+50.9462+62.8295+44.596+61.5994+43.056C60.704+41.9349+59.2738+47.2693+59.2218+48.0168C59.1861+48.5295+59.8778+47.3127+60.0595+46.8468C60.6114+45.4322+60.6283+45.1143+61.5781+44.2211C61.8515+43.9639+61.0683+44.7956+60.8665+45.1352C60.2752+46.1304+59.7084+48.4549+58.8355+49.1911C58.8258+49.1993+57.4449+49.3578+57.6923+50.0824C57.9512+50.8407+59.9741+46.2568+59.9862+46.231C60.4405+45.2585+62.1042+44.9064+61.9122+43.8152C61.8447+43.4319+58.841+48.0878+58.8236+48.0966C58.48+48.2709+57.5126+47.9705+57.7233+48.3404C57.9322+48.7074+60.8434+44.0886+61.0655+43.8943C61.2869+43.7006+62.0014+43.2592+61.7316+43.3161C61.2627+43.4149+60.4422+44.6554+60.3499+44.7879C59.2472+46.3711+59.2316+46.3096+57.7248+47.057C56.9607+47.436+58.922+45.6866+59.5252+45.0073C60.0557+44.4098+61.5233+44.53+61.4005+43.6687C61.2725+42.7707+57.9064+46.0972+57.7238+46.1296C57.3138+46.2024+56.0693+46.0075+56.4827+46.0418C57.189+46.1004+61.563+43.6278+59.932+42.2521C59.102+41.552+56.0159+43.069+57.0138+43.2849C57.7732+43.4491+60.3465+41.4617+60.9503+40.9554C61.9475+40.1193+56.6219+41.7011+57.5731+42.6112C58.0906+43.1063+65.6798+39.4449+60.4075+41.952" fill="#000000" stroke-linecap="butt" opacity="1" stroke-linejoin="round"/>
<path stroke="#000000" stroke-width="1" d="M42.8742+15.8826C43.1459+18.4695+44.7746+25.7643+41.1103+24.2289C40.6033+24.0165+41.2046+16.9141+41.249+16.403C41.353+15.2045+41.0108+13.4201+41.1448+13.4732C41.6477+13.6725+42.5842+13.0182+42.728+13.6307C43.4143+16.5534+42.9659+22.5512+42.7616+23.8039C42.7446+23.9081+43.1538+24.9977+43.1263+25.014C41.0886+26.2165+41.4593+26.0781+41.63+24.6999L42.4867+24.6999C42.6827+24.0617+41.0921+25.2829+40.7887+24.7085C39.8703+22.9696+40.9093+15.7177+41.1274+13.6307C41.1558+13.3584+41.0274+12.9531+41.2252+12.816C43.8483+10.9958+42.8689+18.0866+42.9248+19.4527C42.9349+19.7013+43.5197+24.0686+43.137+24.2289C41.5356+24.8999+41.2888+25.2975+41.0989+24.3859C40.8189+23.042+40.9769+21.1095+41.0011+19.7541C41.0235+18.4959+41.0901+17.3296+41.2424+16.0891" fill="#000000" stroke-linecap="butt" opacity="1" stroke-linejoin="round"/>
<path stroke="#000000" stroke-width="1" d="M48.8439+16.9279C49.1048+19.618+48.994+17.8106+48.9786+20.9593C48.9732+22.0864+49.0029+23.0584+48.8032+24.144C48.6418+25.0215+47.2407+24.1859+46.5832+23.7579C46.5522+23.7377+47.0568+17.7138+47.0436+17.2177C47.0378+16.9994+47.0494+11.9104+47.2971+11.9665C50.0367+12.5871+50.6886+21.3221+49.3804+24.0719C48.984+24.9053+47.52+26.0513+47.6939+24.3981L47.9184+23.5886C48.1161+23.2133+47.0314+24.4798+46.885+24.0719C46.3324+22.5321+47.2743+19.3205+47.2665+17.6961C47.2665+17.6924+47.3721+12.4583+47.3881+12.4531C50.2676+11.52+48.7252+16.874+48.6813+18.9418C48.6472+20.547+50.0052+23.1524+48.7678+23.7579C48.0851+24.092+47.3011+23.9553+46.5643+23.9834C46.412+23.9893+46.5779+23.6165+46.5649+23.434C46.4621+21.9852+46.635+20.1007+46.7315+18.655C46.77+18.0773+46.8432+17.5036+46.899+16.9279" fill="#000000" stroke-linecap="butt" opacity="1" stroke-linejoin="round"/>
<path stroke="#000000" stroke-width="1" d="M56.1276+15.0438C56.5604+17.759+56.0881+19.8845+56.1278+22.6325C56.1398+23.4649+56.7098+25.6782+56.1892+25.129C54.079+22.9029+54.4729+21.5713+54.652+17.0597C54.7051+15.7215+54.8734+14.6791+55.2242+13.3937C55.2987+13.1207+55.1932+12.2457+55.2172+12.5316C55.3266+13.8361+55.8117+13.2766+56.5245+13.4649C56.5523+13.4722+56.2602+17.5013+56.2232+17.8213C55.9996+19.7532+55.6714+21.4795+55.8989+23.4344C56.0052+24.3479+54.3532+22.2278+54.4243+21.3094C54.5652+19.4864+54.7115+17.6891+54.9044+15.8746C54.9613+15.3391+54.7126+13.8385+54.9945+14.2587C55.3769+14.8287+56.1565+14.7688+56.6403+15.2139C58.1922+16.6418+56.6784+23.2531+55.2393+23.6324L55.3956+23.7263C53.7426+25.272+53.762+13.7716+55.7747+13.2883C57.4887+12.8767+56.4841+23.7903+55.5564+24.6463C52.6304+27.3461+53.7519+12.2988+55.9053+11.4989C56.4348+11.3021+57.006+12.2407+56.7691+12.757C55.1847+16.2109+57.4973+21.4206+56.1003+24.752C53.9953+29.772+54.347+20.365+54.5058+19.3963C54.742+17.9553+54.5503+16.4131+54.7686+15.0438" fill="#000000" stroke-linecap="butt" opacity="1" stroke-linejoin="round"/>
<path stroke="#000000" stroke-width="1" d="M19.2066+65.9267C19.286+65.8993+25.9983+64.9548+25.9974+64.9749C25.8632+68.0396+22.8936+66.9364+20.687+67.4649C19.4955+67.7503+17.2601+70.0577+17.1673+68.6018C16.94+65.039+20.2184+65.5949+22.595+65.4281C23.5228+65.3629+25.5795+63.9312+25.3621+65.0173C24.7623+68.0123+21.9791+66.98+19.5722+67.4614C18.7158+67.6327+17.0287+69.0602+17.009+68.017C16.9656+65.709+21.094+63.9319+21.7274+66.1755L21.6456+66.4376C20.9095+68.3113+17.2919+67.5906+16.8279+66.1662C16.5178+65.2142+18.5235+65.9693+19.3593+65.7797C19.8737+65.663+20.3874+65.541+20.9038+65.438C22.983+65.0232+25.2386+63.9526+25.8489+66.9678C25.9112+67.2757+21.7716+67.6908+21.5207+67.7105C19.395+67.8771+17.1771+69.5953+16.8003+66.8375C16.6864+66.0044+18.1904+66.5801+18.8732+66.3817C19.6706+66.15+25.1203+64.0153+25.7361+65.0206C27.3541+67.6616+25.153+67.1493+24.095+67.2235C22.0416+67.3675+25.3992+67.1681+22.2175+67.3384C19.8913+67.4629+21.5657+67.3911+19.4637+67.4714" fill="#000000" stroke-linecap="butt" opacity="1" stroke-linejoin="round"/>
<path stroke="#000000" stroke-width="1" d="M23.0514+74.4967C24.0368+74.2671+25.0876+73.9504+26.0941+73.8989C27.5236+73.8257+29.0046+73.804+30.4321+73.9541C31.116+74.026+30.9861+74.7246+30.5627+75.87C30.3858+76.3486+29.6891+75.8628+29.2563+75.9233C26.5861+76.2962+23.9025+76.6889+21.2557+77.2559C20.7796+77.3579+19.8772+78.2794+19.8526+77.6989C19.6932+73.9469+24.0974+74.4841+26.5803+74.083C27.343+73.9598+29.561+73.4241+28.8816+73.8585C28.3328+74.2094+28.4791+75.3034+28.0946+75.8904C27.7693+76.387+21.3631+77.2516+20.6347+76.4942L20.6347+75.2765C22.041+73.8142+28.1262+73.9087+29.2638+75.4231C29.3364+75.5199+25.4511+76.3453+25.3564+76.3635C22.9603+76.8249+20.0422+79.1175+19.4574+75.7989C19.4452+75.7298+21.0381+75.4595+21.0587+75.4568C23.7561+75.106+26.4396+74.7319+29.1259+74.2773C29.6055+74.1961+30.3661+73.4845+30.5627+74.0166C31.6762+77.0288+27.8612+76.209+26.4096+76.4587C25.2843+76.6522+24.1884+76.8433+23.0514+76.9599" fill="#000000" stroke-linecap="butt" opacity="1" stroke-linejoin="round"/>
<path stroke="#000000" stroke-width="1" d="M28.5423+81.5216C30.8795+81.1206+34.7131+80.2822+34.7351+81.3169C34.7807+83.4628+27.0033+84.2096+25.2682+84.3723C24.9803+84.3993+24.862+83.0737+24.9499+83.4042L24.9499+83.5965C24.8087+84.1276+24.8923+83.9644+24.6886+82.9397C24.4832+81.906+27.555+82.2331+29.8169+81.6437C29.9885+81.599+33.7639+80.4992+33.7939+81.0831C33.9438+84.0019+32.255+83.4966+28.5423+83.2809" fill="#000000" stroke-linecap="butt" opacity="1" stroke-linejoin="round"/>
<path stroke="#000000" stroke-width="1" d="M84.4727+67.7415C82.9708+67.7756+73.8649+70.2997+75.4348+66.7844C75.5507+66.5248+75.9138+66.6592+76.1544+66.603C77.8668+66.2024+88.1949+64.2174+89.2165+64.8916C89.9378+65.3678+90.0321+66.517+89.0285+66.6409L88.8819+66.2885C89.1729+65.246+88.8029+66.4912+88.8877+66.7814C89.175+67.7646+89.2576+67.4336+87.7795+67.5244C83.9874+67.7575+80.1579+67.3894+76.4134+68.3676C76.0851+68.4533+75.6743+68.9404+75.4348+68.6572C73.0346+65.8185+83.4138+65.8831+84.4241+65.816" fill="#000000" stroke-linecap="butt" opacity="1" stroke-linejoin="round"/>
<path stroke="#000000" stroke-width="1" d="M83.4501+73.9125C82.0463+73.8045+77.6454+74.7146+76.2052+75.1089C76.0273+75.1576+73.6576+75.5931+73.6633+75.4352C73.7769+72.2703+77.759+73.381+80.0722+73.3924C80.756+73.3958+83.5106+74.419+83.5106+74.419C83.6919+75.0726+73.8054+77.1771+73.418+73.6663C73.4168+73.6558+74.6117+73.4792+74.7377+73.4494C77.4666+72.8046+80.3094+72.4037+83.0719+72.0338" fill="#000000" stroke-linecap="butt" opacity="1" stroke-linejoin="round"/>
<path stroke="#000000" stroke-width="1" d="M77.3479+58.3692C79.4393+57.975+81.5157+57.7299+83.6311+57.6648C86.7168+57.5698+88.4824+56.6073+88.6817+57.9861C88.7871+58.7152+89.8663+58.8883+89.0535+59.047C85.9153+59.6597+82.4065+58.9691+79.2231+59.1156C79.2082+59.1162+75.6919+59.4915+75.6948+59.3869C75.7697+56.6906+89.9141+55.8225+89.9334+57.517L89.8058+57.6703C88.2655+56.7428+91.8887+57.2123+89.858+58.2115C86.4246+59.9008+80.5248+58.4704+76.6818+59.2574C76.439+59.3072+76.1476+59.6208+75.9573+59.4328C74.1543+57.6511+78.7071+57.3386+79.2231+57.3278C81.1756+57.2868+87.7695+56.0841+89.3471+57.0514C92.8389+59.1922+85.6649+59.7373+85.1187+59.7668C83.9993+59.8272+82.8779+59.8098+81.7574+59.8182C80.3554+59.8287+78.9746+59.8512+77.5713+59.8013" fill="#000000" stroke-linecap="butt" opacity="1" stroke-linejoin="round"/>
<path stroke="#000000" stroke-width="1" d="M38.8202+66.1241C38.8439+66.7219+37.92+67.2519+37.9291+66.397C37.9468+64.7295+40.3868+65.0706+38.3869+67.539C37.9611+68.0645+37.1762+66.7388+37.0637+66.0177C36.9557+65.3252+38.5846+63.4784+38.373+66.6483C38.2986+67.7628+38.5677+65.6123+37.8038+65.2255C37.4087+65.0254+37.8176+66.4221+38.1757+66.7054" fill="#000000" stroke-linecap="butt" opacity="1" stroke-linejoin="round"/>
<path stroke="#000000" stroke-width="1" d="M44.4856+64.8161C43.2549+67.7388+41.745+64.6424+43.1718+63.4067C44.5444+62.218+45.8382+64.8934+44.3895+65.9573C43.3355+66.7314+42.1087+65.1788+42.6756+63.9025C43.3244+62.4417+42.1878+62.9431+43.4194+64.8161C43.6711+65.1988+44.7071+65.3677+44.5763+64.4736C44.2802+62.4501+42.4834+64.9479+43.7286+65.0067" fill="#000000" stroke-linecap="butt" opacity="1" stroke-linejoin="round"/>
<path stroke="#000000" stroke-width="1" d="M42.7147+69.4868C43.3249+71.255+40.5079+72.5637+41.33+69.2091C41.8552+67.0659+45.2641+70.6144+43.2967+71.4576C39.4119+73.1227+42.1474+70.9761+42.3817+70.4295C42.4544+70.2599+43.7142+69.7898+42.8369+68.9752C42.7722+68.9152+42.6549+68.9879+42.6032+69.064C41.9957+69.9579+42.6182+71.5775+42.8123+69.8779C42.8871+69.2221+41.7046+68.4037+41.6139+69.3158" fill="#000000" stroke-linecap="butt" opacity="1" stroke-linejoin="round"/>
<path stroke="#000000" stroke-width="1" d="M59.2172+63.6901C60.4851+63.5885+60.0492+65.8404+59.0709+65.7893C57.4881+65.7066+57.5748+63.5955+58.9162+63.2613C60.0251+62.9851+60.3398+65.9099+59.6689+65.65C57.8774+64.9557+58.9913+64.5731+59.2557+64.9215C59.6439+65.4334+59.9258+64.4029+59.8164+64.3464C59.2892+64.0743+58.7175+63.7176+58.1508+63.8252C57.632+63.9237+58.9081+64.8899+59.4324+64.9268C60.9245+65.0319+57.1202+62.3675+58.1992+64.2979" fill="#000000" stroke-linecap="butt" opacity="1" stroke-linejoin="round"/>
<path stroke="#000000" stroke-width="1" d="M63.2604+63.3926C66.1945+62.9636+64.0313+68.6631+62.2281+65.8876C60.9827+63.9707+63.7472+62.5371+65.1282+65.3812C65.1282+65.3812+64.9404+65.5996+63.5534+65.7163C63.1305+65.7519+65.3878+63.9564+63.2207+64.0508" fill="#000000" stroke-linecap="butt" opacity="1" stroke-linejoin="round"/>
<path stroke="#000000" stroke-width="1" d="M61.8193+69.803C63.7101+69.5681+60.6319+73.4847+60.4154+69.985C60.3657+69.1817+64.5571+68.8895+61.645+71.8129C61.4539+72.0047+61.0945+71.7165+60.9553+71.4684C59.1658+68.2801+61.2497+71.7843+61.3564+70.4274C61.4349+69.4278+63.9359+71.0393+61.4366+69.1545C61.2307+68.9993+60.7464+69.1461+60.7469+69.4381C60.7523+72.7809+63.4404+70.2193+61.0477+69.294" fill="#000000" stroke-linecap="butt" opacity="1" stroke-linejoin="round"/>
<path stroke="#000000" stroke-width="1" d="M24.6439+17.089C18.4197+8.88044+7.13421+22.5577+6.96235+30.5225C6.88203+34.245+8.08948+36.4817+10.551+38.4156C11.8711+39.4528+10.3142+40.3706+11.0375+39.5441L11.1597+39.5307C14.0568+42.1912+8.299+42.7396+5.95356+39.3733C3.16764+35.3748+3.14953+29.7596+4.9344+25.1728C7.7358+17.9738+21.0762+5.63437+26.4229+16.1387" fill="#000000" stroke-linecap="butt" opacity="1" stroke-linejoin="round"/>
<path stroke="#000000" stroke-width="1" d="M18.2107+23.1474C12.4544+23.6744+14.9216+30.7951+11.9691+31.8697L13.3632+33.5453C5.90084+37.3688+12.5815+14.4322+19.0091+21.2282" fill="#000000" stroke-linecap="butt" opacity="1" stroke-linejoin="round"/>
<path stroke="#000000" stroke-width="1" d="M76.4272+11.5622C80.0517-1.06785+99.7318+8.94819+100.44+20.8458C100.522+22.2378+97.7907+35.0463+95.3726+29.7241L95.4703+29.5675C97.4804+29.4143+97.9413+20.0011+97.3682+18.1038C94.3984+8.27046+84.1452+6.64485+77.7082+12.402" fill="#000000" stroke-linecap="butt" opacity="1" stroke-linejoin="round"/>
<path stroke="#000000" stroke-width="1" d="M59.8642+64.4563C60.1873+64.6298+60.276+64.561+60.1386+64.6456L60.1386+64.6456C60.2576+64.7188+60.1882+64.664+59.9045+64.7475" fill="#000000" stroke-linecap="butt" opacity="1" stroke-linejoin="round"/>
</g>
</svg>
