<?xml version="1.0" encoding="UTF-8" standalone="no"?> <!-- Created with Vectornator for iOS (http://vectornator.io/) --><!DOCTYPE svg PUBLIC "-//W3C//DTD SVG 1.1//EN" "http://www.w3.org/Graphics/SVG/1.1/DTD/svg11.dtd">
<svg width="100" height="100" style="fill-rule:evenodd;clip-rule:evenodd;stroke-linecap:round;stroke-linejoin:round;" xmlns:vectornator="http://vectornator.io" xmlns:xlink="http://www.w3.org/1999/xlink" xmlns="http://www.w3.org/2000/svg" xml:space="preserve" version="1.1" viewBox="0 0 1190.7 841.995">
<metadata>
<vectornator:setting key="DisplayWhiteBackground" value="0"/>
<vectornator:setting key="RulersVisible" value="1"/>
<vectornator:setting key="SnapToEdges" value="0"/>
<vectornator:setting key="Units" value="Millimeters"/>
<vectornator:setting key="DynamicGuides" value="0"/>
<vectornator:setting key="SnapToPoints" value="0"/>
<vectornator:setting key="CMYKEnabledKey" value="0"/>
<vectornator:setting key="SnapToGrid" value="0"/>
<vectornator:setting key="SnapToGuides" value="1"/>
<vectornator:setting key="GridSpacing" value="36"/>
</metadata>
<defs/>
<g id="Layer 1" vectornator:layerName="Layer 1">
<path stroke="#000000" stroke-width="1" d="M451.585+168.336C451.121+164.472+441.807+184.025+440.745+187.065C435.052+203.379+433.696+220.682+433.762+237.905C433.838+257.722+433.133+278.11+434.853+297.858C436.912+321.498+441.826+344.992+443.357+368.665C444.754+390.274+442.613+412.091+443.32+433.75C444.666+475.016+451.03+515.778+453.747+556.908C457.168+608.689+462.219+661.106+482.571+709.722C505.142+763.637+552.985+810.483+619.198+793.786C689.115+776.156+678.089+699.782+680.086+646.828C681.532+608.468+683.929+569.681+683.662+531.288C683.286+477.092+669.589+421.835+659.779+368.745C654.469+340.014+646.366+312.297+637.44+284.461C632.346+268.577+628.074+251.034+619.451+236.404C598.285+200.49+559.979+168.01+516.832+159.396C504.525+156.94+485.474+152.242+472.887+156.784C467.601+158.691+458.907+161.698+454.733+165.482C453.684+166.433+451.585+168.336+451.585+168.336Z" fill="#ffffff" stroke-linecap="butt" opacity="1" stroke-linejoin="round"/>
<path stroke="#000000" stroke-width="1" d="M424.491+291.503C421.889+289.532+421.368+286.664+419.296+284.573C415.106+280.346+406.005+277.285+400.59+274.142C367.986+255.218+334.776+247.932+296.521+243.186C237.433+235.857+198.292+235.195+142.086+257.893C91.65+278.261+56.4893+319.146+29.9238+363.006C22.3789+375.462+15.5277+383.872+11.3914+397.611C3.74458+423.011+6.45756+454.971+14.2918+479.89C34.7248+544.882+97.1473+606.178+171.095+608.43C200.773+609.334+232.176+607.271+260.65+598.45C264.39+597.292+267.844+595.413+271.449+593.91C281.915+589.545+284.636+587.437+284.633+587.434C279.771+581.948+263.657+592.94+260.254+595.157C244.429+605.466+230.201+618.813+216.651+631.722C168.687+677.414+105.53+766.886+186.145+813.675C204.841+824.526+224.952+826.291+246.311+827.829C304.157+831.996+367.718+817.564+413.646+782.483C434.799+766.325+455.627+746.214+473.256+726.613C476.287+723.243+495.023+701.55+482.275+707.252" fill="#ffffff" stroke-linecap="butt" opacity="1" stroke-linejoin="round"/>
<path stroke="#000000" stroke-width="1" d="M640.274+249.936C630.908+255.794+652.601+227.788+653.203+226.802C661.48+213.253+670.744+199.599+681.673+187.752C716.288+150.23+767.227+123.475+817.399+111.719C844.617+105.341+873.931+100.656+901.985+103.962C1005.37+116.146+1092.33+199.321+1104.12+297.537C1113.72+377.425+1046.61+459.503+977.101+496.92C954.241+509.226+926.814+518.944+900.817+522.942C888.363+524.857+874.849+528.184+862.167+528.083C860.722+528.072+857.527+527.081+858.425+525.997C861.696+522.053+876.973+521.427+881.379+520.936C911.011+517.634+935.31+525.679+957.568+544.986C1000.21+581.979+1008.14+646.911+978.049+693.724C938.143+755.805+837.908+743.397+775.281+734.675C753.118+731.588+734.186+725.035+713.195+719.066C710.487+718.296+676.936+713.859+684.919+708.867" fill="#ffffff" stroke-linecap="butt" opacity="1" stroke-linejoin="round"/>
<path stroke="#000000" stroke-width="1" d="M445.182+420.193C448.847+450.707+451.338+483.781+458.177+513.862C462.68+533.669+466.512+554.993+467.315+575.421C468.831+614.003+471.029+656.323+478.97+694.27C481.129+704.583+484.801+713.757+486.073+724.35" fill="#ffffff" stroke-linecap="butt" opacity="1" stroke-linejoin="round"/>
<path stroke="#000000" stroke-width="1" d="M641.436+303.206C645.8+309.598+645.959+316.852+647.451+324.229C651.993+346.672+656.633+369.449+657.381+392.375C659.473+456.5+670.728+520.337+671.71+584.35C672.04+605.856+675.236+628.244+677.799+649.586C678.611+656.346+682.618+667.374+676.065+671.473" fill="#ffffff" stroke-linecap="butt" opacity="1" stroke-linejoin="round"/>
<path stroke="#000000" stroke-width="1" d="M475.272+242.041C478.394+227.203+456.298+263.717+477.101+257.272C495.699+251.511+481.21+226.834+466.978+238.376C458.527+245.229+463.872+265.652+476.932+263.132C493.372+259.96+487.313+229.344+470.027+234.699C456.081+239.019+468.405+268.728+482.564+259.167C493.061+252.079+486.44+226.646+472.709+235.234C461.307+242.365+470.57+262.476+483.792+254.858C490.775+250.835+492.647+236.986+481.052+239.311C474.136+240.697+468.012+253.195+477.666+254.706C488.062+256.335+484.449+239.803+481.25+240.957C478.685+241.883+477.955+247.609+477.933+249.67C477.922+250.776+477.933+254.003+478.329+252.964C478.801+251.724+478.28+241.288+481.25+240.957C484.427+240.603+479.567+255.902+474.588+250.878C465.674+241.884+490.09+237.341+480.714+251.029C477.386+255.889+472.939+253.125+475.272+242.041Z" fill="#ffffff" stroke-linecap="butt" opacity="1" stroke-linejoin="round"/>
<path stroke="#000000" stroke-width="1" d="M536.058+243.193C526.901+248.207+530.264+226.834+537.391+228.861C545.68+231.218+546.678+254.471+534.993+252.49C522.947+250.447+522.201+228.05+535.372+226.583C549.307+225.03+552.239+252.492+538.042+248.813C525.241+245.496+524.918+220.574+540.341+224.36C557.738+228.631+552.413+258.509+535.656+250.747C524.461+245.562+530.077+216.898+543.785+223.976C554.339+229.426+548.301+252.359+539.665+247.798C533.198+244.381+534.274+227.055+543.419+228.189C554.247+229.532+549.423+247.236+540.992+244.312C532.5+241.368+540.981+225.439+547.456+232.745C553.371+239.42+541.965+245.235+537.053+240.579C534.208+237.883+542.57+231.802+546.13+236.231C548.894+239.67+537.839+242.218+536.058+243.193Z" fill="#ffffff" stroke-linecap="butt" opacity="1" stroke-linejoin="round"/>
<path stroke="#000000" stroke-width="1" d="M483.273+294.131C480.74+299.472+482.067+305.887+482.766+311.709C485.483+334.333+498.595+355.353+526.163+346.088C543.726+340.186+560.026+326.598+563.541+308.549C564.377+304.254+564.192+294.145+562.989+289.42C562.33+286.833+556.289+277.231+557.229+285.055" fill="#ffffff" stroke-linecap="butt" opacity="1" stroke-linejoin="round"/>
<path stroke="#000000" stroke-width="1" d="M444.627+175.786C443.776+168.706+446.478+162.142+445.599+154.819C443.346+136.056+435.808+117.587+429.403+99.8869C413.253+55.2597+381.355+14.4751+325.683+35.5178C282.643+51.7863+268.667+94.1112+291.98+132.722C300.467+146.777+313.755+161.582+332.201+162.449C362.522+163.875+377.126+105.068+349.164+92.9754C322.844+81.5934+312.855+123.228+333.215+127.293C336.926+128.034+342.344+126.108+344.013+122.752C348.259+114.215+337.317+110.588+337.957+115.918" fill="#ffffff" stroke-linecap="butt" opacity="1" stroke-linejoin="round"/>
<path stroke="#000000" stroke-width="1" d="M527.066+157.422C488.219+100.53+514.45-19.6578+606.799+7.52937C642.749+18.1129+660.035+61.8814+648.676+94.6428C645.85+102.792+641.118+116.212+631.639+119.903C625.367+122.346+618.304+120.063+612.299+118.721C592.846+114.373+581.996+110.513+575.918+91.9037C573.123+83.3434+570.799+78.0225+574.971+69.4815C582.173+54.7385+602.891+58.1905+608.484+72.4219C615.987+91.5131+577.923+88.8798+595.201+78.0739" fill="#ffffff" stroke-linecap="butt" opacity="1" stroke-linejoin="round"/>
<path stroke="#000000" stroke-width="1" d="M415.629+326.7C409.22+327.414+393.288+320.9+387.748+319.794C371.861+316.623+355.082+314.244+338.904+312.722C296.581+308.74+248.319+313.332+207.719+324.837C191.488+329.437+177.087+341.172+163.692+350.602C134.571+371.103+114.096+398.095+108.107+432.723C100.229+478.268+134.21+528.068+183.723+531.93C215.019+534.371+243.251+523.197+272.388+514.54C306.87+504.296+341.744+496.971+375.07+483.073C392.904+475.636+410.185+468.685+428.401+462.112C433.911+460.124+438.031+455.198+444.07+454.525" fill="#ffffff" stroke-linecap="butt" opacity="1" stroke-linejoin="round"/>
<path stroke="#000000" stroke-width="1" d="M432.22+559.307C424.633+556.676+382.318+570.509+374.555+573.242C320.608+592.23+267.659+629.415+243.448+680.466C224.226+720.996+231.475+767.208+284.958+771.792C326.508+775.354+386.902+735.973+420.176+713.337C429.154+707.23+458.271+679.89+468.382+678.763" fill="#ffffff" stroke-linecap="butt" opacity="1" stroke-linejoin="round"/>
<path stroke="#000000" stroke-width="1" d="M667.961+306.091C667.011+298.174+684.3+287.016+689.501+281.997C713.233+259.096+742.072+244.422+773.548+233.416C823.731+215.868+893.365+197.049+944.244+216.063C995.281+235.137+1031.52+297.393+1019.61+349.507C1010.08+391.195+962.321+423.425+924.908+440.159C896.466+452.88+866.442+460.919+835.411+465.15C800.298+469.938+762.969+472.873+727.645+468.815C709.84+466.77+691.267+456.182+674.001+458.106" fill="#ffffff" stroke-linecap="butt" opacity="1" stroke-linejoin="round"/>
<path stroke="#000000" stroke-width="1" d="M679.629+577.627C713.332+565.466+758.191+569.635+791.997+575.952C816.639+580.557+840.739+588.158+862.158+600.674C890.627+617.309+945.419+657.866+894.167+685.549C885.964+689.98+885.966+690.278+876.677+692.505C832.358+703.13+766.694+696.805+723.017+684.597C711.893+681.487+662.839+666.679+665.941+652.576" fill="#ffffff" stroke-linecap="butt" opacity="1" stroke-linejoin="round"/>
<path stroke="#000000" stroke-width="1" d="M91.4414+330.285C91.7578+328.456+89.7443+324.433+88.2648+325.633C83.0973+329.824+79.3826+335.784+77.1281+341.893C70.8546+358.889+75.8898+391.394+102.936+382.403C121.133+376.355+137.524+348.371+125.618+331.483C117.777+320.361+92.6781+314.171+87.2348+331.588C86.8127+332.939+91.2009+331.676+91.4414+330.285Z" fill="#ffffff" stroke-linecap="butt" opacity="1" stroke-linejoin="round"/>
<path stroke="#000000" stroke-width="1" d="M55.9895+445.623C41.6062+460.622+37.9088+480.79+46.1402+498.034C49.5112+505.096+59.1636+514.73+68.7844+512.198C91.6763+506.173+103.211+475.01+92.4958+455.322C86.0853+443.543+68.5691+432.505+55.9895+445.623Z" fill="#ffffff" stroke-linecap="butt" opacity="1" stroke-linejoin="round"/>
<path stroke="#000000" stroke-width="1" d="M956.401+153.8C959.252+153.328+958.721+145.787+955.843+145.519C950.114+144.986+944.596+148.866+940.075+152.282C932.999+157.628+911.362+190.119+927.896+196.192C944.679+202.357+974.282+193.888+981.424+176.877C986.247+165.391+976.086+152.097+964.948+148.676C960.226+147.226+944.25+155.814+956.401+153.8Z" fill="#ffffff" stroke-linecap="butt" opacity="1" stroke-linejoin="round"/>
<path stroke="#000000" stroke-width="1" d="M1044.36+239.533C1046.84+246.662+1044.12+232.352+1036.79+238.29C1027.93+245.476+1026.76+250.426+1026.45+261.137C1026.05+275.06+1037.6+298.09+1056.34+292.015C1079.3+284.567+1088.12+257.98+1071.17+241.135C1068.2+238.181+1050.49+227.868+1046.44+231.375C1044.26+233.254+1043.44+236.88+1044.36+239.533Z" fill="#ffffff" stroke-linecap="butt" opacity="1" stroke-linejoin="round"/>
<path stroke="#000000" stroke-width="1" d="M218.142+745.863C210.716+728.727+197.535+741.787+193.862+754.409C189.696+768.727+191.775+799.997+212.514+800.724C238.37+801.63+248.593+757.268+233.345+741.666C225.625+733.766+209.259+731.126+201.752+740.18" fill="#ffffff" stroke-linecap="butt" opacity="1" stroke-linejoin="round"/>
<path stroke="#000000" stroke-width="1" d="M943.19+639.62C943.849+641.261+948.969+641.82+947.51+642.893C944.522+645.092+938.711+640.614+936.217+643.317C932.15+647.726+927.908+652.333+925.744+657.834C920.632+670.827+921.63+697.394+943.11+693.445C965.698+689.293+987.789+660.168+969.038+640.494C963.564+634.751+937.034+624.273+943.19+639.62Z" fill="#ffffff" stroke-linecap="butt" opacity="1" stroke-linejoin="round"/>
<path stroke="#000000" stroke-width="1" d="M467.08+464.477C494.147+491.786+571.993+478.038+603.39+465.974C611.442+462.881+618.266+457.1+624.296+451.129C629.661+445.816+631.618+424.312+626.257+438.395" fill="#ffffff" stroke-linecap="butt" opacity="1" stroke-linejoin="round"/>
<path stroke="#000000" stroke-width="1" d="M486.61+539.896C488.543+555.993+517.813+561.103+530.147+560.91C555.611+560.512+591.506+549.489+612.656+535.863C614.742+534.519+637.97+516.54+626.644+514.279" fill="#ffffff" stroke-linecap="butt" opacity="1" stroke-linejoin="round"/>
<path stroke="#000000" stroke-width="1" d="M490.132+634.621C515.047+665.617+570.046+665.741+604.478+649.413C618.478+642.774+626.323+630.794+637.776+621.506" fill="#ffffff" stroke-linecap="butt" opacity="1" stroke-linejoin="round"/>
<path stroke="#000000" stroke-width="16.2" d="M430.509+290.306C428.294+283.661+412.966+279.19+407.328+275.665C378.946+257.927+348.046+251.856+315.214+246.384C273.94+239.505+229.174+240.085+187.719+246.994C172.172+249.585+154.933+247.786+140.137+253.704C90.9121+273.394+53.8874+304.808+30.3324+351.918C21.0109+370.561+10.6465+387.07+7.15145+408.041C-0.971207+456.777+14.884+506.212+43.7529+545.906C58.3215+565.938+77.391+586.647+102.315+592.878C120.994+597.548+139.544+597.592+158.438+600.198C170.595+601.875+182.13+603.211+194.429+603.859C199.819+604.142+206.185+602.794+211.51+603.859C215.962+604.749+221.463+605.86+226.15+605.079C243.967+602.109+260.923+595.82+278.612+591.658C278.781+591.618+293.253+588.066+293.253+590.438C293.253+592.279+289.51+590.466+287.763+591.048C283.41+592.499+279.68+592.421+275.562+594.708C259.576+603.59+240.988+606.761+226.15+617.889C182.792+650.408+138.722+700.731+144.407+757.585C145.759+771.102+149.554+786.522+159.658+796.626C185.832+822.8+235.512+827.985+270.682+824.077C285.175+822.467+299.498+821.619+313.994+819.807C330.804+817.706+347.273+810.156+362.796+803.947C370.656+800.802+379.322+799.776+387.197+796.626C395.408+793.342+403.533+787.255+410.988+782.596C424.853+773.93+434.402+760.401+445.759+749.044C458.459+736.344+471.111+723.961+479.31+707.563" fill="#ffffff" stroke-linecap="butt" opacity="1" stroke-linejoin="round"/>
<path stroke="#000000" stroke-width="16.2" d="M631.817+253.704C635.588+248.047+640.184+239.237+645.237+234.184C653.66+225.761+665.076+219.856+673.908+211.613C678.503+207.324+681.256+201.541+685.499+196.972C695.16+186.568+705.179+176.459+716+167.081C728.522+156.229+752.985+137.468+768.462+132.31C803.82+120.524+841.641+115.158+878.877+112.179C910.707+109.632+951.361+103.213+981.361+117.059C1005.05+127.994+1021.94+150.313+1039.92+168.301C1063.5+191.882+1083.93+212.762+1096.05+244.554C1104.53+266.82+1105.22+303.261+1103.98+326.907C1103.13+342.896+1097+356.853+1091.17+371.439C1073.77+414.927+1051.97+432.944+1014.91+459.893C996.39+473.363+979.009+486.271+958.18+495.884C936.346+505.961+910.901+510.708+887.417+515.405C879.958+516.897+872.316+517.571+864.846+519.065C862.361+519.562+859.889+520.107+857.526+520.895C856.121+521.363+852.209+521.069+853.256+522.115C854.216+523.075+879.315+520.348+880.707+520.285C899.503+519.431+920.955+526.103+938.049+533.096C986.813+553.045+999.836+617.164+991.121+663.641C988.529+677.463+985.069+690.762+975.26+701.463C958.427+719.826+935.342+724.807+912.428+731.354C881.401+740.219+849.195+746.667+816.654+744.164C799.691+742.859+783.453+736.696+766.632+735.014C755.053+733.856+742.945+729.799+731.861+726.474C722.626+723.703+713.119+723.48+703.8+720.373C697.014+718.112+689.678+716.5+683.059+713.663C679.795+712.264+673.298+709.393+673.298+709.393C673.298+709.393+675.635+710.892+676.958+711.223" fill="#ffffff" stroke-linecap="butt" opacity="1" stroke-linejoin="round"/>
<path stroke="#000000" stroke-width="16.2" d="M447.894+173.486C448.963+172.702+451.369+170.031+451.249+171.351C450.852+175.724+443.223+184.883+441.489+189.652C436.28+203.978+430.597+217.009+428.678+232.354C423.137+276.686+423.754+323.67+426.238+368.389C428.608+411.05+438.597+451.833+448.199+493.444C454.416+520.383+457.423+548.102+462.84+575.187C470.381+612.894+472.724+651.819+477.48+689.872C480.02+710.19+479.974+733.274+490.901+751.485C507.091+778.468+552.242+791.359+580.575+795.406C596.396+797.666+611.917+797.484+627.546+793.576C686.164+778.922+675.955+716.268+672.078+669.741C669.751+641.82+658.637+616.588+651.947+589.828C648.732+576.968+648.419+563.257+646.457+550.176C641.511+517.203+633.498+485.584+631.817+451.962C631.063+436.892+632.932+421.833+633.647+406.821C634.498+388.941+631.764+370.955+633.037+353.138C634.129+337.85+635.968+322.199+634.867+306.777C633.109+282.174+623.997+255.173+614.126+232.964C606.149+215.015+590.823+201.487+576.304+189.042C569.594+183.29+564.826+177.202+556.784+173.181C540.719+165.149+518.694+160.81+501.271+156.711C486.289+153.185+469.37+157.485+455.52+163.421C451.468+165.157+447.141+167.882+444.539+171.351C443.537+172.688+444.059+174.141+443.319+175.621C442.912+176.435+441.335+178.555+442.099+178.061C444.165+176.724+445.909+174.942+447.894+173.486Z" fill="#ffffff" stroke-linecap="butt" opacity="1" stroke-linejoin="round"/>
<path stroke="#000000" stroke-width="16.2" d="M524.452+150C524.452+138.277+519.077+127.444+518.352+115.839C517.535+102.767+521.924+90.047+524.452+77.4074C526.296+68.1877+526.892+57.8871+531.163+49.3462C538.717+34.2365+553.911+15.3513+570.204+9.08461C594.638-0.313082+624.132+14.9956+636.697+36.5357C645.944+52.3887+652.223+75.0839+647.677+93.268C642.632+113.45+620.75+118.319+603.755+115.229C599.136+114.389+594.411+115.09+590.335+112.179C574.763+101.056+570.057+78.2969+586.675+66.4269C590.422+63.7504+592.01+62.1374+597.045+62.7668C612.111+64.65+618.118+84.7277+603.755+84.7277" fill="#ffffff" stroke-linecap="butt" opacity="1" stroke-linejoin="round"/>
<path stroke="#000000" stroke-width="16.2" d="M447.589+159.151C453.129+148.07+444.4+121.643+439.659+111.569C436.293+104.417+434.9+95.5845+430.509+88.9978C413.936+64.1384+393.492+32.5065+360.356+30.4355C338.781+29.0871+306.403+36.8742+292.033+54.8365C269.997+82.3817+270.079+142.44+303.013+162.201C335.056+181.426+371.502+133.706+355.475+104.858C342.614+81.7078+309.606+113.892+321.314+125.599" fill="#ffffff" stroke-linecap="butt" opacity="1" stroke-linejoin="round"/>
<path stroke="#000000" stroke-width="16.2" d="M474.43+275.055C468.909+276.632+473.171+263.032+477.48+265.905C481.31+268.458+481.757+282.305+477.48+284.206C468.488+288.202+459.357+272.674+465.28+265.905C475.827+253.851+488.69+279.499+475.65+285.426C468.764+288.556+459.795+276.881+465.28+271.395C467.654+269.021+480.189+273.41+474.43+275.055Z" fill="#ffffff" stroke-linecap="butt" opacity="1" stroke-linejoin="round"/>
<path stroke="#000000" stroke-width="16.2" d="M551.903+271.7C551.038+273.036+548.288+275.286+547.633+273.835C546.043+270.314+546.411+265.91+547.633+262.245C548.936+258.338+554.611+252.767+559.224+255.535C570.079+262.048+557.161+285.663+550.683+278.105C544.254+270.605+545.132+252.036+558.614+254.925C567.767+256.886+567.096+272.662+561.054+277.495C550.297+286.101+557.702+262.756+551.903+271.7Z" fill="#ffffff" stroke-linecap="butt" opacity="1" stroke-linejoin="round"/>
<path stroke="#000000" stroke-width="16.2" d="M478.7+338.498C481.756+372.114+521.541+388.193+549.463+371.439C559.651+365.327+574.609+352.87+579.965+342.158C582.61+336.868+583.015+332.055+583.015+326.297C583.015+325.543+582.405+315.812+582.405+320.807" fill="#ffffff" stroke-linecap="butt" opacity="1" stroke-linejoin="round"/>
<path stroke="#000000" stroke-width="16.2" d="M568.374+315.317C577.079+317.493+585.276+321.067+593.995+323.247" fill="#ffffff" stroke-linecap="butt" opacity="1" stroke-linejoin="round"/>
<path stroke="#000000" stroke-width="16.2" d="M464.06+343.988C465.089+341.93+489.976+333.519+495.171+331.788" fill="#ffffff" stroke-linecap="butt" opacity="1" stroke-linejoin="round"/>
<path stroke="#000000" stroke-width="16.2" d="M450.836+469.574C459.285+471.264+466.475+475.525+475.15+477.056C510.845+483.355+549.773+479.03+583.629+467.081C588.92+465.213+622.798+448.16+619.789+442.143" fill="#ffffff" stroke-linecap="butt" opacity="1" stroke-linejoin="round"/>
<path stroke="#000000" stroke-width="16.2" d="M473.28+561.22C477.78+562.72+481.328+566.359+485.749+568.078C513.102+578.715+559.728+568.006+586.747+559.974C600.556+555.868+611.059+548.885+621.659+539.4C624.036+537.274+634.816+524.309+631.635+530.672" fill="#ffffff" stroke-linecap="butt" opacity="1" stroke-linejoin="round"/>
<path stroke="#000000" stroke-width="16.2" d="M486.372+654.737C498.499+654.737+512.729+660.976+524.402+664.088C548.456+670.503+601.059+652.397+620.413+641.645C627.546+637.681+632.959+631.693+639.739+627.305C645.987+623.263+659.208+619.54+662.807+612.343" fill="#ffffff" stroke-linecap="butt" opacity="1" stroke-linejoin="round"/>
<path stroke="#000000" stroke-width="16.2" d="M420.345+326.775C402.828+318.016+376.419+318.182+357.544+316.924C278.686+311.667+220.022+334.701+158.674+383.419C133.598+403.332+83.8138+440.262+112.496+475.774C127.04+493.78+147.314+503.592+168.525+511.484C234.241+535.937+305.445+521.278+368.627+496.708C382.74+491.219+397.449+484.615+410.494+477.005C417.07+473.17+426.461+461.613+434.507+461.613" fill="#ffffff" stroke-linecap="butt" opacity="1" stroke-linejoin="round"/>
<path stroke="#000000" stroke-width="16.2" d="M446.82+576.748C429.304+576.748+402.812+590.802+385.866+596.451C339.131+612.029+297.571+631.421+257.801+660.483C240.916+672.822+219.088+697.681+233.173+719.59C245.794+739.223+269.489+737.606+290.433+736.83C306.25+736.244+321.439+730.772+336.611+726.979C363.395+720.283+388.016+714.206+412.957+701.735C426.516+694.956+446.051+689.169+457.287+678.954C461.758+674.89+465.838+670.728+469.601+666.025C470.507+664.892+474.627+660.433+472.064+661.715" fill="#ffffff" stroke-linecap="butt" opacity="1" stroke-linejoin="round"/>
<path stroke="#000000" stroke-width="16.2" d="M643.228+287.37C643.228+278.726+656.861+271.655+661.699+265.205C669.48+254.831+682.829+248.407+694.331+243.04C709.855+235.796+723.668+225.616+739.277+218.412C782.058+198.667+827.026+180.878+875.346+182.086C890.935+182.476+905.94+187.04+920.908+190.706C934.921+194.137+950.298+195.65+962.776+203.635C1009.44+233.503+1023.82+295.803+999.718+344.014C996.605+350.239+991.312+354.933+986.788+360.023C964.16+385.478+938.762+401.018+906.747+412.357C871.02+425.01+834.489+431.994+797.153+438.216C758.926+444.587+716.082+452.406+677.092+446.836C668.316+445.582+660.928+442.026+653.079+440.063C647.964+438.785+641.898+440.629+637.071+438.216" fill="#ffffff" stroke-linecap="butt" opacity="1" stroke-linejoin="round"/>
<path stroke="#000000" stroke-width="16.2" d="M652.464+552.736C669.729+552.736+688.798+543.79+706.029+542.269C765.522+537.02+815.149+542.542+866.111+575.517C881.303+585.347+914.071+595.885+912.904+619.232C911.93+638.706+887.658+651.454+871.652+656.789C829.215+670.935+784.325+662.643+741.124+660.483C724.543+659.654+708.376+656.121+691.868+654.942C689.591+654.779+664.254+650.016+671.55+650.016" fill="#ffffff" stroke-linecap="butt" opacity="1" stroke-linejoin="round"/>
<path stroke="#000000" stroke-width="16.2" d="M119.885+304.918C123.12+303.607+112.23+303.158+109.418+305.225C103.104+309.868+96.4244+324.81+95.2568+332.316C91.7488+354.868+111.768+372.241+134.046+366.795C157.271+361.118+172.104+339.616+162.984+316.308C156.883+300.718+135.889+288.423+119.269+297.221C114.576+299.706+115.451+306.714+119.885+304.918Z" fill="#ffffff" stroke-linecap="butt" opacity="1" stroke-linejoin="round"/>
<path stroke="#000000" stroke-width="16.2" d="M61.3934+439.448C62.1847+440.647+62.7776+435.522+61.3934+435.138C57.8121+434.143+53.0345+433.84+50.3108+436.369C36.9875+448.741+43.8632+479.855+63.2405+482.547C84.5363+485.504+90.5818+450.859+80.48+437.601C77.3765+433.527+57.7439+433.918+61.3934+439.448Z" fill="#ffffff" stroke-linecap="butt" opacity="1" stroke-linejoin="round"/>
<path stroke="#000000" stroke-width="16.2" d="M972.011+134.061C970.78+133.035+969.9+130.73+968.317+130.983C959.019+132.471+948.716+133.28+941.226+138.987C934.725+143.94+931.063+152.508+929.528+160.536C928.235+167.298+929.926+174.811+933.222+180.854C935.295+184.655+940.139+186.448+944.305+187.627C951.261+189.596+958.628+190.331+965.854+190.09C988.367+189.339+1016.83+168.394+1004.64+143.297C998.224+130.08+960.929+117.73+960.929+139.603" fill="#ffffff" stroke-linecap="butt" opacity="1" stroke-linejoin="round"/>
<path stroke="#000000" stroke-width="16.2" d="M1046.82+278.443C1050.59+281.52+1039.67+269.814+1034.81+270.131C1029.4+270.484+1024.37+274.193+1020.65+278.135C1008.18+291.339+1011.1+313.7+1026.19+323.081C1034.79+328.424+1046.58+325.739+1055.13+323.081C1072.95+317.538+1082.11+299.792+1070.52+283.676C1067.31+279.203+1036.68+270.173+1046.82+278.443Z" fill="#ffffff" stroke-linecap="butt" opacity="1" stroke-linejoin="round"/>
<path stroke="#000000" stroke-width="16.2" d="M944.92+641.397C943.073+640.165+941.508+637.072+939.379+637.703C929.523+640.623+918.942+643.979+911.673+651.248C906.669+656.252+905.715+664.492+905.516+671.566C905.142+684.834+908.417+698.408+920.908+704.814C939.831+714.518+973.317+696.841+972.011+674.644C970.833+654.618+948.952+649.56+933.222+646.938" fill="#ffffff" stroke-linecap="butt" opacity="1" stroke-linejoin="round"/>
<path stroke="#000000" stroke-width="16.2" d="M211.624+739.908C213+738.991+213.888+734.84+212.239+734.983C206.923+735.445+200.647+736.858+197.463+741.14C193.859+745.986+194.183+752.959+194.384+758.995C194.876+773.757+201.478+791.179+217.781+794.09C223.411+795.095+231.455+789.036+234.405+786.086C244.115+776.375+249.342+764.078+243.024+750.991C238.9+742.447+228.967+738.144+220.244+737.446C216.513+737.147+212.269+737.384+208.545+738.061C207.907+738.177+206.142+738.343+206.698+738.677C208.149+739.548+210.216+740.847+211.624+739.908Z" fill="#ffffff" stroke-linecap="butt" opacity="1" stroke-linejoin="round"/>
</g>
</svg>