<?xml version="1.0" encoding="iso-8859-1"?>
<!-- Generator: Adobe Illustrator 19.0.0, SVG Export Plug-In . SVG Version: 6.00 Build 0)  -->
<svg version="1.1" id="Layer_1" xmlns="http://www.w3.org/2000/svg" xmlns:xlink="http://www.w3.org/1999/xlink" x="0px" y="0px"
	 viewBox="0 0 512 512" style="enable-background:new 0 0 512 512;" xml:space="preserve">
<g>
	<g>
		<path d="M511.886,454.108c-0.462-2.751-11.341-65.281-48.955-91.179c0.987-19.289-2.507-86.168-78.91-198.602
			c-1.552-8.263-7.87-51.099,23.574-69.134c4.917-2.82,7.744-8.096,7.375-13.766c-0.373-5.753-3.917-10.693-9.247-12.891
			c-12.362-5.098-47.451-7.841-93.923,16.683c-9.113-6.443-31.441-20.435-64.262-29.274c-4.423-1.188-8.985,1.431-10.178,5.86
			c-1.193,4.428,1.431,8.985,5.86,10.178c39.143,10.542,62.369,29.302,62.587,29.48c2.641,2.179,6.347,2.512,9.335,0.843
			c23.763-13.284,43.232-18.05,55.382-19.711c11.339-1.547,20.112-0.964,25.446,0.255c-17.029,11.173-27.25,29.363-29.64,52.864
			c-1.848,18.183,1.663,33.207,1.814,33.839c0.235,0.985,0.648,1.919,1.219,2.756c45.202,66.22,63.633,115.375,71.136,144.951
			c8.091,31.892,5.534,48.404,5.516,48.513c-0.615,3.448,1.002,6.911,4.039,8.655c21.583,12.399,33.906,41.292,40.135,61.347
			c-40.908-25.79-79.621-30.599-101.572-30.83c18.179-21.024,37.602-28.32,37.81-28.396c2.434-0.869,4.324-2.825,5.112-5.286
			c0.788-2.461,0.385-5.15-1.09-7.272c-22.653-32.586-48.109-61.543-75.66-86.068c-3.427-3.048-8.675-2.745-11.725,0.682
			c-3.049,3.426-2.745,8.674,0.681,11.725c24.301,21.63,46.936,46.872,67.381,75.128c-11.479,6.24-30.972,19.588-46.718,44.26
			c-1.755,2.75-1.728,6.273,0.055,9.005c1.784,2.734,5.009,4.163,8.236,3.667c0.634-0.097,63.878-9.23,125.853,39.618
			c1.499,1.18,3.316,1.782,5.142,1.782c1.457,0,2.92-0.383,4.231-1.159C510.881,460.877,512.453,457.493,511.886,454.108z"/>
	</g>
</g>
<g>
	<g>
		<path d="M332.209,259.148c-23.85-18.485-49.536-34.25-76.371-46.901c-6.482-9.465-13.173-21.725-16.576-37.635
			c-0.959-4.484-5.369-7.341-9.857-6.384c-4.484,0.959-7.343,5.372-6.384,9.857c4.199,19.638,12.728,34.49,20.35,45.317
			c0.104,0.156,0.209,0.311,0.324,0.461c2.86,4.034,5.586,7.516,7.887,10.444c0.964,1.226,2.021,2.571,2.977,3.833
			c-50.706,4.468-76.243-83.233-76.576-84.4c-1.246-4.413-5.835-6.98-10.246-5.739c-4.415,1.246-6.983,5.834-5.738,10.248
			c0.19,0.673,3.202,11.202,9.27,25.074c-36.312-8.096-73.688-11.237-111.348-9.342c-14.534,0.731-24.181-0.138-30.57-1.504
			c19.491-1.468,48.305-6.176,69.331-20.625c3.78-2.598,4.739-7.767,2.141-11.547c-2.596-3.781-7.766-4.74-11.547-2.143
			c-17.994,12.364-43.962,16.442-61.524,17.739c5.569-3.635,12.559-7.554,19.527-10.794c2.317-1.076,4.01-3.16,4.59-5.648
			c9.884-42.445,56.443-59.821,56.922-59.996c34.497-12.519,69.009-17.035,102.57-13.438c4.561,0.493,8.654-2.81,9.143-7.371
			c0.489-4.56-2.81-8.653-7.371-9.143c-36.101-3.875-73.112,0.95-109.984,14.33c-2.202,0.792-52.786,19.482-66.452,67.943
			c-3.542,1.771-9.245,4.748-15.005,8.289C7.104,149.042,0.394,156.477,0.033,164.07c-0.008,0.094-0.022,0.187-0.027,0.282
			c-0.002,0.064,0.002,0.127,0.001,0.192C0.009,164.603,0,164.661,0,164.719c0,0.081,0.011,0.158,0.012,0.238
			c0.004,0.146,0.01,0.29,0.022,0.434c0.173,5.455,2.418,10.409,6.564,14.35c9.109,8.662,26.825,12.203,54.16,10.826
			c22.161-1.116,44.217-0.399,65.996,2.099c4.709,11.291,23.674,51.592,59.802,66.497c3.029,1.251,6.18,1.872,9.275,1.872
			c3.703,0,7.328-0.89,10.573-2.657c5.561-3.027,9.152-7.922,10.391-14.158c10.706,7.081,22.101,10.698,33.966,10.698
			c2.649,0,5.32-0.179,8.013-0.54c3.47-0.466,11.597-1.556,14.425-8.52c0.77-1.897,0.991-3.718,0.795-5.528
			c16.663,9.409,32.743,20.092,48.04,31.947c1.514,1.174,3.304,1.741,5.081,1.741c2.479,0,4.934-1.106,6.57-3.217
			C336.495,267.174,335.834,261.958,332.209,259.148z M198.463,243.792c-1.517,0.826-3.599,0.834-5.572,0.019
			c-23.615-9.743-39.048-33.949-46.491-48.4c11.613,1.927,23.129,4.376,34.525,7.336c1.066,1.89,2.172,3.786,3.333,5.679
			c4.007,6.542,8.205,12.407,12.569,17.594c0.06,0.149,0.113,0.301,0.182,0.45C199.029,230.815,203.215,241.206,198.463,243.792z"/>
	</g>
</g>
<g>
	<g>
		<path d="M116.745,103.748c-5.267,0-9.552,4.278-9.552,9.537s4.285,9.536,9.552,9.536c5.267,0,9.552-4.277,9.552-9.536
			S122.012,103.748,116.745,103.748z"/>
	</g>
</g>
<g>
</g>
<g>
</g>
<g>
</g>
<g>
</g>
<g>
</g>
<g>
</g>
<g>
</g>
<g>
</g>
<g>
</g>
<g>
</g>
<g>
</g>
<g>
</g>
<g>
</g>
<g>
</g>
<g>
</g>
</svg>
