<svg width="84" height="100" viewBox="0 0 84 139" fill="none" xmlns="http://www.w3.org/2000/svg">
<path d="M24.0257 11.5475C18.0257 15.0475 32.5258 71.0475 31.0258 76.0475C29.5258 81.0475 1.02571 51.0474 2.02563 58.0475C3.02556 65.0476 15.3228 88.9708 28.0256 103.547C37.0102 113.857 42.0258 110.048 43.5257 113.047C45.0257 116.047 43.5257 136.547 43.5257 136.547H68.5257C68.5257 136.547 67.0257 116.547 68.5257 113.047C70.0258 109.548 74.3909 111.638 77.5256 97.5474C82.1546 76.7402 84.0256 28.0474 80.0256 24.5474C76.0256 21.0474 73.5257 59.0475 68.5257 58.0475C63.5257 57.0475 66.0257 7.54732 60.0257 8.04739C54.0257 8.54745 60.5258 50.5475 55.5258 58.0475C55.5258 58.0475 49.5257 4.04732 43.5257 2.04738C37.5257 0.0474439 45.0258 62.0475 41.0258 58.0475C41.0258 58.0475 30.0257 8.04746 24.0257 11.5475Z" stroke="black" stroke-width="3"/>
</svg>