<svg width="100" height="100" viewBox="0 0 181 194" fill="none" xmlns="http://www.w3.org/2000/svg">
<ellipse cx="84.5" cy="108.5" rx="17.5" ry="18.5" fill="black"/>
<circle cx="51.5" cy="139.5" r="12.5" fill="black"/>
<circle cx="79.5" cy="160.5" r="12.5" fill="black"/>
<circle cx="146.5" cy="95.5" r="12.5" fill="black"/>
<circle cx="134.5" cy="61.5" r="12.5" fill="black"/>
<circle cx="103.5" cy="43.5" r="12.5" fill="black"/>
<circle cx="115.5" cy="151.5" r="12.5" fill="black"/>
<circle cx="138.5" cy="126.5" r="12.5" fill="black"/>
<path d="M30.0002 159C16.3583 136.39 18.03 112.53 34.0002 91.5C46.5695 74.9484 81.5002 86.6357 81.5002 67.5C81.5002 48.3643 73.0002 30 81.5002 18.5C90.0002 7.00003 110.37 12.2418 127 18.5C147.815 26.3331 156.445 39.917 166 60C173.371 75.4924 176.074 85.8772 175 103C173.691 123.882 167.835 136.377 154.5 152.5C139.646 170.461 126.463 179.505 103.5 183.5C73.6918 188.686 45.6308 184.906 30.0002 159Z" stroke="black" stroke-width="3"/>
</svg>