<svg width="106" height="130" viewBox="0 0 106 85" fill="none" xmlns="http://www.w3.org/2000/svg">
<path d="M5.00015 41.0001C-1.49991 45.2606 3.50015 58.0001 3.50015 58.0001L15.0001 83.0001H51.0001L57.0001 53.0001C57.0001 53.0001 57 41 48 37C45.4064 37 43.0697 37.5975 41 38.5343M5.00015 41.0001C17.5001 39.0001 29.5 49.791 29.5 49.791C29.5 49.791 33.4939 41.9317 41 38.5343M5.00015 41.0001C28.2363 25.7696 59.5 4.49998 64.5001 2.00009C69.5003 -0.499795 77.0001 11.5001 77.0001 11.5001M77.0001 11.5001C77.0001 11.5001 89.5 3.5 95.0001 4.50009C101.5 2.00009 103.5 15 103.5 15L97.0001 39.0001L53.0001 83.0001M77.0001 11.5001L41 38.5343" stroke="black" stroke-width="3"/>
</svg>
