<svg width="122" height="70" viewBox="0 0 122 70" fill="none" xmlns="http://www.w3.org/2000/svg">
<path d="M2.5 44.5L5.5 57H11.5V44.5H2.5Z" fill="#C4C4C4"/>
<path d="M114.5 13.5L119.5 10L114.5 3L109 6.5L114.5 13.5Z" fill="#C4C4C4"/>
<path d="M11.5 57H5.5L2.5 44.5H11.5M11.5 57C11.5 57 52.731 74.5802 76 64.5C98.8983 54.5803 114.5 13.5 114.5 13.5M11.5 57V44.5M114.5 13.5L119.5 10L114.5 3L109 6.5M114.5 13.5L109 6.5M109 6.5C109 6.5 83.9153 26.9476 65 34.5C45.2604 42.3815 11.5 44.5 11.5 44.5" stroke="black" stroke-width="3"/>
</svg>