<?xml version="1.0" encoding="iso-8859-1"?>
<!-- Generator: Adobe Illustrator 19.0.0, SVG Export Plug-In . SVG Version: 6.00 Build 0)  -->
<svg version="1.1" id="Capa_1" xmlns="http://www.w3.org/2000/svg" xmlns:xlink="http://www.w3.org/1999/xlink" x="0px" y="0px"
	 viewBox="0 0 512 512" style="enable-background:new 0 0 512 512;" xml:space="preserve">
<g>
	<g>
		<circle cx="204.8" cy="162.133" r="17.067"/>
	</g>
</g>
<g>
	<g>
		<circle cx="307.2" cy="162.133" r="17.067"/>
	</g>
</g>
<g>
	<g>
		<path d="M252.74,196.267l10.888-21.777l-15.266-7.637l-17.067,34.133c-1.323,2.645-1.178,5.786,0.375,8.303
			c1.562,2.509,4.301,4.045,7.262,4.045h25.6v-17.067H252.74z"/>
	</g>
</g>
<g>
	<g>
		<path d="M354.987,138.24c-32.077-24.064-56.977-73.301-57.225-73.796c-1.34-2.679-3.977-4.454-6.963-4.685
			c-3.038-0.239-5.879,1.118-7.612,3.55c-41.114,57.557-124.612,108.075-125.448,108.578c-2.765,1.664-4.361,4.753-4.113,7.97
			l2.048,26.633c4.019,51.652,47.744,92.143,99.558,92.177c52.779-0.009,96.555-41.284,99.652-93.961l3.499-59.136
			C358.562,142.711,357.282,139.955,354.987,138.24z M337.843,203.708c-2.577,43.665-38.869,77.884-82.611,77.892
			c-42.957-0.034-79.215-33.604-82.543-76.433l-1.647-21.436c17.254-10.829,78.839-51.243,117.914-99.814
			c9.429,16.341,28.433,45.884,52.122,65.118L337.843,203.708z"/>
	</g>
</g>
<g>
	<g>
		<path d="M256,0c-70.579,0-128,57.421-128,128v62.711c-0.026,18.193-6.17,36.122-17.314,50.483l-5.726,7.356
			c-23.159,33.161-27.119,76.604-10.325,113.391l15.531-7.083c-14.293-31.317-10.931-68.309,8.525-96.171l5.47-7.014
			c13.457-17.348,20.89-38.989,20.907-60.954V128c0-61.167,49.766-110.933,110.933-110.933S366.933,66.833,366.933,128v25.6H384V128
			C384,57.421,326.579,0,256,0z"/>
	</g>
</g>
<g>
	<g>
		<path d="M404.139,244.873c-12.655-16.307-19.806-36.651-20.139-57.284l-17.067,0.273c0.393,24.303,8.815,48.265,23.731,67.482
			c21.393,27.511,26.163,64.503,12.467,96.503l-1.365,3.157l15.667,6.784l1.374-3.191
			C434.953,320.853,429.338,277.274,404.139,244.873z"/>
	</g>
</g>
<g>
	<g>
		<path d="M358.4,136.533h-8.533V153.6h8.533c9.412,0,17.067,7.654,17.067,17.067c0,9.412-7.654,17.067-17.067,17.067h-8.533V204.8
			h8.533c18.825,0,34.133-15.309,34.133-34.133S377.225,136.533,358.4,136.533z"/>
	</g>
</g>
<g>
	<g>
		<path d="M277.786,222.763c-9.984,5-21.171,7.637-32.341,7.637c-0.009,0-0.017,0-0.026,0h-6.485v17.067h6.485
			c0.008,0,0.017,0,0.026,0c13.807,0,27.631-3.26,39.979-9.438L277.786,222.763z"/>
	</g>
</g>
<g>
	<g>
		<path d="M316.86,328.568L256,435.063l-60.86-106.496l-14.814,8.465l68.267,119.467c1.519,2.662,4.343,4.301,7.407,4.301
			s5.888-1.638,7.407-4.301l68.267-119.467L316.86,328.568z"/>
	</g>
</g>
<g>
	<g>
		<path d="M204.723,281.6v36.079c0.026,4.326-3.183,7.996-7.458,8.533l-61.798,7.68c-38.323,4.83-67.209,37.598-67.2,76.22V512
			h17.067V410.112c-0.008-30.046,22.46-55.535,52.267-59.29l61.79-7.68c12.868-1.604,22.502-12.612,22.4-25.532V281.6H204.723z"/>
	</g>
</g>
<g>
	<g>
		<path d="M376.516,333.892l-61.773-7.68c-4.284-0.538-7.492-4.207-7.458-8.602V281.6h-17.067v35.951
			c-0.102,12.979,9.532,23.996,22.417,25.6l61.764,7.68c29.807,3.746,52.275,29.235,52.267,59.281V512h17.067V410.112
			C443.742,371.482,414.848,338.714,376.516,333.892z"/>
	</g>
</g>
<g>
	<g>
		<rect x="170.667" y="332.8" width="17.067" height="179.2"/>
	</g>
</g>
<g>
	<g>
		<rect x="324.267" y="332.8" width="17.067" height="179.2"/>
	</g>
</g>
<g>
</g>
<g>
</g>
<g>
</g>
<g>
</g>
<g>
</g>
<g>
</g>
<g>
</g>
<g>
</g>
<g>
</g>
<g>
</g>
<g>
</g>
<g>
</g>
<g>
</g>
<g>
</g>
<g>
</g>
</svg>
