<svg width="155" height="114" viewBox="0 0 155 114" fill="none" xmlns="http://www.w3.org/2000/svg">
<path d="M64.0236 69.9092C64.4622 71.7368 65.0991 73.5219 65.6221 75.3277C65.7187 75.6612 65.8383 76.2759 66.1311 76.5154C66.583 76.8851 66.4707 75.1203 66.466 75.0218C66.3963 73.5725 65.9585 72.2653 65.5506 70.896C65.5447 70.8761 65.4175 70.2711 65.5752 70.3803C65.9858 70.6646 66.1752 71.4257 66.3209 71.8627C66.6579 72.8737 66.935 73.9037 67.2117 74.9325C67.3916 75.6015 67.4308 76.3133 67.6805 76.9597C67.8743 77.4612 67.7166 76.8041 67.6894 76.6293C67.5348 75.6335 67.6188 74.6097 67.56 73.6064C67.535 73.1797 67.3379 72.186 67.6225 71.798C67.6791 71.7207 67.8159 72.1294 67.8234 72.1552C67.9695 72.6587 68.0114 73.2057 68.0623 73.7247C68.2011 75.1389 68.1809 76.598 68.5244 77.9844C68.7877 79.0469 69.0437 77.2269 69.0625 76.9664C69.1279 76.0574 69.0501 75.1589 68.9754 74.2538C68.9378 73.7984 68.9081 73.3427 68.8682 72.8875C68.8512 72.6932 68.7169 72.1646 68.8549 72.3025C68.9656 72.4133 68.9999 72.8942 69.0245 73.017C69.148 73.6323 69.2306 74.2504 69.3103 74.8722C69.4619 76.0547 69.6122 77.2347 69.8461 78.4042C69.8603 78.4749 70.1245 79.59 70.2033 79.3173C70.5194 78.2233 70.2617 76.8008 70.1721 75.6827C70.0992 74.774 69.8268 73.5264 70.1631 72.6374C70.24 72.4344 70.3443 72.6589 70.373 72.758C70.538 73.3281 70.5985 73.9455 70.6856 74.5306C70.9251 76.1412 71.1084 77.7809 71.4759 79.3686C71.7398 80.5085 71.5912 78.4334 71.5831 78.1898C71.5367 76.7991 71.4389 75.4062 71.4245 74.0149C71.4193 73.5057 71.4319 72.9814 71.5072 72.4767C71.5104 72.4548 71.6016 71.9486 71.6858 72.0726C71.8688 72.3423 71.9008 72.7857 71.9336 73.0906C72.0734 74.3901 72.1087 75.7024 72.2305 77.0043C72.3226 77.9888 72.4129 78.9771 72.5565 79.9558C72.5978 80.2374 72.6291 79.1383 72.6324 79.0762C72.7451 76.9532 72.8029 74.8542 73.0566 72.7401C73.0652 72.6682 73.1072 71.7203 73.2307 71.6997C73.3991 71.6717 73.4724 73.2527 73.4763 73.3027C73.6129 75.0787 73.7983 76.8587 73.8268 78.6408C73.8327 79.0099 73.848 79.1127 73.9094 78.6743C74.0134 77.9321 74.0892 77.1861 74.1952 76.444C74.409 74.9475 74.638 73.4024 75.0346 71.9409C75.2071 71.3054 75.2607 72.1605 75.2757 72.345C75.3815 73.6432 75.3886 74.9485 75.3472 76.2497C75.3223 77.033 75.2697 77.8152 75.2445 78.5984C75.2231 79.2651 75.2941 78.6203 75.3249 78.3662C75.5716 76.3253 76.0677 74.3608 76.6845 72.403C76.6874 72.3936 76.984 71.4567 77.0038 71.5926C77.1169 72.3704 76.9377 73.2399 76.8609 74.0105C76.7449 75.173 76.6184 76.3379 76.5483 77.5044C76.5477 77.514 76.4601 78.7174 76.6532 78.2345C76.8884 77.6465 76.9864 76.9991 77.1176 76.3837C77.4239 74.9473 77.8168 73.553 78.3076 72.1686C78.522 71.5637 78.6971 70.8593 79.0198 70.2977C79.294 69.8202 78.9144 71.3954 78.8121 71.9364C78.5512 73.3175 78.2157 74.6832 77.9035 76.0533C77.7795 76.5973 77.4412 77.4043 77.4815 77.9822C77.4865 78.054 77.5475 77.8538 77.5708 77.7857C77.7686 77.2087 77.9371 76.6206 78.1156 76.0376C78.5264 74.696 78.9743 73.3841 79.5578 72.1061C79.9281 71.295 81.0039 68.8613 80.7701 69.7217C80.1137 72.1372 79.1407 74.4819 78.3567 76.8592C78.344 76.8978 78.0125 77.7542 78.2942 77.2946C78.6171 76.7678 78.8939 76.213 79.2073 75.6804C79.6284 74.9649 80.0546 74.2511 80.4821 73.5394C80.5995 73.344 80.8904 72.7149 81.1675 72.6687C81.3824 72.6329 81.0961 73.103 81.009 73.3027C80.5482 74.3594 79.9757 75.3694 79.3614 76.3435C79.009 76.9023 78.6234 77.5651 78.1156 78.0045C77.9056 78.1862 77.9827 77.8719 78.0263 77.7768C78.5915 76.5436 79.2795 75.4171 79.7141 74.1132C80.0417 73.1305 80.3223 72.1076 80.433 71.0746C80.4548 70.8707 80.5271 70.4915 80.4375 70.2865C80.401 70.2033 80.3463 70.4454 80.3191 70.5321C80.0495 71.3916 79.7557 72.247 79.4462 73.0929C78.6986 75.1362 77.3282 76.8221 75.1686 77.4821C73.3003 78.0531 70.7643 77.7536 69.1049 76.7096C68.0283 76.0323 67.1929 75.0157 66.4437 74.0082C65.7061 73.0164 65.0087 72.0652 64.5638 70.9139C64.4094 70.5142 64.2263 70.1396 64.0012 69.7753C63.8725 69.5669 64.2113 70.2613 64.2379 70.3267C64.8387 71.8068 65.1617 73.3879 65.7404 74.8789C66.3479 76.444 67.0536 77.4667 68.6271 78.1586C69.9515 78.7409 71.6769 79.0811 73.1101 78.9645C74.3527 78.8635 75.4717 78.5398 76.3719 77.6563C76.8448 77.1921 77.2358 76.6792 77.6021 76.1292C78.5989 74.6319 79.1953 72.9404 80.1829 71.4408C80.2454 71.3459 80.6703 70.4797 80.7411 70.8335" stroke="black" stroke-width="2" stroke-linecap="round" stroke-linejoin="round"/>
<path d="M82.6299 69.3064C81.8226 71.0323 81.2169 72.9071 80.1919 74.5217C79.7612 75.2003 78.381 77.1781 78.839 76.5176C80.2392 74.498 83.3719 67.8019 82.1075 69.9092" stroke="black" stroke-width="2" stroke-linecap="round" stroke-linejoin="round"/>
<path d="M62.0127 66.9115C62.781 69.3764 63.4558 71.8704 64.2562 74.3253C64.5899 75.3489 65.0893 76.2236 65.7105 77.1023C66.3484 78.0047 67.1132 78.8381 68.0928 79.3714C71.0849 81.0002 74.8866 81.1169 77.8561 79.4116C80.9673 77.6248 83.0754 74.4329 83.4959 70.8486C83.6045 69.9234 83.6005 68.993 83.6494 68.0643C83.6521 68.0123 83.6692 67.1064 83.6512 67.1088C83.4659 67.1341 83.2516 67.378 83.1269 67.487C82.6711 67.8853 82.2289 68.2976 81.7329 68.6471C80.4298 69.5656 78.941 70.3906 77.4286 70.9016C75.7456 71.4703 73.8634 71.6705 72.0975 71.7822C70.2061 71.9018 68.481 71.4471 66.8962 70.3955C66.0234 69.8164 65.2403 69.1182 64.3512 68.5594C63.9507 68.3077 63.5862 68.0491 63.2989 67.666C63.1709 67.4954 63.1598 67.3825 62.9682 67.3226C62.8086 67.2727 62.7763 67.2696 62.9664 67.1746" stroke="black" stroke-width="2" stroke-linecap="round" stroke-linejoin="round"/>
<line x1="62.5" y1="25" x2="62.5" y2="67" stroke="black"/>
<line x1="83.5" y1="26" x2="83.5" y2="67" stroke="black"/>
<path d="M24.0596 22L126 27.5" stroke="black" stroke-width="4"/>
<path d="M26.0003 21.5L45.0003 81" stroke="black" stroke-width="4"/>
<path d="M26.5 21.5L12.9705 98.3416" stroke="black" stroke-width="4"/>
<path d="M124 26.5L141 86" stroke="black" stroke-width="4"/>
<line x1="123.971" y1="25.3416" x2="110.971" y2="100.342" stroke="black" stroke-width="4"/>
</svg>