<svg width="135" height="127" viewBox="0 0 135 127" fill="none" xmlns="http://www.w3.org/2000/svg">
<path d="M67.5 0C30.2782 0 0 28.484 0 63.5C0 98.516 30.2782 127 67.5 127C104.722 127 135 98.5111 135 63.5C135 28.4889 104.722 0 67.5 0ZM67.5 117.163C36.0505 117.163 10.457 93.0908 10.457 63.5C10.457 33.9092 36.0505 9.83729 67.5 9.83729C98.9495 9.83729 124.543 33.9092 124.543 63.5C124.543 93.0908 98.9547 117.163 67.5 117.163Z" fill="#4D4C4C"/>
<path d="M93.6421 58.1388H72.7282V38.4642C72.7282 35.7491 70.391 33.5454 67.4996 33.5454C64.6081 33.5454 62.271 35.7491 62.271 38.4642V58.1388H41.357C38.4656 58.1388 36.1284 60.3424 36.1284 63.0575C36.1284 65.7727 38.4656 67.9763 41.357 67.9763H62.271V87.6509C62.271 90.366 64.6081 92.5697 67.4996 92.5697C70.391 92.5697 72.7282 90.366 72.7282 87.6509V67.9763H93.6421C96.5335 67.9763 98.8707 65.7727 98.8707 63.0575C98.8707 60.3424 96.5335 58.1388 93.6421 58.1388Z" fill="#4D4C4C"/>
</svg>