<svg width="265" height="200" viewBox="0 0 265 194" fill="none" xmlns="http://www.w3.org/2000/svg"> <path d="M83.9206 45.2429C86.3952 76.1298 89.8955 106.824 89.182 137.857C88.8355 152.93 84.5686 177.358 99.9337 186.419C122.927 199.979 147.353 182.108 163.136 166.027C178.978 149.886 184.51 121.945 188.038 100.472C192.156 75.4105 193.742 35.6815 175.326 15.341C163.252 2.00569 138.529 0.368765 122.091 6.19065C110.268 10.3777 99.7399 18.8993 93.267 29.6874C91.5483 32.552 79.4676 55.8312 83.9206 55.8312" stroke="black" stroke-width="5" stroke-linecap="round" stroke-linejoin="round"/>
<path d="M111.694 109.711C105.223 113.441 99.0013 116.292 100.06 124.548C100.589 128.678 102.948 132.152 106.53 134.286C115.119 139.403 123.678 129.75 127.543 123.208C130.376 118.413 129.852 111.023 129.177 105.691C128.258 98.4282 127.12 89.672 123.916 82.979C119.1 72.9187 110.667 58.7965 111.759 47.3254C113.458 29.4832 133.52 25.9602 146.922 34.2862C166.224 46.2764 168.584 75.2842 166.4 95.4627C164.016 117.471 155.963 145.91 133.785 154.972C129.694 156.644 118.269 163.181 113.851 159.352C111.671 157.463 113.762 153.164 114.047 150.888" stroke="black" stroke-width="3" stroke-linecap="round" stroke-linejoin="round"/>
<path d="M18.8828 15.0588C29.8366 20.6858 42.2967 25.3548 51.824 33.2941" stroke="black" stroke-width="5" stroke-linecap="round" stroke-linejoin="round"/>
<path d="M3 96.8235C16.5704 94.9417 56.5854 86.0205 43.5882 90.3529" stroke="black" stroke-width="5" stroke-linecap="round" stroke-linejoin="round"/>
<path d="M25.353 184.471C35.9172 178.696 66.5468 159.557 56.5295 166.235" stroke="black" stroke-width="5" stroke-linecap="round" stroke-linejoin="round"/>
<path d="M220.647 42.7059C230.598 36.8692 241.117 28.7277 252.412 25.6471" stroke="black" stroke-width="5" stroke-linecap="round" stroke-linejoin="round"/>
<path d="M215.941 93.8823C231.121 96.2231 246.505 96.6705 261.824 97.4117" stroke="black" stroke-width="5" stroke-linecap="round" stroke-linejoin="round"/>
<path d="M200.059 160.941C211.985 169.266 223.871 177.561 234.83 187.15C235.805 188.003 238.622 190.681 237.706 189.765" stroke="black" stroke-width="5" stroke-linecap="round" stroke-linejoin="round"/>
</svg>