<svg width="228" height="200" viewBox="0 0 228 214" fill="none" xmlns="http://www.w3.org/2000/svg">
<rect x="73.5" y="17.5" width="85" height="85" stroke="black" stroke-width="5"/>
<rect x="28.5" y="107.5" width="85" height="85" stroke="black" stroke-width="5"/>
<rect x="118.5" y="107.5" width="85" height="85" stroke="black" stroke-width="5"/>
<path d="M122.891 70.2109H107.48L104.551 79H95.2051L111.084 36.3438H119.229L135.195 79H125.85L122.891 70.2109ZM109.854 63.0918H120.518L115.156 47.125L109.854 63.0918Z" fill="black"/>
<path d="M53.8086 175V132.344H68.75C73.9258 132.344 77.8516 133.34 80.5273 135.332C83.2031 137.305 84.541 140.205 84.541 144.033C84.541 146.123 84.0039 147.969 82.9297 149.57C81.8555 151.152 80.3613 152.314 78.4473 153.057C80.6348 153.604 82.3535 154.707 83.6035 156.367C84.873 158.027 85.5078 160.059 85.5078 162.461C85.5078 166.562 84.1992 169.668 81.582 171.777C78.9648 173.887 75.2344 174.961 70.3906 175H53.8086ZM62.5977 156.426V167.939H70.127C72.1973 167.939 73.8086 167.451 74.9609 166.475C76.1328 165.479 76.7188 164.111 76.7188 162.373C76.7188 158.467 74.6973 156.484 70.6543 156.426H62.5977ZM62.5977 150.215H69.1016C73.5352 150.137 75.752 148.369 75.752 144.912C75.752 142.979 75.1855 141.592 74.0527 140.752C72.9395 139.893 71.1719 139.463 68.75 139.463H62.5977V150.215Z" fill="black"/>
<path d="M177.295 160.791C176.963 165.381 175.264 168.994 172.197 171.631C169.15 174.268 165.127 175.586 160.127 175.586C154.658 175.586 150.352 173.75 147.207 170.078C144.082 166.387 142.52 161.328 142.52 154.902V152.295C142.52 148.193 143.242 144.58 144.688 141.455C146.133 138.33 148.193 135.938 150.869 134.277C153.564 132.598 156.689 131.758 160.244 131.758C165.166 131.758 169.131 133.076 172.139 135.713C175.146 138.35 176.885 142.051 177.354 146.816H168.564C168.35 144.062 167.578 142.07 166.25 140.84C164.941 139.59 162.939 138.965 160.244 138.965C157.314 138.965 155.117 140.02 153.652 142.129C152.207 144.219 151.465 147.471 151.426 151.885V155.107C151.426 159.717 152.119 163.086 153.506 165.215C154.912 167.344 157.119 168.408 160.127 168.408C162.842 168.408 164.863 167.793 166.191 166.562C167.539 165.312 168.311 163.389 168.506 160.791H177.295Z" fill="black"/>
</svg>
