<svg width="248" height="200" viewBox="0 0 248 228" fill="none" xmlns="http://www.w3.org/2000/svg">
<rect x="183.866" y="14.366" width="21" height="175" transform="rotate(30 183.866 14.366)" stroke="black" stroke-width="2"/>
<path d="M189.255 46.4674C184.549 44.0989 176.85 41.4573 173.292 37.7629C171.6 36.0055 174.606 38.8791 175.128 39.3342C176.962 40.9343 179.325 42.5809 181.468 43.742C183.579 44.8853 185.289 45.7551 187.197 47.107C190.959 49.7716 179.312 42.3205 175.503 39.7235C174.366 38.9479 171.095 36.4557 172.069 37.4292C174.008 39.3686 176.589 41.1379 178.979 42.4489C181.189 43.6604 183.539 44.5662 185.64 45.9668C186.22 46.3533 188.085 47.1799 187.392 47.107C183.245 46.6705 178.786 42.0044 175.128 40.1546C174.688 39.9321 171.497 38.4842 171.679 38.7502C173.047 40.7388 176.422 42.4693 178.465 43.5613C180.81 44.8147 183.149 46.2154 185.64 47.1626C185.75 47.2043 188.279 47.9006 187.823 47.1904C186.706 45.4528 182.764 44.1137 180.996 43.2136C178.283 41.8326 176.002 40.3382 173.779 38.2635C173.41 37.9193 171.168 36.6326 172.736 37.4014C174.865 38.4449 177.049 39.674 179.021 40.9889C181.21 42.4482 183.444 43.701 185.779 44.91C186.397 45.2299 187.956 46.6993 188.699 46.6064C190.878 46.3341 185.217 43.8922 183.276 42.866C180.363 41.3265 177.535 39.7386 174.683 38.0967C172.701 36.9553 172.32 36.6226 174.154 38.4999C176.663 41.0667 179.789 42.6741 182.873 44.4512C184.456 45.3638 189.497 47.1624 187.67 47.107C185.418 47.0388 182.11 44.6742 180.245 43.5752C178.028 42.269 175.855 40.707 173.598 39.515C172.815 39.1012 170.878 37.8816 172.736 39.209" stroke="black" stroke-linecap="round" stroke-linejoin="round"/>
<path d="M184.5 55.9783C140.184 26.8162 199.986 66.3678 175.489 51.7234C172.895 50.1725 169.547 49.0859 167.147 47.3712C164.444 45.4411 172.973 50.6113 175.601 52.6411C175.954 52.9142 182.543 57.5072 182.734 56.8404C182.898 56.2666 174.831 52.1741 174.071 51.7234C171.729 50.3335 164.849 45.9228 167.147 47.3851C170.251 49.3609 173.464 51.1955 176.491 53.2808C177.427 53.9262 184.478 57.1503 181.204 54.8242C177.911 52.4842 174.697 49.6479 171.179 47.6632C169.981 46.9872 166.424 44.8972 167.578 45.647C170.688 47.6687 173.58 50.0686 176.797 51.9181C177.113 52.0999 179.394 53.533 178.757 53.1556C176.397 51.7568 174.285 50.0029 171.902 48.6365C170.805 48.0076 163.775 45.2427 168.481 45.9668" stroke="black" stroke-linecap="round" stroke-linejoin="round"/>
<path d="M186.502 47.9691C186.495 47.9769 179.85 55.5706 181.761 52.5855C182.683 51.1445 183.414 49.5727 184.486 48.2333C185.518 46.943 184.133 49.8673 183.944 50.4163C183.462 51.8104 182.538 53.0208 182.247 54.4766" stroke="black" stroke-linecap="round" stroke-linejoin="round"/>
<path d="M180.746 45.4662C180.604 45.7712 177.764 51.5941 178.243 50.611C178.634 49.8069 179.039 49.012 179.55 48.275C179.845 47.8491 181.424 45.6105 181.246 45.9668" stroke="black" stroke-linecap="round" stroke-linejoin="round"/>
<path d="M177.993 43.9645C177.925 44.0461 174.225 48.5165 174.878 47.4407C175.265 46.8031 175.601 46.1333 175.935 45.4662C176.196 44.9433 177.242 41.9064 177.242 43.2136" stroke="black" stroke-linecap="round" stroke-linejoin="round"/>
<path d="M173.738 40.2102C173.53 40.6989 170.734 47.2739 170.734 46.2727C170.734 45.3083 171.393 44.3786 171.875 43.5891C172.383 42.7557 174.09 38.7444 173.738 41.2113" stroke="black" stroke-linecap="round" stroke-linejoin="round"/>
<path d="M116.171 175.866C110.519 181.476 104.994 187.043 99.3883 192.649C98.8985 193.139 92.271 198.388 93.0199 196.89C95.2371 192.455 95.3976 185.389 95.3976 180.482C95.3976 177.425 95.1256 174.142 95.5227 171.124C95.7007 169.772 95.533 165.264 95.1473 169.025C94.4631 175.695 94.4071 182.436 93.59 189.075C93.3293 191.194 93.3953 193.68 93.3953 195.833C93.3953 196.929 93.34 197.686 94.6467 196.584C99.0848 192.842 103.56 188.478 107.662 184.376C109.455 182.582 110.947 180.443 112.584 178.508C113.031 177.98 116.282 174.958 114.169 176.366" stroke="black" stroke-linecap="round" stroke-linejoin="round"/>
<path d="M100.904 189.381C87.8964 182.589 106.872 192.954 97.7891 187.629C94.0932 185.463 98.8698 188.558 99.8471 189.381C101.223 190.54 95.4914 187.4 96.0093 187.81C97.1012 188.675 98.3598 189.315 99.3743 190.285C99.7085 190.605 97.3854 189.599 96.927 189.395C94.1669 188.169 100.372 192.094 98.5956 191.133C97.54 190.562 93.2089 188.182 96.2318 190.327C96.856 190.77 98.026 191.468 98.3731 192.162C98.8958 193.208 96.4007 190.888 95.328 190.424C94.3005 189.98 94.5026 190.253 95.2028 190.8C96.1087 191.507 99.0221 192.983 97.8726 192.983C97.3622 192.983 93.2498 190.698 94.9526 192.274C95.5851 192.859 97.7191 194.282 96.927 193.942C96 193.545 95.1764 192.891 94.2573 192.482C94.2328 192.471 95.6334 194.126 96.0928 194.457C97.8427 195.714 93.3979 192.928 93.9514 193.636C94.2444 194.011 96.9789 195.841 95.3975 195.138C94.2737 194.638 94.9973 195.199 94.2851 195.402C93.9602 195.495 94.277 195.19 94.4242 194.79C94.9864 193.264 95.2596 191.664 95.5087 190.063C95.9357 187.318 94.9129 189.284 94.8969 190.8C94.8128 198.789 93.6542 184.085 94.2017 191.133C94.3914 193.575 94.332 194.591 94.8969 191.578C95.0453 190.787 96.2308 184.914 95.4948 188.186C95.1385 189.769 94.5689 191.299 94.4242 192.927C94.4181 192.995 94.4899 194.359 94.2851 194.359C94.054 194.359 94.3964 189.027 94.3964 188.436C94.3964 186.051 94.4036 191.15 94.3964 191.717C94.3639 194.253 95.5817 188.019 95.6339 187.184C95.7455 185.399 94.404 190.615 94.2851 191.328C93.9351 193.428 94.6466 189.241 94.6466 188.519C94.6466 187.418 94.9646 186.86 94.883 188.533C94.776 190.728 94.8459 188.944 94.883 187.81C94.9227 186.601 94.9573 182.973 94.8969 184.181C94.6752 188.615 94.7516 189.299 93.2979 195.986C93.0226 197.253 95.8919 194.25 96.2457 193.914C97.6743 192.561 95.7084 196.571 95.3975 195.639" stroke="black" stroke-linecap="round" stroke-linejoin="round"/>
<path d="M105.82 20.0241C90.1741 22.7121 71.0097 24.2957 63.1157 40.567C59.8367 47.3258 59.6851 54.7974 66.7506 58.8587C75.1406 63.6813 95.1305 64.5547 92.7341 78.7919C91.8628 83.9683 86.5577 85.7331 82.1343 87.3045C70.9607 91.2741 61.2918 95.4555 53.0084 104.588C47.3945 110.777 31.3785 131.071 44.0033 139.037C51.6216 143.844 60.956 137.765 68.8377 140.561C76.2518 143.192 69.0776 152.928 65.9063 155.617C57.3709 162.854 46.9772 167.599 42.1741 178.458C38.6318 186.467 39.0145 197.865 45.4103 204.395C50.8165 209.913 59.836 210.169 67.032 208.874C74.2845 207.568 81.0782 204.615 87.2466 200.689C88.9865 199.582 91.1564 198.592 93.1562 198.063C93.9833 197.844 97.0322 197.888 96.5331 196.89" stroke="black" stroke-width="2" stroke-linecap="round" stroke-linejoin="round"/>
</svg>